<svg width="3964" height="810" viewBox="0 0 3964 810" fill="none" xmlns="http://www.w3.org/2000/svg">
<mask id="path-1-outside-1_10361_4395" maskUnits="userSpaceOnUse" x="0" y="0" width="810" height="810" fill="black">
<rect fill="white" width="810" height="810"/>
<path d="M142.186 6.32965C74.6096 11.7696 28.7822 28.4781 12.0823 53.8646C5.73899 63.4493 3.27933 81.453 6.25682 96.7367C14.4125 139.997 67.8779 194.915 172.349 267.319C188.142 278.328 192.285 281.696 190.861 282.732C138.561 319.387 117.459 336.484 85.8722 368.088C59.8516 394.122 46.3882 410.701 32.9247 432.72C11.8234 467.561 3.6677 498.647 5.35063 537.245C8.0692 597.343 45.3525 646.821 122.379 692.672C141.02 703.811 161.216 714.303 178.692 721.815C184.906 724.406 189.825 727.126 189.437 727.644C188.66 728.809 192.932 727.126 89.7559 768.702C15.966 798.363 -0.733804 805.746 9.2343 804.321C18.814 802.767 122.249 765.983 176.232 744.741L205.748 733.084L220.248 738.653C294.814 766.889 398.249 790.203 491.069 799.399C559.422 806.264 641.109 806.912 689.655 800.824C736.259 794.996 770.306 783.209 788.43 766.63C800.599 755.362 804.094 747.849 804.741 730.752C805.518 711.583 802.152 698.89 791.796 681.533C768.493 642.547 709.85 590.22 627.386 534.654C622.597 531.416 618.583 528.437 618.583 527.919C618.583 527.401 624.021 523.386 630.623 518.852C689.525 479.348 746.356 425.466 773.672 383.112C788.171 360.834 799.174 334.153 803.058 312.134C805.647 297.368 805.647 266.412 803.058 251.646C796.844 216.287 774.578 181.963 737.683 151.007C713.475 130.672 670.625 104.767 635.024 88.9654C626.61 85.3387 620.266 81.8416 620.784 81.3235C621.82 80.2873 693.15 51.2741 764.48 22.9086C786.747 14.101 805 6.45918 805 5.81157C805 3.7392 799.175 5.29349 771.859 14.4896C734.317 27.1829 690.043 43.2437 642.921 61.377L604.602 76.1426L587.514 69.6664C504.533 38.1923 388.411 14.2305 283.293 6.84773C253 4.77537 166.264 4.3868 142.186 6.32965ZM276.82 10.7334C371.582 19.4115 468.156 39.4876 548.807 66.9465C582.206 78.474 587.126 80.4169 586.996 81.9712C586.996 82.6188 581.43 85.4682 574.568 88.1882C465.696 132.097 352.681 185.978 272.936 231.959C251.576 244.264 220.118 263.303 211.315 269.262L205.878 272.888L180.893 255.921C106.326 205.407 54.6733 162.016 30.0767 129.377C20.6264 116.683 10.9172 98.032 8.97539 88.4473C5.09171 69.0188 20.6264 48.1656 49.3656 34.0476C77.1987 20.4477 110.598 13.3239 170.666 8.2725C184.259 7.10679 255.718 8.79058 276.82 10.7334ZM400.191 23.6858C450.032 32.1048 498.319 43.3733 541.428 56.9732C568.743 65.5217 597.871 75.754 599.683 77.4378C600.33 78.0854 598.777 78.8626 596.446 79.3807C593.21 79.8988 589.715 79.2511 583.76 76.7902C537.156 57.7503 458.835 36.12 390.223 23.5562C376.76 21.0953 365.368 18.7639 364.979 18.3753C364.591 17.9868 366.274 17.9868 368.733 18.3753C371.193 18.8934 385.433 21.2248 400.191 23.6858ZM755.677 23.5562C755.418 23.8153 741.825 29.3847 725.385 35.9904C709.073 42.4666 677.615 55.1599 655.737 64.0969C625.704 76.2721 614.959 80.0283 612.499 79.3807C610.557 78.9921 609.651 78.0854 610.298 77.4378C612.628 75.2359 677.098 50.497 725.385 33.2705C751.794 23.9448 757.101 22.1315 755.677 23.5562ZM598.518 85.2092C600.848 86.1159 600.46 86.5044 595.929 88.4473C496.765 130.931 453.268 150.877 384.009 185.849C323.165 216.416 274.619 243.486 232.416 270.168L217.141 279.753L212.739 277.421C210.279 276.126 208.596 274.701 208.985 274.183C209.632 273.018 251.705 247.113 272.289 235.197C333.651 199.708 419.351 157.224 499.484 122.771C542.463 104.12 591.786 83.914 593.987 84.0435C595.022 84.0435 597.094 84.5616 598.518 85.2092ZM628.94 89.2244C668.424 106.321 710.886 131.708 737.165 153.986C766.811 179.113 788.947 210.069 797.233 238.176C800.081 247.631 800.081 252.423 797.233 243.616C796.326 240.896 793.09 233.643 790.113 227.426C772.895 192.584 739.366 159.037 691.726 129.247C676.45 119.662 636.06 98.5501 618.583 90.9082C608.356 86.5044 608.486 86.634 610.816 85.2092C614.053 83.1368 616.253 83.6549 628.94 89.2244ZM631.658 100.104C732.893 147.251 791.666 206.184 801.246 270.168C806.165 302.29 787.523 349.177 752.829 392.179C722.796 429.352 677.615 468.986 620.914 507.973L604.473 519.241L596.964 514.19C569.002 495.279 515.537 462.251 389.446 386.091C333.521 352.286 272.289 314.854 253.388 303.067L218.953 281.437L224.908 277.681C280.962 242.062 356.306 201.132 434.109 163.83C502.85 130.931 602.143 87.5406 606.285 88.7063C607.709 89.0949 619.101 94.1463 631.658 100.104ZM30.5945 134.169C40.4332 146.733 67.1011 173.155 85.3544 188.569C109.822 209.033 160.439 246.077 193.062 267.189C198.499 270.686 203.03 273.924 203.03 274.313C203.03 275.867 195.133 279.623 193.58 278.717C189.825 276.385 157.202 253.589 144.127 244.005C76.8103 194.915 33.7015 152.561 17.0017 119.015C9.88158 104.767 9.88158 102.695 17.1311 114.74C20.1086 119.921 26.193 128.729 30.5945 134.169ZM200.052 286.099L204.454 288.819L201.217 290.503C195.133 293.741 163.675 316.149 146.069 329.749C76.2925 384.019 31.7596 436.735 14.6715 485.176C11.4351 494.114 9.36376 497.352 10.7878 491.264C23.2155 438.03 65.0298 383.112 137.266 325.345C153.707 312.134 193.321 283.38 195.004 283.38C195.263 283.38 197.593 284.675 200.052 286.099ZM236.429 295.555C265.816 314.206 299.863 335.059 393.33 391.531C514.76 464.841 593.987 513.931 600.201 519.759C601.495 520.925 600.977 521.702 597.482 523.645L593.081 525.976L548.548 498.129C524.081 482.716 459.223 443.081 404.334 410.053C349.574 377.025 295.073 343.867 283.293 336.484C241.608 310.45 209.503 289.597 209.503 288.56C209.503 287.524 214.681 283.509 216.364 283.509C216.882 283.38 225.944 288.819 236.429 295.555ZM212.739 294.648C238.76 312.393 303.358 352.286 419.221 422.228C539.356 494.761 590.103 526.235 590.103 528.049C589.974 529.214 555.797 550.197 526.022 567.294C462.977 603.431 399.544 635.682 317.598 672.855C287.306 686.714 207.431 721.168 205.878 721.168C204.195 721.168 177.527 709.122 162.899 701.739C94.1574 667.286 44.7052 624.802 23.2155 581.93C11.9529 559.782 6.51573 535.561 8.84594 518.852C17.2606 459.401 61.9229 398.914 146.069 333.116C170.019 314.465 202.771 291.28 205.619 291.28C206.784 291.151 209.891 292.705 212.739 294.648ZM795.809 330.785C784.417 366.922 762.797 399.303 724.737 437.642C695.48 467.173 662.21 494.502 627.775 517.687L615.606 525.976L611.204 523.645C608.874 522.35 607.321 520.925 607.839 520.407C608.486 519.889 616.771 514.06 626.351 507.454C715.934 445.672 775.743 381.169 795.55 324.697C800.598 310.45 800.857 315.113 795.809 330.785ZM601.495 535.95C600.589 536.338 589.844 542.814 577.805 550.327C495.471 601.747 384.139 656.924 253.518 711.065C234.617 718.966 217.917 725.312 216.234 725.312C211.445 725.442 209.762 722.851 213.516 721.297C228.662 714.821 299.863 683.865 310.478 679.073C410.677 634.128 518.902 577.397 581.689 537.115L593.34 529.603L598.259 532.452C601.366 534.136 602.531 535.431 601.495 535.95ZM634.377 542.555C729.527 608.741 783.122 660.292 798.398 700.703C800.599 706.531 799.175 704.977 792.961 694.227C785.064 680.886 775.484 669.099 758.008 651.355C728.621 621.694 695.998 595.919 633.73 553.306L606.932 534.913L610.428 532.193C612.499 530.769 614.7 529.732 615.606 530.121C616.512 530.38 624.927 536.079 634.377 542.555ZM634.636 556.803C739.366 628.429 792.313 680.368 801.116 720.261C803.058 728.939 802.281 734.12 797.103 744.223C785.323 768.055 748.428 786.188 694.315 794.866C669.33 798.881 670.236 798.752 644.475 800.695C621.043 802.378 566.672 801.731 542.204 799.529C457.281 791.887 381.291 778.028 305.818 756.268C271.124 746.295 225.167 730.623 222.06 727.773C221.542 727.255 228.274 724.017 236.947 720.52C313.585 690.341 429.837 636.459 496.248 600.582C530.812 581.93 580.523 552.658 595.929 541.908C599.553 539.447 603.178 537.374 604.214 537.374C605.12 537.245 618.842 546.052 634.636 556.803ZM14.0242 567.683C19.9791 586.464 35.9022 609.907 57.9097 631.926C89.3675 663.4 123.673 686.196 177.139 711.453C190.343 717.541 201.217 722.851 201.476 723.11C201.735 723.24 200.182 724.017 198.111 724.794C194.874 725.96 192.026 724.924 174.42 716.764C118.884 690.989 79.9173 665.084 51.8253 634.905C31.6302 613.404 16.3544 587.111 11.5645 565.61C10.1405 559.134 11.8234 560.559 14.0242 567.683ZM200.311 731.011C200.57 731.27 200.57 731.918 200.052 732.307C197.722 734.767 54.4144 787.872 53.2493 786.706C52.9904 786.577 84.7071 773.495 123.673 757.693C188.401 731.659 197.463 728.421 200.311 731.011ZM229.18 733.602C286.27 755.491 351.904 773.236 425.047 786.577C450.938 791.369 451.585 792.535 425.953 788.52C381.42 781.396 343.748 773.495 305.947 763.133C265.687 752.124 210.797 733.861 210.797 731.529C210.797 730.623 212.869 729.716 216.234 729.068C216.623 729.068 222.448 731.011 229.18 733.602Z"/>
<path d="M755.677 23.5562C755.418 23.8153 741.825 29.3847 725.385 35.9904C709.073 42.4666 677.615 55.1599 655.737 64.0969C625.704 76.2721 614.959 80.0283 612.499 79.3807C610.557 78.9921 609.651 78.0854 610.298 77.4378C612.628 75.2359 677.098 50.497 725.385 33.2705C751.794 23.9448 757.101 22.1315 755.677 23.5562Z"/>
<path d="M598.518 85.2092C600.848 86.1159 600.46 86.5044 595.929 88.4473C496.765 130.931 453.268 150.877 384.009 185.849C323.165 216.416 274.619 243.486 232.416 270.168L217.141 279.753L212.739 277.421C210.279 276.126 208.596 274.701 208.985 274.183C209.632 273.018 251.705 247.113 272.289 235.197C333.651 199.708 419.351 157.224 499.484 122.771C542.463 104.12 591.786 83.914 593.987 84.0435C595.022 84.0435 597.094 84.5616 598.518 85.2092Z"/>
<path d="M628.94 89.2244C668.424 106.321 710.886 131.708 737.165 153.986C766.811 179.113 788.947 210.069 797.233 238.176C800.081 247.631 800.081 252.423 797.233 243.616C796.326 240.896 793.09 233.643 790.113 227.426C772.895 192.584 739.366 159.037 691.726 129.247C676.45 119.662 636.06 98.5501 618.583 90.9082C608.356 86.5044 608.486 86.634 610.816 85.2092C614.053 83.1368 616.253 83.6549 628.94 89.2244Z"/>
<path d="M400.191 23.6858C450.032 32.1048 498.319 43.3733 541.428 56.9732C568.743 65.5217 597.871 75.754 599.683 77.4378C600.33 78.0854 598.777 78.8626 596.446 79.3807C593.21 79.8988 589.715 79.2511 583.76 76.7902C537.156 57.7503 458.835 36.12 390.223 23.5562C376.76 21.0953 365.368 18.7639 364.979 18.3753C364.591 17.9868 366.274 17.9868 368.733 18.3753C371.193 18.8934 385.433 21.2248 400.191 23.6858Z"/>
<path d="M30.5945 134.169C40.4332 146.733 67.1011 173.155 85.3544 188.569C109.822 209.033 160.439 246.077 193.062 267.189C198.499 270.686 203.03 273.924 203.03 274.313C203.03 275.867 195.133 279.623 193.58 278.717C189.825 276.385 157.202 253.589 144.127 244.005C76.8103 194.915 33.7015 152.561 17.0017 119.015C9.88158 104.767 9.88158 102.695 17.1311 114.74C20.1086 119.921 26.193 128.729 30.5945 134.169Z"/>
<path d="M200.052 286.099L204.454 288.819L201.217 290.503C195.133 293.741 163.675 316.149 146.069 329.749C76.2925 384.019 31.7596 436.735 14.6715 485.176C11.4351 494.114 9.36376 497.352 10.7878 491.264C23.2155 438.03 65.0298 383.112 137.266 325.345C153.707 312.134 193.321 283.38 195.004 283.38C195.263 283.38 197.593 284.675 200.052 286.099Z"/>
<path d="M236.429 295.555C265.816 314.206 299.863 335.059 393.33 391.531C514.76 464.841 593.987 513.931 600.201 519.759C601.495 520.925 600.977 521.702 597.482 523.645L593.081 525.976L548.548 498.129C524.081 482.716 459.223 443.081 404.334 410.053C349.574 377.025 295.073 343.867 283.293 336.484C241.608 310.45 209.503 289.597 209.503 288.56C209.503 287.524 214.681 283.509 216.364 283.509C216.882 283.38 225.944 288.819 236.429 295.555Z"/>
<path d="M200.311 731.011C200.57 731.27 200.57 731.918 200.052 732.307C197.722 734.767 54.4144 787.872 53.2493 786.706C52.9904 786.577 84.7071 773.495 123.673 757.693C188.401 731.659 197.463 728.421 200.311 731.011Z"/>
<path d="M14.0242 567.683C19.9791 586.464 35.9022 609.907 57.9097 631.926C89.3675 663.4 123.673 686.196 177.139 711.453C190.343 717.541 201.217 722.851 201.476 723.11C201.735 723.24 200.182 724.017 198.111 724.794C194.874 725.96 192.026 724.924 174.42 716.764C118.884 690.989 79.9173 665.084 51.8253 634.905C31.6302 613.404 16.3544 587.111 11.5645 565.61C10.1405 559.134 11.8234 560.559 14.0242 567.683Z"/>
<path d="M601.495 535.95C600.589 536.338 589.844 542.814 577.805 550.327C495.471 601.747 384.139 656.924 253.518 711.065C234.617 718.966 217.917 725.312 216.234 725.312C211.445 725.442 209.762 722.851 213.516 721.297C228.662 714.821 299.863 683.865 310.478 679.073C410.677 634.128 518.902 577.397 581.689 537.115L593.34 529.603L598.259 532.452C601.366 534.136 602.531 535.431 601.495 535.95Z"/>
<path d="M229.18 733.602C286.27 755.491 351.904 773.236 425.047 786.577C450.938 791.369 451.585 792.535 425.953 788.52C381.42 781.396 343.748 773.495 305.947 763.133C265.687 752.124 210.797 733.861 210.797 731.529C210.797 730.623 212.869 729.716 216.234 729.068C216.623 729.068 222.448 731.011 229.18 733.602Z"/>
<path d="M634.377 542.555C729.527 608.741 783.122 660.292 798.398 700.703C800.599 706.531 799.175 704.977 792.961 694.227C785.064 680.886 775.484 669.099 758.008 651.355C728.621 621.694 695.998 595.919 633.73 553.306L606.932 534.913L610.428 532.193C612.499 530.769 614.7 529.732 615.606 530.121C616.512 530.38 624.927 536.079 634.377 542.555Z"/>
<path d="M795.809 330.785C784.417 366.922 762.797 399.303 724.737 437.642C695.48 467.173 662.21 494.502 627.775 517.687L615.606 525.976L611.204 523.645C608.874 522.35 607.321 520.925 607.839 520.407C608.486 519.889 616.771 514.06 626.351 507.454C715.934 445.672 775.743 381.169 795.55 324.697C800.598 310.45 800.857 315.113 795.809 330.785Z"/>
</mask>
<path d="M142.186 6.32965C74.6096 11.7696 28.7822 28.4781 12.0823 53.8646C5.73899 63.4493 3.27933 81.453 6.25682 96.7367C14.4125 139.997 67.8779 194.915 172.349 267.319C188.142 278.328 192.285 281.696 190.861 282.732C138.561 319.387 117.459 336.484 85.8722 368.088C59.8516 394.122 46.3882 410.701 32.9247 432.72C11.8234 467.561 3.6677 498.647 5.35063 537.245C8.0692 597.343 45.3525 646.821 122.379 692.672C141.02 703.811 161.216 714.303 178.692 721.815C184.906 724.406 189.825 727.126 189.437 727.644C188.66 728.809 192.932 727.126 89.7559 768.702C15.966 798.363 -0.733804 805.746 9.2343 804.321C18.814 802.767 122.249 765.983 176.232 744.741L205.748 733.084L220.248 738.653C294.814 766.889 398.249 790.203 491.069 799.399C559.422 806.264 641.109 806.912 689.655 800.824C736.259 794.996 770.306 783.209 788.43 766.63C800.599 755.362 804.094 747.849 804.741 730.752C805.518 711.583 802.152 698.89 791.796 681.533C768.493 642.547 709.85 590.22 627.386 534.654C622.597 531.416 618.583 528.437 618.583 527.919C618.583 527.401 624.021 523.386 630.623 518.852C689.525 479.348 746.356 425.466 773.672 383.112C788.171 360.834 799.174 334.153 803.058 312.134C805.647 297.368 805.647 266.412 803.058 251.646C796.844 216.287 774.578 181.963 737.683 151.007C713.475 130.672 670.625 104.767 635.024 88.9654C626.61 85.3387 620.266 81.8416 620.784 81.3235C621.82 80.2873 693.15 51.2741 764.48 22.9086C786.747 14.101 805 6.45918 805 5.81157C805 3.7392 799.175 5.29349 771.859 14.4896C734.317 27.1829 690.043 43.2437 642.921 61.377L604.602 76.1426L587.514 69.6664C504.533 38.1923 388.411 14.2305 283.293 6.84773C253 4.77537 166.264 4.3868 142.186 6.32965ZM276.82 10.7334C371.582 19.4115 468.156 39.4876 548.807 66.9465C582.206 78.474 587.126 80.4169 586.996 81.9712C586.996 82.6188 581.43 85.4682 574.568 88.1882C465.696 132.097 352.681 185.978 272.936 231.959C251.576 244.264 220.118 263.303 211.315 269.262L205.878 272.888L180.893 255.921C106.326 205.407 54.6733 162.016 30.0767 129.377C20.6264 116.683 10.9172 98.032 8.97539 88.4473C5.09171 69.0188 20.6264 48.1656 49.3656 34.0476C77.1987 20.4477 110.598 13.3239 170.666 8.2725C184.259 7.10679 255.718 8.79058 276.82 10.7334ZM400.191 23.6858C450.032 32.1048 498.319 43.3733 541.428 56.9732C568.743 65.5217 597.871 75.754 599.683 77.4378C600.33 78.0854 598.777 78.8626 596.446 79.3807C593.21 79.8988 589.715 79.2511 583.76 76.7902C537.156 57.7503 458.835 36.12 390.223 23.5562C376.76 21.0953 365.368 18.7639 364.979 18.3753C364.591 17.9868 366.274 17.9868 368.733 18.3753C371.193 18.8934 385.433 21.2248 400.191 23.6858ZM755.677 23.5562C755.418 23.8153 741.825 29.3847 725.385 35.9904C709.073 42.4666 677.615 55.1599 655.737 64.0969C625.704 76.2721 614.959 80.0283 612.499 79.3807C610.557 78.9921 609.651 78.0854 610.298 77.4378C612.628 75.2359 677.098 50.497 725.385 33.2705C751.794 23.9448 757.101 22.1315 755.677 23.5562ZM598.518 85.2092C600.848 86.1159 600.46 86.5044 595.929 88.4473C496.765 130.931 453.268 150.877 384.009 185.849C323.165 216.416 274.619 243.486 232.416 270.168L217.141 279.753L212.739 277.421C210.279 276.126 208.596 274.701 208.985 274.183C209.632 273.018 251.705 247.113 272.289 235.197C333.651 199.708 419.351 157.224 499.484 122.771C542.463 104.12 591.786 83.914 593.987 84.0435C595.022 84.0435 597.094 84.5616 598.518 85.2092ZM628.94 89.2244C668.424 106.321 710.886 131.708 737.165 153.986C766.811 179.113 788.947 210.069 797.233 238.176C800.081 247.631 800.081 252.423 797.233 243.616C796.326 240.896 793.09 233.643 790.113 227.426C772.895 192.584 739.366 159.037 691.726 129.247C676.45 119.662 636.06 98.5501 618.583 90.9082C608.356 86.5044 608.486 86.634 610.816 85.2092C614.053 83.1368 616.253 83.6549 628.94 89.2244ZM631.658 100.104C732.893 147.251 791.666 206.184 801.246 270.168C806.165 302.29 787.523 349.177 752.829 392.179C722.796 429.352 677.615 468.986 620.914 507.973L604.473 519.241L596.964 514.19C569.002 495.279 515.537 462.251 389.446 386.091C333.521 352.286 272.289 314.854 253.388 303.067L218.953 281.437L224.908 277.681C280.962 242.062 356.306 201.132 434.109 163.83C502.85 130.931 602.143 87.5406 606.285 88.7063C607.709 89.0949 619.101 94.1463 631.658 100.104ZM30.5945 134.169C40.4332 146.733 67.1011 173.155 85.3544 188.569C109.822 209.033 160.439 246.077 193.062 267.189C198.499 270.686 203.03 273.924 203.03 274.313C203.03 275.867 195.133 279.623 193.58 278.717C189.825 276.385 157.202 253.589 144.127 244.005C76.8103 194.915 33.7015 152.561 17.0017 119.015C9.88158 104.767 9.88158 102.695 17.1311 114.74C20.1086 119.921 26.193 128.729 30.5945 134.169ZM200.052 286.099L204.454 288.819L201.217 290.503C195.133 293.741 163.675 316.149 146.069 329.749C76.2925 384.019 31.7596 436.735 14.6715 485.176C11.4351 494.114 9.36376 497.352 10.7878 491.264C23.2155 438.03 65.0298 383.112 137.266 325.345C153.707 312.134 193.321 283.38 195.004 283.38C195.263 283.38 197.593 284.675 200.052 286.099ZM236.429 295.555C265.816 314.206 299.863 335.059 393.33 391.531C514.76 464.841 593.987 513.931 600.201 519.759C601.495 520.925 600.977 521.702 597.482 523.645L593.081 525.976L548.548 498.129C524.081 482.716 459.223 443.081 404.334 410.053C349.574 377.025 295.073 343.867 283.293 336.484C241.608 310.45 209.503 289.597 209.503 288.56C209.503 287.524 214.681 283.509 216.364 283.509C216.882 283.38 225.944 288.819 236.429 295.555ZM212.739 294.648C238.76 312.393 303.358 352.286 419.221 422.228C539.356 494.761 590.103 526.235 590.103 528.049C589.974 529.214 555.797 550.197 526.022 567.294C462.977 603.431 399.544 635.682 317.598 672.855C287.306 686.714 207.431 721.168 205.878 721.168C204.195 721.168 177.527 709.122 162.899 701.739C94.1574 667.286 44.7052 624.802 23.2155 581.93C11.9529 559.782 6.51573 535.561 8.84594 518.852C17.2606 459.401 61.9229 398.914 146.069 333.116C170.019 314.465 202.771 291.28 205.619 291.28C206.784 291.151 209.891 292.705 212.739 294.648ZM795.809 330.785C784.417 366.922 762.797 399.303 724.737 437.642C695.48 467.173 662.21 494.502 627.775 517.687L615.606 525.976L611.204 523.645C608.874 522.35 607.321 520.925 607.839 520.407C608.486 519.889 616.771 514.06 626.351 507.454C715.934 445.672 775.743 381.169 795.55 324.697C800.598 310.45 800.857 315.113 795.809 330.785ZM601.495 535.95C600.589 536.338 589.844 542.814 577.805 550.327C495.471 601.747 384.139 656.924 253.518 711.065C234.617 718.966 217.917 725.312 216.234 725.312C211.445 725.442 209.762 722.851 213.516 721.297C228.662 714.821 299.863 683.865 310.478 679.073C410.677 634.128 518.902 577.397 581.689 537.115L593.34 529.603L598.259 532.452C601.366 534.136 602.531 535.431 601.495 535.95ZM634.377 542.555C729.527 608.741 783.122 660.292 798.398 700.703C800.599 706.531 799.175 704.977 792.961 694.227C785.064 680.886 775.484 669.099 758.008 651.355C728.621 621.694 695.998 595.919 633.73 553.306L606.932 534.913L610.428 532.193C612.499 530.769 614.7 529.732 615.606 530.121C616.512 530.38 624.927 536.079 634.377 542.555ZM634.636 556.803C739.366 628.429 792.313 680.368 801.116 720.261C803.058 728.939 802.281 734.12 797.103 744.223C785.323 768.055 748.428 786.188 694.315 794.866C669.33 798.881 670.236 798.752 644.475 800.695C621.043 802.378 566.672 801.731 542.204 799.529C457.281 791.887 381.291 778.028 305.818 756.268C271.124 746.295 225.167 730.623 222.06 727.773C221.542 727.255 228.274 724.017 236.947 720.52C313.585 690.341 429.837 636.459 496.248 600.582C530.812 581.93 580.523 552.658 595.929 541.908C599.553 539.447 603.178 537.374 604.214 537.374C605.12 537.245 618.842 546.052 634.636 556.803ZM14.0242 567.683C19.9791 586.464 35.9022 609.907 57.9097 631.926C89.3675 663.4 123.673 686.196 177.139 711.453C190.343 717.541 201.217 722.851 201.476 723.11C201.735 723.24 200.182 724.017 198.111 724.794C194.874 725.96 192.026 724.924 174.42 716.764C118.884 690.989 79.9173 665.084 51.8253 634.905C31.6302 613.404 16.3544 587.111 11.5645 565.61C10.1405 559.134 11.8234 560.559 14.0242 567.683ZM200.311 731.011C200.57 731.27 200.57 731.918 200.052 732.307C197.722 734.767 54.4144 787.872 53.2493 786.706C52.9904 786.577 84.7071 773.495 123.673 757.693C188.401 731.659 197.463 728.421 200.311 731.011ZM229.18 733.602C286.27 755.491 351.904 773.236 425.047 786.577C450.938 791.369 451.585 792.535 425.953 788.52C381.42 781.396 343.748 773.495 305.947 763.133C265.687 752.124 210.797 733.861 210.797 731.529C210.797 730.623 212.869 729.716 216.234 729.068C216.623 729.068 222.448 731.011 229.18 733.602Z" fill="black"/>
<path d="M755.677 23.5562C755.418 23.8153 741.825 29.3847 725.385 35.9904C709.073 42.4666 677.615 55.1599 655.737 64.0969C625.704 76.2721 614.959 80.0283 612.499 79.3807C610.557 78.9921 609.651 78.0854 610.298 77.4378C612.628 75.2359 677.098 50.497 725.385 33.2705C751.794 23.9448 757.101 22.1315 755.677 23.5562Z" fill="black"/>
<path d="M598.518 85.2092C600.848 86.1159 600.46 86.5044 595.929 88.4473C496.765 130.931 453.268 150.877 384.009 185.849C323.165 216.416 274.619 243.486 232.416 270.168L217.141 279.753L212.739 277.421C210.279 276.126 208.596 274.701 208.985 274.183C209.632 273.018 251.705 247.113 272.289 235.197C333.651 199.708 419.351 157.224 499.484 122.771C542.463 104.12 591.786 83.914 593.987 84.0435C595.022 84.0435 597.094 84.5616 598.518 85.2092Z" fill="black"/>
<path d="M628.94 89.2244C668.424 106.321 710.886 131.708 737.165 153.986C766.811 179.113 788.947 210.069 797.233 238.176C800.081 247.631 800.081 252.423 797.233 243.616C796.326 240.896 793.09 233.643 790.113 227.426C772.895 192.584 739.366 159.037 691.726 129.247C676.45 119.662 636.06 98.5501 618.583 90.9082C608.356 86.5044 608.486 86.634 610.816 85.2092C614.053 83.1368 616.253 83.6549 628.94 89.2244Z" fill="black"/>
<path d="M400.191 23.6858C450.032 32.1048 498.319 43.3733 541.428 56.9732C568.743 65.5217 597.871 75.754 599.683 77.4378C600.33 78.0854 598.777 78.8626 596.446 79.3807C593.21 79.8988 589.715 79.2511 583.76 76.7902C537.156 57.7503 458.835 36.12 390.223 23.5562C376.76 21.0953 365.368 18.7639 364.979 18.3753C364.591 17.9868 366.274 17.9868 368.733 18.3753C371.193 18.8934 385.433 21.2248 400.191 23.6858Z" fill="black"/>
<path d="M30.5945 134.169C40.4332 146.733 67.1011 173.155 85.3544 188.569C109.822 209.033 160.439 246.077 193.062 267.189C198.499 270.686 203.03 273.924 203.03 274.313C203.03 275.867 195.133 279.623 193.58 278.717C189.825 276.385 157.202 253.589 144.127 244.005C76.8103 194.915 33.7015 152.561 17.0017 119.015C9.88158 104.767 9.88158 102.695 17.1311 114.74C20.1086 119.921 26.193 128.729 30.5945 134.169Z" fill="black"/>
<path d="M200.052 286.099L204.454 288.819L201.217 290.503C195.133 293.741 163.675 316.149 146.069 329.749C76.2925 384.019 31.7596 436.735 14.6715 485.176C11.4351 494.114 9.36376 497.352 10.7878 491.264C23.2155 438.03 65.0298 383.112 137.266 325.345C153.707 312.134 193.321 283.38 195.004 283.38C195.263 283.38 197.593 284.675 200.052 286.099Z" fill="black"/>
<path d="M236.429 295.555C265.816 314.206 299.863 335.059 393.33 391.531C514.76 464.841 593.987 513.931 600.201 519.759C601.495 520.925 600.977 521.702 597.482 523.645L593.081 525.976L548.548 498.129C524.081 482.716 459.223 443.081 404.334 410.053C349.574 377.025 295.073 343.867 283.293 336.484C241.608 310.45 209.503 289.597 209.503 288.56C209.503 287.524 214.681 283.509 216.364 283.509C216.882 283.38 225.944 288.819 236.429 295.555Z" fill="black"/>
<path d="M200.311 731.011C200.57 731.27 200.57 731.918 200.052 732.307C197.722 734.767 54.4144 787.872 53.2493 786.706C52.9904 786.577 84.7071 773.495 123.673 757.693C188.401 731.659 197.463 728.421 200.311 731.011Z" fill="black"/>
<path d="M14.0242 567.683C19.9791 586.464 35.9022 609.907 57.9097 631.926C89.3675 663.4 123.673 686.196 177.139 711.453C190.343 717.541 201.217 722.851 201.476 723.11C201.735 723.24 200.182 724.017 198.111 724.794C194.874 725.96 192.026 724.924 174.42 716.764C118.884 690.989 79.9173 665.084 51.8253 634.905C31.6302 613.404 16.3544 587.111 11.5645 565.61C10.1405 559.134 11.8234 560.559 14.0242 567.683Z" fill="black"/>
<path d="M601.495 535.95C600.589 536.338 589.844 542.814 577.805 550.327C495.471 601.747 384.139 656.924 253.518 711.065C234.617 718.966 217.917 725.312 216.234 725.312C211.445 725.442 209.762 722.851 213.516 721.297C228.662 714.821 299.863 683.865 310.478 679.073C410.677 634.128 518.902 577.397 581.689 537.115L593.34 529.603L598.259 532.452C601.366 534.136 602.531 535.431 601.495 535.95Z" fill="black"/>
<path d="M229.18 733.602C286.27 755.491 351.904 773.236 425.047 786.577C450.938 791.369 451.585 792.535 425.953 788.52C381.42 781.396 343.748 773.495 305.947 763.133C265.687 752.124 210.797 733.861 210.797 731.529C210.797 730.623 212.869 729.716 216.234 729.068C216.623 729.068 222.448 731.011 229.18 733.602Z" fill="black"/>
<path d="M634.377 542.555C729.527 608.741 783.122 660.292 798.398 700.703C800.599 706.531 799.175 704.977 792.961 694.227C785.064 680.886 775.484 669.099 758.008 651.355C728.621 621.694 695.998 595.919 633.73 553.306L606.932 534.913L610.428 532.193C612.499 530.769 614.7 529.732 615.606 530.121C616.512 530.38 624.927 536.079 634.377 542.555Z" fill="black"/>
<path d="M795.809 330.785C784.417 366.922 762.797 399.303 724.737 437.642C695.48 467.173 662.21 494.502 627.775 517.687L615.606 525.976L611.204 523.645C608.874 522.35 607.321 520.925 607.839 520.407C608.486 519.889 616.771 514.06 626.351 507.454C715.934 445.672 775.743 381.169 795.55 324.697C800.598 310.45 800.857 315.113 795.809 330.785Z" fill="black"/>
<path d="M142.186 6.32965C74.6096 11.7696 28.7822 28.4781 12.0823 53.8646C5.73899 63.4493 3.27933 81.453 6.25682 96.7367C14.4125 139.997 67.8779 194.915 172.349 267.319C188.142 278.328 192.285 281.696 190.861 282.732C138.561 319.387 117.459 336.484 85.8722 368.088C59.8516 394.122 46.3882 410.701 32.9247 432.72C11.8234 467.561 3.6677 498.647 5.35063 537.245C8.0692 597.343 45.3525 646.821 122.379 692.672C141.02 703.811 161.216 714.303 178.692 721.815C184.906 724.406 189.825 727.126 189.437 727.644C188.66 728.809 192.932 727.126 89.7559 768.702C15.966 798.363 -0.733804 805.746 9.2343 804.321C18.814 802.767 122.249 765.983 176.232 744.741L205.748 733.084L220.248 738.653C294.814 766.889 398.249 790.203 491.069 799.399C559.422 806.264 641.109 806.912 689.655 800.824C736.259 794.996 770.306 783.209 788.43 766.63C800.599 755.362 804.094 747.849 804.741 730.752C805.518 711.583 802.152 698.89 791.796 681.533C768.493 642.547 709.85 590.22 627.386 534.654C622.597 531.416 618.583 528.437 618.583 527.919C618.583 527.401 624.021 523.386 630.623 518.852C689.525 479.348 746.356 425.466 773.672 383.112C788.171 360.834 799.174 334.153 803.058 312.134C805.647 297.368 805.647 266.412 803.058 251.646C796.844 216.287 774.578 181.963 737.683 151.007C713.475 130.672 670.625 104.767 635.024 88.9654C626.61 85.3387 620.266 81.8416 620.784 81.3235C621.82 80.2873 693.15 51.2741 764.48 22.9086C786.747 14.101 805 6.45918 805 5.81157C805 3.7392 799.175 5.29349 771.859 14.4896C734.317 27.1829 690.043 43.2437 642.921 61.377L604.602 76.1426L587.514 69.6664C504.533 38.1923 388.411 14.2305 283.293 6.84773C253 4.77537 166.264 4.3868 142.186 6.32965ZM276.82 10.7334C371.582 19.4115 468.156 39.4876 548.807 66.9465C582.206 78.474 587.126 80.4169 586.996 81.9712C586.996 82.6188 581.43 85.4682 574.568 88.1882C465.696 132.097 352.681 185.978 272.936 231.959C251.576 244.264 220.118 263.303 211.315 269.262L205.878 272.888L180.893 255.921C106.326 205.407 54.6733 162.016 30.0767 129.377C20.6264 116.683 10.9172 98.032 8.97539 88.4473C5.09171 69.0188 20.6264 48.1656 49.3656 34.0476C77.1987 20.4477 110.598 13.3239 170.666 8.2725C184.259 7.10679 255.718 8.79058 276.82 10.7334ZM400.191 23.6858C450.032 32.1048 498.319 43.3733 541.428 56.9732C568.743 65.5217 597.871 75.754 599.683 77.4378C600.33 78.0854 598.777 78.8626 596.446 79.3807C593.21 79.8988 589.715 79.2511 583.76 76.7902C537.156 57.7503 458.835 36.12 390.223 23.5562C376.76 21.0953 365.368 18.7639 364.979 18.3753C364.591 17.9868 366.274 17.9868 368.733 18.3753C371.193 18.8934 385.433 21.2248 400.191 23.6858ZM755.677 23.5562C755.418 23.8153 741.825 29.3847 725.385 35.9904C709.073 42.4666 677.615 55.1599 655.737 64.0969C625.704 76.2721 614.959 80.0283 612.499 79.3807C610.557 78.9921 609.651 78.0854 610.298 77.4378C612.628 75.2359 677.098 50.497 725.385 33.2705C751.794 23.9448 757.101 22.1315 755.677 23.5562ZM598.518 85.2092C600.848 86.1159 600.46 86.5044 595.929 88.4473C496.765 130.931 453.268 150.877 384.009 185.849C323.165 216.416 274.619 243.486 232.416 270.168L217.141 279.753L212.739 277.421C210.279 276.126 208.596 274.701 208.985 274.183C209.632 273.018 251.705 247.113 272.289 235.197C333.651 199.708 419.351 157.224 499.484 122.771C542.463 104.12 591.786 83.914 593.987 84.0435C595.022 84.0435 597.094 84.5616 598.518 85.2092ZM628.94 89.2244C668.424 106.321 710.886 131.708 737.165 153.986C766.811 179.113 788.947 210.069 797.233 238.176C800.081 247.631 800.081 252.423 797.233 243.616C796.326 240.896 793.09 233.643 790.113 227.426C772.895 192.584 739.366 159.037 691.726 129.247C676.45 119.662 636.06 98.5501 618.583 90.9082C608.356 86.5044 608.486 86.634 610.816 85.2092C614.053 83.1368 616.253 83.6549 628.94 89.2244ZM631.658 100.104C732.893 147.251 791.666 206.184 801.246 270.168C806.165 302.29 787.523 349.177 752.829 392.179C722.796 429.352 677.615 468.986 620.914 507.973L604.473 519.241L596.964 514.19C569.002 495.279 515.537 462.251 389.446 386.091C333.521 352.286 272.289 314.854 253.388 303.067L218.953 281.437L224.908 277.681C280.962 242.062 356.306 201.132 434.109 163.83C502.85 130.931 602.143 87.5406 606.285 88.7063C607.709 89.0949 619.101 94.1463 631.658 100.104ZM30.5945 134.169C40.4332 146.733 67.1011 173.155 85.3544 188.569C109.822 209.033 160.439 246.077 193.062 267.189C198.499 270.686 203.03 273.924 203.03 274.313C203.03 275.867 195.133 279.623 193.58 278.717C189.825 276.385 157.202 253.589 144.127 244.005C76.8103 194.915 33.7015 152.561 17.0017 119.015C9.88158 104.767 9.88158 102.695 17.1311 114.74C20.1086 119.921 26.193 128.729 30.5945 134.169ZM200.052 286.099L204.454 288.819L201.217 290.503C195.133 293.741 163.675 316.149 146.069 329.749C76.2925 384.019 31.7596 436.735 14.6715 485.176C11.4351 494.114 9.36376 497.352 10.7878 491.264C23.2155 438.03 65.0298 383.112 137.266 325.345C153.707 312.134 193.321 283.38 195.004 283.38C195.263 283.38 197.593 284.675 200.052 286.099ZM236.429 295.555C265.816 314.206 299.863 335.059 393.33 391.531C514.76 464.841 593.987 513.931 600.201 519.759C601.495 520.925 600.977 521.702 597.482 523.645L593.081 525.976L548.548 498.129C524.081 482.716 459.223 443.081 404.334 410.053C349.574 377.025 295.073 343.867 283.293 336.484C241.608 310.45 209.503 289.597 209.503 288.56C209.503 287.524 214.681 283.509 216.364 283.509C216.882 283.38 225.944 288.819 236.429 295.555ZM212.739 294.648C238.76 312.393 303.358 352.286 419.221 422.228C539.356 494.761 590.103 526.235 590.103 528.049C589.974 529.214 555.797 550.197 526.022 567.294C462.977 603.431 399.544 635.682 317.598 672.855C287.306 686.714 207.431 721.168 205.878 721.168C204.195 721.168 177.527 709.122 162.899 701.739C94.1574 667.286 44.7052 624.802 23.2155 581.93C11.9529 559.782 6.51573 535.561 8.84594 518.852C17.2606 459.401 61.9229 398.914 146.069 333.116C170.019 314.465 202.771 291.28 205.619 291.28C206.784 291.151 209.891 292.705 212.739 294.648ZM795.809 330.785C784.417 366.922 762.797 399.303 724.737 437.642C695.48 467.173 662.21 494.502 627.775 517.687L615.606 525.976L611.204 523.645C608.874 522.35 607.321 520.925 607.839 520.407C608.486 519.889 616.771 514.06 626.351 507.454C715.934 445.672 775.743 381.169 795.55 324.697C800.598 310.45 800.857 315.113 795.809 330.785ZM601.495 535.95C600.589 536.338 589.844 542.814 577.805 550.327C495.471 601.747 384.139 656.924 253.518 711.065C234.617 718.966 217.917 725.312 216.234 725.312C211.445 725.442 209.762 722.851 213.516 721.297C228.662 714.821 299.863 683.865 310.478 679.073C410.677 634.128 518.902 577.397 581.689 537.115L593.34 529.603L598.259 532.452C601.366 534.136 602.531 535.431 601.495 535.95ZM634.377 542.555C729.527 608.741 783.122 660.292 798.398 700.703C800.599 706.531 799.175 704.977 792.961 694.227C785.064 680.886 775.484 669.099 758.008 651.355C728.621 621.694 695.998 595.919 633.73 553.306L606.932 534.913L610.428 532.193C612.499 530.769 614.7 529.732 615.606 530.121C616.512 530.38 624.927 536.079 634.377 542.555ZM634.636 556.803C739.366 628.429 792.313 680.368 801.116 720.261C803.058 728.939 802.281 734.12 797.103 744.223C785.323 768.055 748.428 786.188 694.315 794.866C669.33 798.881 670.236 798.752 644.475 800.695C621.043 802.378 566.672 801.731 542.204 799.529C457.281 791.887 381.291 778.028 305.818 756.268C271.124 746.295 225.167 730.623 222.06 727.773C221.542 727.255 228.274 724.017 236.947 720.52C313.585 690.341 429.837 636.459 496.248 600.582C530.812 581.93 580.523 552.658 595.929 541.908C599.553 539.447 603.178 537.374 604.214 537.374C605.12 537.245 618.842 546.052 634.636 556.803ZM14.0242 567.683C19.9791 586.464 35.9022 609.907 57.9097 631.926C89.3675 663.4 123.673 686.196 177.139 711.453C190.343 717.541 201.217 722.851 201.476 723.11C201.735 723.24 200.182 724.017 198.111 724.794C194.874 725.96 192.026 724.924 174.42 716.764C118.884 690.989 79.9173 665.084 51.8253 634.905C31.6302 613.404 16.3544 587.111 11.5645 565.61C10.1405 559.134 11.8234 560.559 14.0242 567.683ZM200.311 731.011C200.57 731.27 200.57 731.918 200.052 732.307C197.722 734.767 54.4144 787.872 53.2493 786.706C52.9904 786.577 84.7071 773.495 123.673 757.693C188.401 731.659 197.463 728.421 200.311 731.011ZM229.18 733.602C286.27 755.491 351.904 773.236 425.047 786.577C450.938 791.369 451.585 792.535 425.953 788.52C381.42 781.396 343.748 773.495 305.947 763.133C265.687 752.124 210.797 733.861 210.797 731.529C210.797 730.623 212.869 729.716 216.234 729.068C216.623 729.068 222.448 731.011 229.18 733.602Z" stroke="black" stroke-width="10" mask="url(#path-1-outside-1_10361_4395)"/>
<path d="M755.677 23.5562C755.418 23.8153 741.825 29.3847 725.385 35.9904C709.073 42.4666 677.615 55.1599 655.737 64.0969C625.704 76.2721 614.959 80.0283 612.499 79.3807C610.557 78.9921 609.651 78.0854 610.298 77.4378C612.628 75.2359 677.098 50.497 725.385 33.2705C751.794 23.9448 757.101 22.1315 755.677 23.5562Z" stroke="black" stroke-width="10" mask="url(#path-1-outside-1_10361_4395)"/>
<path d="M598.518 85.2092C600.848 86.1159 600.46 86.5044 595.929 88.4473C496.765 130.931 453.268 150.877 384.009 185.849C323.165 216.416 274.619 243.486 232.416 270.168L217.141 279.753L212.739 277.421C210.279 276.126 208.596 274.701 208.985 274.183C209.632 273.018 251.705 247.113 272.289 235.197C333.651 199.708 419.351 157.224 499.484 122.771C542.463 104.12 591.786 83.914 593.987 84.0435C595.022 84.0435 597.094 84.5616 598.518 85.2092Z" stroke="black" stroke-width="10" mask="url(#path-1-outside-1_10361_4395)"/>
<path d="M628.94 89.2244C668.424 106.321 710.886 131.708 737.165 153.986C766.811 179.113 788.947 210.069 797.233 238.176C800.081 247.631 800.081 252.423 797.233 243.616C796.326 240.896 793.09 233.643 790.113 227.426C772.895 192.584 739.366 159.037 691.726 129.247C676.45 119.662 636.06 98.5501 618.583 90.9082C608.356 86.5044 608.486 86.634 610.816 85.2092C614.053 83.1368 616.253 83.6549 628.94 89.2244Z" stroke="black" stroke-width="10" mask="url(#path-1-outside-1_10361_4395)"/>
<path d="M400.191 23.6858C450.032 32.1048 498.319 43.3733 541.428 56.9732C568.743 65.5217 597.871 75.754 599.683 77.4378C600.33 78.0854 598.777 78.8626 596.446 79.3807C593.21 79.8988 589.715 79.2511 583.76 76.7902C537.156 57.7503 458.835 36.12 390.223 23.5562C376.76 21.0953 365.368 18.7639 364.979 18.3753C364.591 17.9868 366.274 17.9868 368.733 18.3753C371.193 18.8934 385.433 21.2248 400.191 23.6858Z" stroke="black" stroke-width="10" mask="url(#path-1-outside-1_10361_4395)"/>
<path d="M30.5945 134.169C40.4332 146.733 67.1011 173.155 85.3544 188.569C109.822 209.033 160.439 246.077 193.062 267.189C198.499 270.686 203.03 273.924 203.03 274.313C203.03 275.867 195.133 279.623 193.58 278.717C189.825 276.385 157.202 253.589 144.127 244.005C76.8103 194.915 33.7015 152.561 17.0017 119.015C9.88158 104.767 9.88158 102.695 17.1311 114.74C20.1086 119.921 26.193 128.729 30.5945 134.169Z" stroke="black" stroke-width="10" mask="url(#path-1-outside-1_10361_4395)"/>
<path d="M200.052 286.099L204.454 288.819L201.217 290.503C195.133 293.741 163.675 316.149 146.069 329.749C76.2925 384.019 31.7596 436.735 14.6715 485.176C11.4351 494.114 9.36376 497.352 10.7878 491.264C23.2155 438.03 65.0298 383.112 137.266 325.345C153.707 312.134 193.321 283.38 195.004 283.38C195.263 283.38 197.593 284.675 200.052 286.099Z" stroke="black" stroke-width="10" mask="url(#path-1-outside-1_10361_4395)"/>
<path d="M236.429 295.555C265.816 314.206 299.863 335.059 393.33 391.531C514.76 464.841 593.987 513.931 600.201 519.759C601.495 520.925 600.977 521.702 597.482 523.645L593.081 525.976L548.548 498.129C524.081 482.716 459.223 443.081 404.334 410.053C349.574 377.025 295.073 343.867 283.293 336.484C241.608 310.45 209.503 289.597 209.503 288.56C209.503 287.524 214.681 283.509 216.364 283.509C216.882 283.38 225.944 288.819 236.429 295.555Z" stroke="black" stroke-width="10" mask="url(#path-1-outside-1_10361_4395)"/>
<path d="M200.311 731.011C200.57 731.27 200.57 731.918 200.052 732.307C197.722 734.767 54.4144 787.872 53.2493 786.706C52.9904 786.577 84.7071 773.495 123.673 757.693C188.401 731.659 197.463 728.421 200.311 731.011Z" stroke="black" stroke-width="10" mask="url(#path-1-outside-1_10361_4395)"/>
<path d="M14.0242 567.683C19.9791 586.464 35.9022 609.907 57.9097 631.926C89.3675 663.4 123.673 686.196 177.139 711.453C190.343 717.541 201.217 722.851 201.476 723.11C201.735 723.24 200.182 724.017 198.111 724.794C194.874 725.96 192.026 724.924 174.42 716.764C118.884 690.989 79.9173 665.084 51.8253 634.905C31.6302 613.404 16.3544 587.111 11.5645 565.61C10.1405 559.134 11.8234 560.559 14.0242 567.683Z" stroke="black" stroke-width="10" mask="url(#path-1-outside-1_10361_4395)"/>
<path d="M601.495 535.95C600.589 536.338 589.844 542.814 577.805 550.327C495.471 601.747 384.139 656.924 253.518 711.065C234.617 718.966 217.917 725.312 216.234 725.312C211.445 725.442 209.762 722.851 213.516 721.297C228.662 714.821 299.863 683.865 310.478 679.073C410.677 634.128 518.902 577.397 581.689 537.115L593.34 529.603L598.259 532.452C601.366 534.136 602.531 535.431 601.495 535.95Z" stroke="black" stroke-width="10" mask="url(#path-1-outside-1_10361_4395)"/>
<path d="M229.18 733.602C286.27 755.491 351.904 773.236 425.047 786.577C450.938 791.369 451.585 792.535 425.953 788.52C381.42 781.396 343.748 773.495 305.947 763.133C265.687 752.124 210.797 733.861 210.797 731.529C210.797 730.623 212.869 729.716 216.234 729.068C216.623 729.068 222.448 731.011 229.18 733.602Z" stroke="black" stroke-width="10" mask="url(#path-1-outside-1_10361_4395)"/>
<path d="M634.377 542.555C729.527 608.741 783.122 660.292 798.398 700.703C800.599 706.531 799.175 704.977 792.961 694.227C785.064 680.886 775.484 669.099 758.008 651.355C728.621 621.694 695.998 595.919 633.73 553.306L606.932 534.913L610.428 532.193C612.499 530.769 614.7 529.732 615.606 530.121C616.512 530.38 624.927 536.079 634.377 542.555Z" stroke="black" stroke-width="10" mask="url(#path-1-outside-1_10361_4395)"/>
<path d="M795.809 330.785C784.417 366.922 762.797 399.303 724.737 437.642C695.48 467.173 662.21 494.502 627.775 517.687L615.606 525.976L611.204 523.645C608.874 522.35 607.321 520.925 607.839 520.407C608.486 519.889 616.771 514.06 626.351 507.454C715.934 445.672 775.743 381.169 795.55 324.697C800.598 310.45 800.857 315.113 795.809 330.785Z" stroke="black" stroke-width="10" mask="url(#path-1-outside-1_10361_4395)"/>
<path d="M1075.25 503C1054.95 503 1039.32 498.1 1028.35 488.3C1017.62 478.267 1012.25 463.333 1012.25 443.5V317.5C1012.25 297.667 1017.62 282.85 1028.35 273.05C1039.32 263.017 1054.95 258 1075.25 258H1117.95V284.6H1071.75C1063.12 284.6 1056.12 287.167 1050.75 292.3C1045.38 297.433 1042.7 303.617 1042.7 310.85V450.15C1042.7 457.383 1045.38 463.567 1050.75 468.7C1056.12 473.833 1063.12 476.4 1071.75 476.4H1117.95V503H1075.25ZM1276.58 447C1276.58 466.6 1271.68 480.833 1261.88 489.7C1252.31 498.567 1237.38 503 1217.08 503H1212.53C1192.23 503 1177.18 498.567 1167.38 489.7C1157.81 480.833 1153.03 466.6 1153.03 447V384C1153.03 364.4 1157.81 350.167 1167.38 341.3C1177.18 332.433 1192.23 328 1212.53 328H1217.08C1237.38 328 1252.31 332.433 1261.88 341.3C1271.68 350.167 1276.58 364.4 1276.58 384V447ZM1246.83 377C1246.83 369.767 1244.61 364.167 1240.18 360.2C1235.75 356.233 1229.21 354.25 1220.58 354.25H1209.03C1200.4 354.25 1193.86 356.233 1189.43 360.2C1185 364.167 1182.78 369.767 1182.78 377V454C1182.78 461.233 1185 466.833 1189.43 470.8C1193.86 474.767 1200.4 476.75 1209.03 476.75H1220.58C1229.21 476.75 1235.75 474.767 1240.18 470.8C1244.61 466.833 1246.83 461.233 1246.83 454V377ZM1329.14 328H1357.14V336.4C1364.37 330.8 1373.7 328 1385.14 328H1387.24C1408.47 328 1423.64 333.367 1432.74 344.1C1441.37 333.367 1453.39 328 1468.79 328H1470.89C1489.79 328 1503.79 332.433 1512.89 341.3C1522.22 350.167 1526.89 364.4 1526.89 384V503H1497.14V377C1497.14 370 1495.04 364.517 1490.84 360.55C1486.87 356.35 1481.39 354.25 1474.39 354.25H1465.29C1458.05 354.25 1452.57 356.467 1448.84 360.9C1445.34 365.1 1443.35 369.65 1442.89 374.55V503H1413.14V377C1413.14 370 1411.15 364.517 1407.19 360.55C1403.22 356.35 1397.74 354.25 1390.74 354.25H1381.64C1374.17 354.25 1368.45 356.233 1364.49 360.2C1360.75 363.933 1358.89 368.017 1358.89 372.45V503H1329.14V328ZM1581.04 328H1609.04V336.4C1616.27 330.8 1625.61 328 1637.04 328H1639.14C1660.37 328 1675.54 333.367 1684.64 344.1C1693.27 333.367 1705.29 328 1720.69 328H1722.79C1741.69 328 1755.69 332.433 1764.79 341.3C1774.12 350.167 1778.79 364.4 1778.79 384V503H1749.04V377C1749.04 370 1746.94 364.517 1742.74 360.55C1738.77 356.35 1733.29 354.25 1726.29 354.25H1717.19C1709.96 354.25 1704.47 356.467 1700.74 360.9C1697.24 365.1 1695.26 369.65 1694.79 374.55V503H1665.04V377C1665.04 370 1663.06 364.517 1659.09 360.55C1655.12 356.35 1649.64 354.25 1642.64 354.25H1633.54C1626.07 354.25 1620.36 356.233 1616.39 360.2C1612.66 363.933 1610.79 368.017 1610.79 372.45V503H1581.04V328ZM1953 447C1953 466.6 1948.1 480.833 1938.3 489.7C1928.73 498.567 1913.8 503 1893.5 503H1888.95C1868.65 503 1853.6 498.567 1843.8 489.7C1834.23 480.833 1829.45 466.6 1829.45 447V384C1829.45 364.4 1834.23 350.167 1843.8 341.3C1853.6 332.433 1868.65 328 1888.95 328H1893.5C1913.8 328 1928.73 332.433 1938.3 341.3C1948.1 350.167 1953 364.4 1953 384V447ZM1923.25 377C1923.25 369.767 1921.03 364.167 1916.6 360.2C1912.16 356.233 1905.63 354.25 1897 354.25H1885.45C1876.81 354.25 1870.28 356.233 1865.85 360.2C1861.41 364.167 1859.2 369.767 1859.2 377V454C1859.2 461.233 1861.41 466.833 1865.85 470.8C1870.28 474.767 1876.81 476.75 1885.45 476.75H1897C1905.63 476.75 1912.16 474.767 1916.6 470.8C1921.03 466.833 1923.25 461.233 1923.25 454V377ZM2005.55 328H2033.55V336.4C2040.79 330.8 2050.12 328 2061.55 328H2070.65C2089.55 328 2103.55 332.433 2112.65 341.3C2121.99 350.167 2126.65 364.4 2126.65 384V503H2096.9V377C2096.9 370 2094.8 364.517 2090.6 360.55C2086.64 356.35 2081.15 354.25 2074.15 354.25H2058.05C2050.35 354.25 2044.64 356.35 2040.9 360.55C2037.17 364.517 2035.3 368.833 2035.3 373.5V503H2005.55V328ZM2273.29 459.25C2273.29 473.95 2268.74 484.917 2259.64 492.15C2250.78 499.383 2237.83 503 2220.79 503H2175.64V476.75H2224.29C2230.59 476.75 2235.38 475.467 2238.64 472.9C2241.91 470.1 2243.54 466.133 2243.54 461V442.45C2243.54 431.95 2238.53 426.7 2228.49 426.7H2222.54C2206.21 426.7 2193.96 423.2 2185.79 416.2C2177.86 408.967 2173.89 397.65 2173.89 382.25V372.1C2173.89 356.467 2178.33 345.267 2187.19 338.5C2196.06 331.5 2209.13 328 2226.39 328H2266.29V354.25H2222.89C2217.06 354.25 2212.39 355.65 2208.89 358.45C2205.39 361.017 2203.64 364.867 2203.64 370V382.6C2203.64 387.967 2205.16 391.933 2208.19 394.5C2211.46 397.067 2215.54 398.35 2220.44 398.35H2225.34C2240.98 398.35 2252.88 402.2 2261.04 409.9C2269.21 417.367 2273.29 428.567 2273.29 443.5V459.25ZM2467.26 503C2446.26 503 2431.09 498.683 2421.76 490.05C2412.42 481.183 2407.76 467.067 2407.76 447.7V403.6C2407.76 383.3 2415.34 368.95 2430.51 360.55C2417.67 351.45 2411.26 337.917 2411.26 319.95V312.6C2411.26 293.7 2416.27 279.933 2426.31 271.3C2436.57 262.433 2451.62 258 2471.46 258H2508.56V284.25H2467.26C2458.39 284.25 2451.86 286.233 2447.66 290.2C2443.69 294.167 2441.71 300.583 2441.71 309.45V323.45C2441.71 331.15 2444.16 337.333 2449.06 342C2453.96 346.667 2460.02 349 2467.26 349H2552.31V375.25H2524.66V503H2467.26ZM2463.76 375.25C2456.06 375.25 2449.87 377.583 2445.21 382.25C2440.54 386.683 2438.21 392.75 2438.21 400.45V451.2C2438.21 460.067 2440.31 466.6 2444.51 470.8C2448.71 474.767 2455.24 476.75 2464.11 476.75H2496.31V375.25H2463.76ZM2741.17 503C2720.87 503 2705.23 498.1 2694.27 488.3C2683.53 478.267 2678.17 463.333 2678.17 443.5V317.5C2678.17 297.667 2683.53 282.85 2694.27 273.05C2705.23 263.017 2720.87 258 2741.17 258H2783.87V284.6H2737.67C2729.03 284.6 2722.03 287.167 2716.67 292.3C2711.3 297.433 2708.62 303.617 2708.62 310.85V450.15C2708.62 457.383 2711.3 463.567 2716.67 468.7C2722.03 473.833 2729.03 476.4 2737.67 476.4H2783.87V503H2741.17ZM2942.5 447C2942.5 466.6 2937.6 480.833 2927.8 489.7C2918.23 498.567 2903.3 503 2883 503H2878.45C2858.15 503 2843.1 498.567 2833.3 489.7C2823.73 480.833 2818.95 466.6 2818.95 447V384C2818.95 364.4 2823.73 350.167 2833.3 341.3C2843.1 332.433 2858.15 328 2878.45 328H2883C2903.3 328 2918.23 332.433 2927.8 341.3C2937.6 350.167 2942.5 364.4 2942.5 384V447ZM2912.75 377C2912.75 369.767 2910.53 364.167 2906.1 360.2C2901.66 356.233 2895.13 354.25 2886.5 354.25H2874.95C2866.31 354.25 2859.78 356.233 2855.35 360.2C2850.91 364.167 2848.7 369.767 2848.7 377V454C2848.7 461.233 2850.91 466.833 2855.35 470.8C2859.78 474.767 2866.31 476.75 2874.95 476.75H2886.5C2895.13 476.75 2901.66 474.767 2906.1 470.8C2910.53 466.833 2912.75 461.233 2912.75 454V377ZM3086.4 494.95C3078.7 500.317 3069.37 503 3058.4 503H3051.05C3030.52 503 3015.47 498.683 3005.9 490.05C2996.34 481.183 2991.55 466.833 2991.55 447V384C2991.55 364.4 2996.34 350.167 3005.9 341.3C3015.7 332.433 3030.75 328 3051.05 328H3084.65V258H3114.4V503H3086.4V494.95ZM3061.9 476.75C3069.6 476.75 3075.32 474.767 3079.05 470.8C3082.79 466.6 3084.65 462.167 3084.65 457.5V354.25H3047.55C3038.92 354.25 3032.39 356.233 3027.95 360.2C3023.52 364.167 3021.3 369.767 3021.3 377V454C3021.3 461.233 3023.52 466.833 3027.95 470.8C3032.39 474.767 3038.92 476.75 3047.55 476.75H3061.9ZM3226.4 503C3205.86 503 3190.81 498.683 3181.25 490.05C3171.68 481.183 3166.9 466.833 3166.9 447V384C3166.9 363.933 3171.21 349.583 3179.85 340.95C3188.48 332.317 3202.83 328 3222.9 328H3232.35C3248.91 328 3261.4 332.667 3269.8 342C3278.43 351.1 3282.75 364.517 3282.75 382.25V427.75H3196.65V454C3196.65 461.233 3198.86 466.833 3203.3 470.8C3207.73 474.767 3214.26 476.75 3222.9 476.75H3271.55V503H3226.4ZM3253.7 401.5V375.25C3253.7 369.183 3251.71 364.167 3247.75 360.2C3243.78 356.233 3238.76 354.25 3232.7 354.25H3219.4C3211 354.25 3205.05 356.233 3201.55 360.2C3198.28 363.933 3196.65 369.533 3196.65 377V401.5H3253.7ZM3480.35 503C3459.82 503 3444.77 498.683 3435.2 490.05C3425.63 481.183 3420.85 466.833 3420.85 447V384C3420.85 363.933 3425.17 349.583 3433.8 340.95C3442.43 332.317 3456.78 328 3476.85 328H3486.3C3502.87 328 3515.35 332.667 3523.75 342C3532.38 351.1 3536.7 364.517 3536.7 382.25V427.75H3450.6V454C3450.6 461.233 3452.82 466.833 3457.25 470.8C3461.68 474.767 3468.22 476.75 3476.85 476.75H3525.5V503H3480.35ZM3507.65 401.5V375.25C3507.65 369.183 3505.67 364.167 3501.7 360.2C3497.73 356.233 3492.72 354.25 3486.65 354.25H3473.35C3464.95 354.25 3459 356.233 3455.5 360.2C3452.23 363.933 3450.6 369.533 3450.6 377V401.5H3507.65ZM3582.14 503V468H3617.14V503H3582.14ZM3832.82 503H3791.17L3743.22 258H3774.02L3812.52 472.2L3854.17 258H3884.27L3832.82 503ZM3901.72 503V468H3936.72V503H3901.72Z" fill="black"/>
<path d="M1017.76 664V591.9H1051.54V599.419H1026.72V623.006H1048.96V630.525H1026.72V656.481H1051.54V664H1017.76ZM1091.57 661.631C1089.3 663.21 1086.56 664 1083.33 664H1081.89C1076.33 664 1072.17 662.695 1069.43 660.086C1066.75 657.477 1065.41 653.288 1065.41 647.52V612.5H1074.16V649.58C1074.16 651.64 1074.75 653.288 1075.91 654.524C1077.15 655.691 1078.8 656.275 1080.86 656.275H1084.36C1086.56 656.275 1088.17 655.726 1089.2 654.627C1090.3 653.528 1090.92 652.292 1091.06 650.919V612.5H1099.81V664H1091.57V661.631ZM1116.32 612.5H1124.56V615.281C1126.82 613.427 1129.57 612.5 1132.8 612.5H1140.32V620.74H1131.77C1129.5 620.74 1127.82 621.495 1126.72 623.006C1125.62 624.517 1125.07 625.993 1125.07 627.435V664H1116.32V612.5ZM1184.44 647.52C1184.44 653.288 1183 657.477 1180.11 660.086C1177.3 662.695 1172.9 664 1166.93 664H1165.59C1159.61 664 1155.19 662.695 1152.3 660.086C1149.49 657.477 1148.08 653.288 1148.08 647.52V628.98C1148.08 623.212 1149.49 619.023 1152.3 616.414C1155.19 613.805 1159.61 612.5 1165.59 612.5H1166.93C1172.9 612.5 1177.3 613.805 1180.11 616.414C1183 619.023 1184.44 623.212 1184.44 628.98V647.52ZM1175.68 626.92C1175.68 624.791 1175.03 623.143 1173.73 621.976C1172.42 620.809 1170.5 620.225 1167.96 620.225H1164.56C1162.02 620.225 1160.09 620.809 1158.79 621.976C1157.49 623.143 1156.83 624.791 1156.83 626.92V649.58C1156.83 651.709 1157.49 653.357 1158.79 654.524C1160.09 655.691 1162.02 656.275 1164.56 656.275H1167.96C1170.5 656.275 1172.42 655.691 1173.73 654.524C1175.03 653.357 1175.68 651.709 1175.68 649.58V626.92ZM1199.9 612.5H1208.14V614.972C1210.27 613.324 1213.02 612.5 1216.38 612.5H1218.03C1224.07 612.5 1228.5 613.805 1231.32 616.414C1234.13 618.955 1235.54 623.143 1235.54 628.98V647.52C1235.54 653.288 1234.1 657.477 1231.22 660.086C1228.4 662.695 1224.01 664 1218.03 664H1208.66V681.51H1199.9V612.5ZM1215.35 620.225C1213.09 620.225 1211.41 620.843 1210.31 622.079C1209.21 623.246 1208.66 624.517 1208.66 625.89V656.275H1219.06C1221.6 656.275 1223.53 655.691 1224.83 654.524C1226.13 653.357 1226.79 651.709 1226.79 649.58V626.92C1226.79 624.791 1226.13 623.143 1224.83 621.976C1223.53 620.809 1221.6 620.225 1219.06 620.225H1215.35ZM1267.48 664C1261.44 664 1257.01 662.73 1254.19 660.189C1251.38 657.58 1249.97 653.357 1249.97 647.52V628.98C1249.97 623.075 1251.24 618.852 1253.78 616.311C1256.32 613.77 1260.55 612.5 1266.45 612.5H1269.23C1274.11 612.5 1277.78 613.873 1280.25 616.62C1282.79 619.298 1284.06 623.246 1284.06 628.465V641.855H1258.73V649.58C1258.73 651.709 1259.38 653.357 1260.68 654.524C1261.99 655.691 1263.91 656.275 1266.45 656.275H1280.77V664H1267.48ZM1275.52 634.13V626.405C1275.52 624.62 1274.93 623.143 1273.76 621.976C1272.6 620.809 1271.12 620.225 1269.34 620.225H1265.42C1262.95 620.225 1261.2 620.809 1260.17 621.976C1259.21 623.075 1258.73 624.723 1258.73 626.92V634.13H1275.52ZM1329.37 664C1328.47 664 1327.48 663.725 1326.38 663.176C1325.35 662.627 1324.46 661.871 1323.7 660.91C1322.12 662.97 1320.03 664 1317.42 664H1310.31C1305.09 664 1301.28 662.97 1298.88 660.91C1296.54 658.781 1295.38 655.176 1295.38 650.095V648.035C1295.38 637.392 1300.39 632.07 1310.41 632.07H1321.13V626.92C1321.13 624.791 1320.47 623.143 1319.17 621.976C1317.86 620.809 1315.94 620.225 1313.4 620.225H1299.5V612.5H1312.37C1318.35 612.5 1322.74 613.805 1325.56 616.414C1328.44 619.023 1329.88 623.212 1329.88 628.98V653.7C1329.88 654.73 1330.26 655.52 1331.01 656.069C1331.84 656.55 1333.18 656.79 1335.03 656.79V664H1329.37ZM1316.39 656.275C1318.45 656.275 1319.75 655.794 1320.3 654.833C1320.85 653.872 1321.13 652.636 1321.13 651.125V639.795H1310.31C1308.53 639.795 1307.05 640.379 1305.88 641.546C1304.71 642.713 1304.13 644.19 1304.13 645.975V651.125C1304.13 652.91 1304.54 654.215 1305.37 655.039C1306.19 655.863 1307.5 656.275 1309.28 656.275H1316.39ZM1347.36 612.5H1355.6V614.972C1357.73 613.324 1360.48 612.5 1363.84 612.5H1366.52C1372.08 612.5 1376.2 613.805 1378.88 616.414C1381.63 619.023 1383 623.212 1383 628.98V664H1374.25V626.92C1374.25 624.86 1373.63 623.246 1372.39 622.079C1371.22 620.843 1369.61 620.225 1367.55 620.225H1362.81C1360.55 620.225 1358.86 620.843 1357.77 622.079C1356.67 623.246 1356.12 624.517 1356.12 625.89V664H1347.36V612.5ZM1443.85 599.728V664H1434.89V599.728H1419.02V591.9H1459.71V599.728H1443.85ZM1469.47 591.9H1478.23V614.56C1480.29 613.187 1482.86 612.5 1485.95 612.5H1488.63C1494.19 612.5 1498.31 613.805 1500.99 616.414C1503.74 619.023 1505.11 623.212 1505.11 628.98V664H1496.36V626.92C1496.36 624.86 1495.74 623.246 1494.5 622.079C1493.34 620.843 1491.72 620.225 1489.66 620.225H1484.92C1482.73 620.225 1481.04 620.809 1479.88 621.976C1478.78 623.075 1478.23 624.276 1478.23 625.581V664H1469.47V591.9ZM1520.56 601.17V591.9H1530.34V601.17H1520.56ZM1521.07 664V612.5H1529.83V664H1521.07ZM1546.32 612.5H1554.56V614.972C1556.69 613.324 1559.44 612.5 1562.8 612.5H1565.48C1571.04 612.5 1575.16 613.805 1577.84 616.414C1580.59 619.023 1581.96 623.212 1581.96 628.98V664H1573.21V626.92C1573.21 624.86 1572.59 623.246 1571.35 622.079C1570.18 620.843 1568.57 620.225 1566.51 620.225H1561.77C1559.51 620.225 1557.82 620.843 1556.73 622.079C1555.63 623.246 1555.08 624.517 1555.08 625.89V664H1546.32V612.5ZM1623.67 664L1609.56 638.559L1606.68 641.958V664H1597.92V591.9H1606.68V630.422L1622.13 612.5H1633.15L1615.74 632.379L1633.87 664H1623.67ZM1643.6 635.675V627.95H1677.08V635.675H1643.6ZM1724.47 664C1723.58 664 1722.58 663.725 1721.48 663.176C1720.45 662.627 1719.56 661.871 1718.8 660.91C1717.22 662.97 1715.13 664 1712.52 664H1705.41C1700.19 664 1696.38 662.97 1693.98 660.91C1691.65 658.781 1690.48 655.176 1690.48 650.095V648.035C1690.48 637.392 1695.49 632.07 1705.52 632.07H1716.23V626.92C1716.23 624.791 1715.58 623.143 1714.27 621.976C1712.97 620.809 1711.04 620.225 1708.5 620.225H1694.6V612.5H1707.47C1713.45 612.5 1717.84 613.805 1720.66 616.414C1723.54 619.023 1724.98 623.212 1724.98 628.98V653.7C1724.98 654.73 1725.36 655.52 1726.12 656.069C1726.94 656.55 1728.28 656.79 1730.13 656.79V664H1724.47ZM1711.49 656.275C1713.55 656.275 1714.85 655.794 1715.4 654.833C1715.95 653.872 1716.23 652.636 1716.23 651.125V639.795H1705.41C1703.63 639.795 1702.15 640.379 1700.98 641.546C1699.82 642.713 1699.23 644.19 1699.23 645.975V651.125C1699.23 652.91 1699.64 654.215 1700.47 655.039C1701.29 655.863 1702.6 656.275 1704.38 656.275H1711.49ZM1742.46 612.5H1750.7V614.972C1752.83 613.324 1755.58 612.5 1758.94 612.5H1761.62C1767.18 612.5 1771.3 613.805 1773.98 616.414C1776.73 619.023 1778.1 623.212 1778.1 628.98V664H1769.35V626.92C1769.35 624.86 1768.73 623.246 1767.49 622.079C1766.33 620.843 1764.71 620.225 1762.65 620.225H1757.91C1755.65 620.225 1753.97 620.843 1752.87 622.079C1751.77 623.246 1751.22 624.517 1751.22 625.89V664H1742.46V612.5ZM1820.95 661.631C1818.68 663.21 1815.94 664 1812.71 664H1810.55C1804.5 664 1800.07 662.73 1797.26 660.189C1794.44 657.58 1793.04 653.357 1793.04 647.52V628.98C1793.04 623.212 1794.44 619.023 1797.26 616.414C1800.14 613.805 1804.57 612.5 1810.55 612.5H1820.43V591.9H1829.19V664H1820.95V661.631ZM1813.74 656.275C1816 656.275 1817.69 655.691 1818.79 654.524C1819.88 653.288 1820.43 651.983 1820.43 650.61V620.225H1809.52C1806.97 620.225 1805.05 620.809 1803.75 621.976C1802.44 623.143 1801.79 624.791 1801.79 626.92V649.58C1801.79 651.709 1802.44 653.357 1803.75 654.524C1805.05 655.691 1806.97 656.275 1809.52 656.275H1813.74ZM1846.18 635.675V627.95H1879.66V635.675H1846.18ZM1934.88 647.726C1934.88 653.631 1933.5 657.82 1930.76 660.292C1928.08 662.764 1923.61 664 1917.37 664H1897.18V591.9H1916.13C1922.31 591.9 1926.98 593.17 1930.14 595.711C1933.3 598.183 1934.88 602.269 1934.88 607.968V647.726ZM1925.91 607.041C1925.91 604.775 1925.23 602.99 1923.85 601.685C1922.48 600.312 1920.66 599.625 1918.4 599.625H1906.14V656.275H1918.29C1920.9 656.275 1922.82 655.691 1924.06 654.524C1925.3 653.288 1925.91 651.365 1925.91 648.756V607.041ZM1986.21 647.52C1986.21 653.288 1984.77 657.477 1981.88 660.086C1979.07 662.695 1974.67 664 1968.7 664H1967.36C1961.38 664 1956.96 662.695 1954.07 660.086C1951.26 657.477 1949.85 653.288 1949.85 647.52V628.98C1949.85 623.212 1951.26 619.023 1954.07 616.414C1956.96 613.805 1961.38 612.5 1967.36 612.5H1968.7C1974.67 612.5 1979.07 613.805 1981.88 616.414C1984.77 619.023 1986.21 623.212 1986.21 628.98V647.52ZM1977.45 626.92C1977.45 624.791 1976.8 623.143 1975.5 621.976C1974.19 620.809 1972.27 620.225 1969.73 620.225H1966.33C1963.79 620.225 1961.87 620.809 1960.56 621.976C1959.26 623.143 1958.6 624.791 1958.6 626.92V649.58C1958.6 651.709 1959.26 653.357 1960.56 654.524C1961.87 655.691 1963.79 656.275 1966.33 656.275H1969.73C1972.27 656.275 1974.19 655.691 1975.5 654.524C1976.8 653.357 1977.45 651.709 1977.45 649.58V626.92ZM2002.19 635.675V627.95H2035.66V635.675H2002.19ZM2066.17 599.728V664H2057.21V599.728H2041.35V591.9H2082.03V599.728H2066.17ZM2115.45 664C2114.55 664 2113.56 663.725 2112.46 663.176C2111.43 662.627 2110.54 661.871 2109.78 660.91C2108.2 662.97 2106.11 664 2103.5 664H2096.39C2091.17 664 2087.36 662.97 2084.96 660.91C2082.62 658.781 2081.46 655.176 2081.46 650.095V648.035C2081.46 637.392 2086.47 632.07 2096.49 632.07H2107.21V626.92C2107.21 624.791 2106.55 623.143 2105.25 621.976C2103.94 620.809 2102.02 620.225 2099.48 620.225H2085.58V612.5H2098.45C2104.42 612.5 2108.82 613.805 2111.63 616.414C2114.52 619.023 2115.96 623.212 2115.96 628.98V653.7C2115.96 654.73 2116.34 655.52 2117.09 656.069C2117.92 656.55 2119.26 656.79 2121.11 656.79V664H2115.45ZM2102.47 656.275C2104.53 656.275 2105.83 655.794 2106.38 654.833C2106.93 653.872 2107.21 652.636 2107.21 651.125V639.795H2096.39C2094.6 639.795 2093.13 640.379 2091.96 641.546C2090.79 642.713 2090.21 644.19 2090.21 645.975V651.125C2090.21 652.91 2090.62 654.215 2091.45 655.039C2092.27 655.863 2093.57 656.275 2095.36 656.275H2102.47ZM2133.44 612.5H2141.68V614.972C2143.81 613.324 2146.56 612.5 2149.92 612.5H2152.6C2158.16 612.5 2162.28 613.805 2164.96 616.414C2167.71 619.023 2169.08 623.212 2169.08 628.98V664H2160.33V626.92C2160.33 624.86 2159.71 623.246 2158.47 622.079C2157.3 620.843 2155.69 620.225 2153.63 620.225H2148.89C2146.63 620.225 2144.94 620.843 2143.85 622.079C2142.75 623.246 2142.2 624.517 2142.2 625.89V664H2133.44V612.5ZM2210.79 664L2196.68 638.559L2193.8 641.958V664H2185.04V591.9H2193.8V630.422L2209.25 612.5H2220.27L2202.86 632.379L2220.99 664H2210.79ZM2273.48 599.625C2272.38 599.625 2271.49 599.934 2270.8 600.552C2270.19 601.101 2269.88 601.822 2269.88 602.715V612.5H2282.34V620.225H2269.88V664H2261.12V620.225H2254.43V612.5H2261.12V603.23C2261.12 599.728 2262.12 596.981 2264.11 594.99C2266.1 592.93 2268.68 591.9 2271.83 591.9H2283.37V599.625H2273.48ZM2326.39 647.52C2326.39 653.288 2324.95 657.477 2322.06 660.086C2319.25 662.695 2314.85 664 2308.88 664H2307.54C2301.57 664 2297.14 662.695 2294.25 660.086C2291.44 657.477 2290.03 653.288 2290.03 647.52V628.98C2290.03 623.212 2291.44 619.023 2294.25 616.414C2297.14 613.805 2301.57 612.5 2307.54 612.5H2308.88C2314.85 612.5 2319.25 613.805 2322.06 616.414C2324.95 619.023 2326.39 623.212 2326.39 628.98V647.52ZM2317.63 626.92C2317.63 624.791 2316.98 623.143 2315.68 621.976C2314.37 620.809 2312.45 620.225 2309.91 620.225H2306.51C2303.97 620.225 2302.05 620.809 2300.74 621.976C2299.44 623.143 2298.79 624.791 2298.79 626.92V649.58C2298.79 651.709 2299.44 653.357 2300.74 654.524C2302.05 655.691 2303.97 656.275 2306.51 656.275H2309.91C2312.45 656.275 2314.37 655.691 2315.68 654.524C2316.98 653.357 2317.63 651.709 2317.63 649.58V626.92ZM2341.86 612.5H2350.1V615.281C2352.36 613.427 2355.11 612.5 2358.34 612.5H2365.86V620.74H2357.31C2355.04 620.74 2353.36 621.495 2352.26 623.006C2351.16 624.517 2350.61 625.993 2350.61 627.435V664H2341.86V612.5ZM2441.12 647.726C2441.12 653.631 2439.75 657.82 2437 660.292C2434.33 662.764 2429.86 664 2423.61 664H2403.43V591.9H2422.38C2428.56 591.9 2433.23 593.17 2436.39 595.711C2439.55 598.183 2441.12 602.269 2441.12 607.968V647.726ZM2432.16 607.041C2432.16 604.775 2431.48 602.99 2430.1 601.685C2428.73 600.312 2426.91 599.625 2424.64 599.625H2412.39V656.275H2424.54C2427.15 656.275 2429.07 655.691 2430.31 654.524C2431.55 653.288 2432.16 651.365 2432.16 648.756V607.041ZM2456.61 601.17V591.9H2466.4V601.17H2456.61ZM2457.13 664V612.5H2465.88V664H2457.13ZM2519.87 667.605C2519.87 672.274 2518.46 675.742 2515.64 678.008C2512.9 680.343 2508.57 681.51 2502.67 681.51H2481.86V673.785H2503.7C2506.17 673.785 2508.02 673.304 2509.26 672.343C2510.49 671.382 2511.11 670.146 2511.11 668.635V665.339C2511.11 663.76 2510.49 662.524 2509.26 661.631C2508.02 660.67 2506.17 660.189 2503.7 660.189H2486.49V645.975C2484.23 644.739 2482.55 642.954 2481.45 640.619C2480.35 638.284 2479.8 635.263 2479.8 631.555V628.98C2479.8 623.212 2481.21 619.023 2484.02 616.414C2486.91 613.805 2491.34 612.5 2497.31 612.5H2518.32V631.555C2518.32 636.705 2516.91 640.756 2514.1 643.709C2511.28 646.593 2507.54 648.035 2502.87 648.035H2495.25V652.464H2502.67C2508.57 652.464 2512.9 653.631 2515.64 655.966C2518.46 658.232 2519.87 661.7 2519.87 666.369V667.605ZM2502.87 640.31C2505 640.31 2506.61 639.623 2507.71 638.25C2508.81 636.877 2509.43 635.435 2509.57 633.924V620.225H2496.28C2493.74 620.225 2491.82 620.809 2490.51 621.976C2489.21 623.143 2488.55 624.791 2488.55 626.92V633.615C2488.55 635.744 2489.21 637.392 2490.51 638.559C2491.82 639.726 2493.74 640.31 2496.28 640.31H2502.87ZM2532.76 601.17V591.9H2542.54V601.17H2532.76ZM2533.27 664V612.5H2542.03V664H2533.27ZM2569.85 664C2566.35 664 2563.67 662.867 2561.81 660.601C2559.96 658.335 2559.03 655.348 2559.03 651.64V620.225H2552.34V612.5H2559.03V600.14H2567.79V612.5H2579.74V620.225H2567.79V652.155C2567.79 653.666 2568.17 654.73 2568.92 655.348C2569.68 655.966 2570.84 656.275 2572.42 656.275H2579.74V664H2569.85ZM2620.89 664C2620 664 2619 663.725 2617.9 663.176C2616.87 662.627 2615.98 661.871 2615.22 660.91C2613.65 662.97 2611.55 664 2608.94 664H2601.83C2596.62 664 2592.8 662.97 2590.4 660.91C2588.07 658.781 2586.9 655.176 2586.9 650.095V648.035C2586.9 637.392 2591.91 632.07 2601.94 632.07H2612.65V626.92C2612.65 624.791 2612 623.143 2610.69 621.976C2609.39 620.809 2607.47 620.225 2604.92 620.225H2591.02V612.5H2603.89C2609.87 612.5 2614.26 613.805 2617.08 616.414C2619.96 619.023 2621.4 623.212 2621.4 628.98V653.7C2621.4 654.73 2621.78 655.52 2622.54 656.069C2623.36 656.55 2624.7 656.79 2626.55 656.79V664H2620.89ZM2607.91 656.275C2609.97 656.275 2611.28 655.794 2611.83 654.833C2612.37 653.872 2612.65 652.636 2612.65 651.125V639.795H2601.83C2600.05 639.795 2598.57 640.379 2597.41 641.546C2596.24 642.713 2595.65 644.19 2595.65 645.975V651.125C2595.65 652.91 2596.07 654.215 2596.89 655.039C2597.71 655.863 2599.02 656.275 2600.8 656.275H2607.91ZM2647.13 664C2644.79 664 2642.73 663.176 2640.95 661.528C2639.23 659.88 2638.37 657.271 2638.37 653.7V591.9H2647.13V653.185C2647.13 654.284 2647.4 655.073 2647.95 655.554C2648.5 656.035 2649.43 656.275 2650.73 656.275H2652.79V664H2647.13ZM2664.12 601.17V591.9H2673.91V601.17H2664.12ZM2664.64 664V612.5H2673.39V664H2664.64ZM2717.08 651.125C2717.08 655.451 2715.74 658.678 2713.06 660.807C2710.45 662.936 2706.64 664 2701.63 664H2688.34V656.275H2702.66C2704.51 656.275 2705.92 655.897 2706.88 655.142C2707.84 654.318 2708.32 653.151 2708.32 651.64V646.181C2708.32 643.091 2706.84 641.546 2703.89 641.546H2702.14C2697.33 641.546 2693.73 640.516 2691.33 638.456C2688.99 636.327 2687.82 632.997 2687.82 628.465V625.478C2687.82 620.877 2689.13 617.581 2691.74 615.59C2694.35 613.53 2698.19 612.5 2703.27 612.5H2715.02V620.225H2702.24C2700.53 620.225 2699.15 620.637 2698.12 621.461C2697.09 622.216 2696.58 623.349 2696.58 624.86V628.568C2696.58 630.147 2697.02 631.315 2697.92 632.07C2698.88 632.825 2700.08 633.203 2701.52 633.203H2702.96C2707.57 633.203 2711.07 634.336 2713.47 636.602C2715.87 638.799 2717.08 642.095 2717.08 646.49V651.125ZM2761.41 664C2760.52 664 2759.52 663.725 2758.42 663.176C2757.39 662.627 2756.5 661.871 2755.74 660.91C2754.16 662.97 2752.07 664 2749.46 664H2742.35C2737.13 664 2733.32 662.97 2730.92 660.91C2728.59 658.781 2727.42 655.176 2727.42 650.095V648.035C2727.42 637.392 2732.43 632.07 2742.46 632.07H2753.17V626.92C2753.17 624.791 2752.52 623.143 2751.21 621.976C2749.91 620.809 2747.98 620.225 2745.44 620.225H2731.54V612.5H2744.41C2750.39 612.5 2754.78 613.805 2757.6 616.414C2760.48 619.023 2761.92 623.212 2761.92 628.98V653.7C2761.92 654.73 2762.3 655.52 2763.06 656.069C2763.88 656.55 2765.22 656.79 2767.07 656.79V664H2761.41ZM2748.43 656.275C2750.49 656.275 2751.79 655.794 2752.34 654.833C2752.89 653.872 2753.17 652.636 2753.17 651.125V639.795H2742.35C2740.57 639.795 2739.09 640.379 2737.92 641.546C2736.76 642.713 2736.17 644.19 2736.17 645.975V651.125C2736.17 652.91 2736.59 654.215 2737.41 655.039C2738.23 655.863 2739.54 656.275 2741.32 656.275H2748.43ZM2790.74 664C2787.23 664 2784.56 662.867 2782.7 660.601C2780.85 658.335 2779.92 655.348 2779.92 651.64V620.225H2773.23V612.5H2779.92V600.14H2788.68V612.5H2800.62V620.225H2788.68V652.155C2788.68 653.666 2789.05 654.73 2789.81 655.348C2790.56 655.966 2791.73 656.275 2793.31 656.275H2800.62V664H2790.74ZM2810.88 601.17V591.9H2820.66V601.17H2810.88ZM2811.39 664V612.5H2820.15V664H2811.39ZM2871.97 647.52C2871.97 653.288 2870.53 657.477 2867.64 660.086C2864.83 662.695 2860.43 664 2854.46 664H2853.12C2847.14 664 2842.72 662.695 2839.83 660.086C2837.02 657.477 2835.61 653.288 2835.61 647.52V628.98C2835.61 623.212 2837.02 619.023 2839.83 616.414C2842.72 613.805 2847.14 612.5 2853.12 612.5H2854.46C2860.43 612.5 2864.83 613.805 2867.64 616.414C2870.53 619.023 2871.97 623.212 2871.97 628.98V647.52ZM2863.21 626.92C2863.21 624.791 2862.56 623.143 2861.26 621.976C2859.95 620.809 2858.03 620.225 2855.49 620.225H2852.09C2849.55 620.225 2847.63 620.809 2846.32 621.976C2845.02 623.143 2844.36 624.791 2844.36 626.92V649.58C2844.36 651.709 2845.02 653.357 2846.32 654.524C2847.63 655.691 2849.55 656.275 2852.09 656.275H2855.49C2858.03 656.275 2859.95 655.691 2861.26 654.524C2862.56 653.357 2863.21 651.709 2863.21 649.58V626.92ZM2887.43 612.5H2895.67V614.972C2897.8 613.324 2900.55 612.5 2903.91 612.5H2906.59C2912.15 612.5 2916.27 613.805 2918.95 616.414C2921.7 619.023 2923.07 623.212 2923.07 628.98V664H2914.32V626.92C2914.32 624.86 2913.7 623.246 2912.46 622.079C2911.3 620.843 2909.68 620.225 2907.62 620.225H2902.88C2900.62 620.225 2898.94 620.843 2897.84 622.079C2896.74 623.246 2896.19 624.517 2896.19 625.89V664H2887.43V612.5ZM2979.7 599.625C2978.6 599.625 2977.7 599.934 2977.02 600.552C2976.4 601.101 2976.09 601.822 2976.09 602.715V612.5H2988.55V620.225H2976.09V664H2967.34V620.225H2960.64V612.5H2967.34V603.23C2967.34 599.728 2968.33 596.981 2970.32 594.99C2972.31 592.93 2974.89 591.9 2978.05 591.9H2989.58V599.625H2979.7ZM3032.6 647.52C3032.6 653.288 3031.16 657.477 3028.28 660.086C3025.46 662.695 3021.07 664 3015.09 664H3013.75C3007.78 664 3003.35 662.695 3000.47 660.086C2997.65 657.477 2996.24 653.288 2996.24 647.52V628.98C2996.24 623.212 2997.65 619.023 3000.47 616.414C3003.35 613.805 3007.78 612.5 3013.75 612.5H3015.09C3021.07 612.5 3025.46 613.805 3028.28 616.414C3031.16 619.023 3032.6 623.212 3032.6 628.98V647.52ZM3023.85 626.92C3023.85 624.791 3023.2 623.143 3021.89 621.976C3020.59 620.809 3018.66 620.225 3016.12 620.225H3012.72C3010.18 620.225 3008.26 620.809 3006.96 621.976C3005.65 623.143 3005 624.791 3005 626.92V649.58C3005 651.709 3005.65 653.357 3006.96 654.524C3008.26 655.691 3010.18 656.275 3012.72 656.275H3016.12C3018.66 656.275 3020.59 655.691 3021.89 654.524C3023.2 653.357 3023.85 651.709 3023.85 649.58V626.92ZM3048.07 612.5H3056.31V615.281C3058.58 613.427 3061.32 612.5 3064.55 612.5H3072.07V620.74H3063.52C3061.25 620.74 3059.57 621.495 3058.47 623.006C3057.37 624.517 3056.83 625.993 3056.83 627.435V664H3048.07V612.5ZM3120.46 664C3116.95 664 3114.28 662.867 3112.42 660.601C3110.57 658.335 3109.64 655.348 3109.64 651.64V620.225H3102.95V612.5H3109.64V600.14H3118.4V612.5H3130.34V620.225H3118.4V652.155C3118.4 653.666 3118.77 654.73 3119.53 655.348C3120.28 655.966 3121.45 656.275 3123.03 656.275H3130.34V664H3120.46ZM3141.11 591.9H3149.87V614.56C3151.93 613.187 3154.5 612.5 3157.59 612.5H3160.27C3165.83 612.5 3169.95 613.805 3172.63 616.414C3175.38 619.023 3176.75 623.212 3176.75 628.98V664H3168V626.92C3168 624.86 3167.38 623.246 3166.14 622.079C3164.97 620.843 3163.36 620.225 3161.3 620.225H3156.56C3154.36 620.225 3152.68 620.809 3151.52 621.976C3150.42 623.075 3149.87 624.276 3149.87 625.581V664H3141.11V591.9ZM3209.19 664C3203.15 664 3198.72 662.73 3195.91 660.189C3193.09 657.58 3191.68 653.357 3191.68 647.52V628.98C3191.68 623.075 3192.95 618.852 3195.49 616.311C3198.03 613.77 3202.26 612.5 3208.16 612.5H3210.94C3215.82 612.5 3219.49 613.873 3221.96 616.62C3224.51 619.298 3225.78 623.246 3225.78 628.465V641.855H3200.44V649.58C3200.44 651.709 3201.09 653.357 3202.39 654.524C3203.7 655.691 3205.62 656.275 3208.16 656.275H3222.48V664H3209.19ZM3217.23 634.13V626.405C3217.23 624.62 3216.64 623.143 3215.48 621.976C3214.31 620.809 3212.83 620.225 3211.05 620.225H3207.13C3204.66 620.225 3202.91 620.809 3201.88 621.976C3200.92 623.075 3200.44 624.723 3200.44 626.92V634.13H3217.23ZM3285.47 664C3279.5 664 3274.9 662.558 3271.67 659.674C3268.51 656.721 3266.93 652.327 3266.93 646.49V609.41C3266.93 603.573 3268.51 599.213 3271.67 596.329C3274.9 593.376 3279.5 591.9 3285.47 591.9H3298.04V599.728H3284.44C3281.9 599.728 3279.84 600.483 3278.26 601.994C3276.68 603.505 3275.89 605.324 3275.89 607.453V648.447C3275.89 650.576 3276.68 652.395 3278.26 653.906C3279.84 655.417 3281.9 656.172 3284.44 656.172H3298.04V664H3285.47ZM3344.72 647.52C3344.72 653.288 3343.28 657.477 3340.4 660.086C3337.58 662.695 3333.19 664 3327.21 664H3325.87C3319.9 664 3315.47 662.695 3312.59 660.086C3309.77 657.477 3308.36 653.288 3308.36 647.52V628.98C3308.36 623.212 3309.77 619.023 3312.59 616.414C3315.47 613.805 3319.9 612.5 3325.87 612.5H3327.21C3333.19 612.5 3337.58 613.805 3340.4 616.414C3343.28 619.023 3344.72 623.212 3344.72 628.98V647.52ZM3335.97 626.92C3335.97 624.791 3335.31 623.143 3334.01 621.976C3332.7 620.809 3330.78 620.225 3328.24 620.225H3324.84C3322.3 620.225 3320.38 620.809 3319.07 621.976C3317.77 623.143 3317.12 624.791 3317.12 626.92V649.58C3317.12 651.709 3317.77 653.357 3319.07 654.524C3320.38 655.691 3322.3 656.275 3324.84 656.275H3328.24C3330.78 656.275 3332.7 655.691 3334.01 654.524C3335.31 653.357 3335.97 651.709 3335.97 649.58V626.92ZM3360.19 612.5H3368.43V614.972C3370.56 613.324 3373.3 612.5 3376.67 612.5H3377.29C3383.53 612.5 3388 614.079 3390.68 617.238C3393.22 614.079 3396.75 612.5 3401.29 612.5H3401.9C3407.47 612.5 3411.59 613.805 3414.26 616.414C3417.01 619.023 3418.38 623.212 3418.38 628.98V664H3409.63V626.92C3409.63 624.86 3409.01 623.246 3407.77 622.079C3406.61 620.843 3404.99 620.225 3402.93 620.225H3400.26C3398.13 620.225 3396.51 620.877 3395.41 622.182C3394.38 623.418 3393.8 624.757 3393.66 626.199V664H3384.91V626.92C3384.91 624.86 3384.32 623.246 3383.16 622.079C3381.99 620.843 3380.38 620.225 3378.32 620.225H3375.64C3373.44 620.225 3371.76 620.809 3370.59 621.976C3369.49 623.075 3368.94 624.276 3368.94 625.581V664H3360.19V612.5ZM3434.32 612.5H3442.56V614.972C3444.69 613.324 3447.44 612.5 3450.8 612.5H3451.42C3457.67 612.5 3462.13 614.079 3464.81 617.238C3467.35 614.079 3470.89 612.5 3475.42 612.5H3476.04C3481.6 612.5 3485.72 613.805 3488.4 616.414C3491.14 619.023 3492.52 623.212 3492.52 628.98V664H3483.76V626.92C3483.76 624.86 3483.14 623.246 3481.91 622.079C3480.74 620.843 3479.13 620.225 3477.07 620.225H3474.39C3472.26 620.225 3470.64 620.877 3469.55 622.182C3468.52 623.418 3467.93 624.757 3467.8 626.199V664H3459.04V626.92C3459.04 624.86 3458.46 623.246 3457.29 622.079C3456.12 620.843 3454.51 620.225 3452.45 620.225H3449.77C3447.57 620.225 3445.89 620.809 3444.72 621.976C3443.62 623.075 3443.08 624.276 3443.08 625.581V664H3434.32V612.5ZM3543.78 647.52C3543.78 653.288 3542.34 657.477 3539.45 660.086C3536.64 662.695 3532.24 664 3526.27 664H3524.93C3518.96 664 3514.53 662.695 3511.64 660.086C3508.83 657.477 3507.42 653.288 3507.42 647.52V628.98C3507.42 623.212 3508.83 619.023 3511.64 616.414C3514.53 613.805 3518.96 612.5 3524.93 612.5H3526.27C3532.24 612.5 3536.64 613.805 3539.45 616.414C3542.34 619.023 3543.78 623.212 3543.78 628.98V647.52ZM3535.03 626.92C3535.03 624.791 3534.37 623.143 3533.07 621.976C3531.76 620.809 3529.84 620.225 3527.3 620.225H3523.9C3521.36 620.225 3519.44 620.809 3518.13 621.976C3516.83 623.143 3516.18 624.791 3516.18 626.92V649.58C3516.18 651.709 3516.83 653.357 3518.13 654.524C3519.44 655.691 3521.36 656.275 3523.9 656.275H3527.3C3529.84 656.275 3531.76 655.691 3533.07 654.524C3534.37 653.357 3535.03 651.709 3535.03 649.58V626.92ZM3559.25 612.5H3567.49V614.972C3569.62 613.324 3572.36 612.5 3575.73 612.5H3578.41C3583.97 612.5 3588.09 613.805 3590.77 616.414C3593.51 619.023 3594.89 623.212 3594.89 628.98V664H3586.13V626.92C3586.13 624.86 3585.51 623.246 3584.28 622.079C3583.11 620.843 3581.5 620.225 3579.44 620.225H3574.7C3572.43 620.225 3570.75 620.843 3569.65 622.079C3568.55 623.246 3568 624.517 3568 625.89V664H3559.25V612.5ZM3655.63 664C3649.66 664 3645.05 662.558 3641.83 659.674C3638.67 656.721 3637.09 652.327 3637.09 646.49V609.41C3637.09 603.573 3638.67 599.213 3641.83 596.329C3645.05 593.376 3649.66 591.9 3655.63 591.9H3669.53V599.728H3654.6C3652.06 599.728 3650 600.483 3648.42 601.994C3646.84 603.505 3646.05 605.324 3646.05 607.453V648.447C3646.05 650.576 3646.84 652.395 3648.42 653.906C3650 655.417 3652.06 656.172 3654.6 656.172H3664.08V633.821H3655.42V626.096H3672.62V664H3655.63ZM3723.43 647.52C3723.43 653.288 3721.99 657.477 3719.1 660.086C3716.29 662.695 3711.89 664 3705.92 664H3704.58C3698.6 664 3694.18 662.695 3691.29 660.086C3688.48 657.477 3687.07 653.288 3687.07 647.52V628.98C3687.07 623.212 3688.48 619.023 3691.29 616.414C3694.18 613.805 3698.6 612.5 3704.58 612.5H3705.92C3711.89 612.5 3716.29 613.805 3719.1 616.414C3721.99 619.023 3723.43 623.212 3723.43 628.98V647.52ZM3714.67 626.92C3714.67 624.791 3714.02 623.143 3712.72 621.976C3711.41 620.809 3709.49 620.225 3706.95 620.225H3703.55C3701.01 620.225 3699.09 620.809 3697.78 621.976C3696.48 623.143 3695.82 624.791 3695.82 626.92V649.58C3695.82 651.709 3696.48 653.357 3697.78 654.524C3699.09 655.691 3701.01 656.275 3703.55 656.275H3706.95C3709.49 656.275 3711.41 655.691 3712.72 654.524C3714.02 653.357 3714.67 651.709 3714.67 649.58V626.92ZM3774.22 647.52C3774.22 653.288 3772.78 657.477 3769.9 660.086C3767.08 662.695 3762.69 664 3756.71 664H3755.37C3749.4 664 3744.97 662.695 3742.09 660.086C3739.27 657.477 3737.86 653.288 3737.86 647.52V628.98C3737.86 623.212 3739.27 619.023 3742.09 616.414C3744.97 613.805 3749.4 612.5 3755.37 612.5H3756.71C3762.69 612.5 3767.08 613.805 3769.9 616.414C3772.78 619.023 3774.22 623.212 3774.22 628.98V647.52ZM3765.47 626.92C3765.47 624.791 3764.82 623.143 3763.51 621.976C3762.21 620.809 3760.28 620.225 3757.74 620.225H3754.34C3751.8 620.225 3749.88 620.809 3748.58 621.976C3747.27 623.143 3746.62 624.791 3746.62 626.92V649.58C3746.62 651.709 3747.27 653.357 3748.58 654.524C3749.88 655.691 3751.8 656.275 3754.34 656.275H3757.74C3760.28 656.275 3762.21 655.691 3763.51 654.524C3764.82 653.357 3765.47 651.709 3765.47 649.58V626.92ZM3816.57 661.631C3814.31 663.21 3811.56 664 3808.33 664H3806.17C3800.13 664 3795.7 662.73 3792.88 660.189C3790.07 657.58 3788.66 653.357 3788.66 647.52V628.98C3788.66 623.212 3790.07 619.023 3792.88 616.414C3795.77 613.805 3800.2 612.5 3806.17 612.5H3816.06V591.9H3824.81V664H3816.57V661.631ZM3809.36 656.275C3811.63 656.275 3813.31 655.691 3814.41 654.524C3815.51 653.288 3816.06 651.983 3816.06 650.61V620.225H3805.14C3802.6 620.225 3800.68 620.809 3799.37 621.976C3798.07 623.143 3797.42 624.791 3797.42 626.92V649.58C3797.42 651.709 3798.07 653.357 3799.37 654.524C3800.68 655.691 3802.6 656.275 3805.14 656.275H3809.36Z" fill="black"/>
</svg>
