<svg width="800" height="800" viewBox="0 0 800 800" fill="none" xmlns="http://www.w3.org/2000/svg">
<path d="M137.186 1.32965C69.6096 6.76962 23.7822 23.4781 7.08234 48.8646C0.738995 58.4493 -1.72067 76.453 1.25682 91.7367C9.41254 134.997 62.8779 189.915 167.349 262.319C183.142 273.328 187.285 276.696 185.861 277.732C133.561 314.387 112.459 331.484 80.8722 363.088C54.8516 389.122 41.3882 405.701 27.9247 427.72C6.82343 462.561 -1.3323 493.647 0.350627 532.245C3.0692 592.343 40.3525 641.821 117.379 687.672C136.02 698.811 156.216 709.303 173.692 716.815C179.906 719.406 184.825 722.126 184.437 722.644C183.66 723.809 187.932 722.126 84.7559 763.702C10.966 793.363 -5.7338 800.746 4.2343 799.321C13.814 797.767 117.249 760.983 171.232 739.741L200.748 728.084L215.248 733.653C289.814 761.889 393.249 785.203 486.069 794.399C554.422 801.264 636.109 801.912 684.655 795.824C731.259 789.996 765.306 778.209 783.43 761.63C795.599 750.362 799.094 742.849 799.741 725.752C800.518 706.583 797.152 693.89 786.796 676.533C763.493 637.547 704.85 585.22 622.386 529.654C617.597 526.416 613.583 523.437 613.583 522.919C613.583 522.401 619.021 518.386 625.623 513.852C684.525 474.348 741.356 420.466 768.672 378.112C783.171 355.834 794.174 329.153 798.058 307.134C800.647 292.368 800.647 261.412 798.058 246.646C791.844 211.287 769.578 176.963 732.683 146.007C708.475 125.672 665.625 99.7672 630.024 83.9654C621.61 80.3387 615.266 76.8416 615.784 76.3235C616.82 75.2873 688.15 46.2741 759.48 17.9086C781.747 9.10102 800 1.45918 800 0.811566C800 -1.2608 794.175 0.293489 766.859 9.48963C729.317 22.1829 685.043 38.2437 637.921 56.377L599.602 71.1426L582.514 64.6664C499.533 33.1923 383.411 9.23055 278.293 1.84773C248 -0.224635 161.264 -0.613196 137.186 1.32965ZM271.82 5.73343C366.582 14.4115 463.156 34.4876 543.807 61.9465C577.206 73.474 582.126 75.4169 581.996 76.9712C581.996 77.6188 576.43 80.4682 569.568 83.1882C460.696 127.097 347.681 180.978 267.936 226.959C246.576 239.264 215.118 258.303 206.315 264.262L200.878 267.888L175.893 250.921C101.326 200.407 49.6733 157.016 25.0767 124.377C15.6264 111.683 5.91723 93.032 3.97539 83.4473C0.0917147 64.0188 15.6264 43.1656 44.3656 29.0476C72.1987 15.4477 105.598 8.3239 165.666 3.2725C179.259 2.10679 250.718 3.79058 271.82 5.73343ZM395.191 18.6858C445.032 27.1048 493.319 38.3733 536.428 51.9732C563.743 60.5217 592.871 70.754 594.683 72.4378C595.33 73.0854 593.777 73.8626 591.446 74.3807C588.21 74.8988 584.715 74.2511 578.76 71.7902C532.156 52.7503 453.835 31.12 385.223 18.5562C371.76 16.0953 360.368 13.7639 359.979 13.3753C359.591 12.9868 361.274 12.9868 363.733 13.3753C366.193 13.8934 380.433 16.2248 395.191 18.6858ZM750.677 18.5562C750.418 18.8153 736.825 24.3847 720.385 30.9904C704.073 37.4666 672.615 50.1599 650.737 59.0969C620.704 71.2721 609.959 75.0283 607.499 74.3807C605.557 73.9921 604.651 73.0854 605.298 72.4378C607.628 70.2359 672.098 45.497 720.385 28.2705C746.794 18.9448 752.101 17.1315 750.677 18.5562ZM593.518 80.2092C595.848 81.1159 595.46 81.5044 590.929 83.4473C491.765 125.931 448.268 145.877 379.009 180.849C318.165 211.416 269.619 238.486 227.416 265.168L212.141 274.753L207.739 272.421C205.279 271.126 203.596 269.701 203.985 269.183C204.632 268.018 246.705 242.113 267.289 230.197C328.651 194.708 414.351 152.224 494.484 117.771C537.463 99.1196 586.786 78.914 588.987 79.0435C590.022 79.0435 592.094 79.5616 593.518 80.2092ZM623.94 84.2244C663.424 101.321 705.886 126.708 732.165 148.986C761.811 174.113 783.947 205.069 792.233 233.176C795.081 242.631 795.081 247.423 792.233 238.616C791.326 235.896 788.09 228.643 785.113 222.426C767.895 187.584 734.366 154.037 686.726 124.247C671.45 114.662 631.06 93.5501 613.583 85.9082C603.356 81.5044 603.486 81.634 605.816 80.2092C609.053 78.1368 611.253 78.6549 623.94 84.2244ZM626.658 95.1043C727.893 142.251 786.666 201.184 796.246 265.168C801.165 297.29 782.523 344.177 747.829 387.179C717.796 424.352 672.615 463.986 615.914 502.973L599.473 514.241L591.964 509.19C564.002 490.279 510.537 457.251 384.446 381.091C328.521 347.286 267.289 309.854 248.388 298.067L213.953 276.437L219.908 272.681C275.962 237.062 351.306 196.132 429.109 158.83C497.85 125.931 597.143 82.5406 601.285 83.7063C602.709 84.0949 614.101 89.1463 626.658 95.1043ZM25.5945 129.169C35.4332 141.733 62.1011 168.155 80.3544 183.569C104.822 204.033 155.439 241.077 188.062 262.189C193.499 265.686 198.03 268.924 198.03 269.313C198.03 270.867 190.133 274.623 188.58 273.717C184.825 271.385 152.202 248.589 139.127 239.005C71.8103 189.915 28.7015 147.561 12.0017 114.015C4.88158 99.7672 4.88158 97.6948 12.1311 109.74C15.1086 114.921 21.193 123.729 25.5945 129.169ZM195.052 281.099L199.454 283.819L196.217 285.503C190.133 288.741 158.675 311.149 141.069 324.749C71.2925 379.019 26.7596 431.735 9.67146 480.176C6.43506 489.114 4.36376 492.352 5.78778 486.264C18.2155 433.03 60.0298 378.112 132.266 320.345C148.707 307.134 188.321 278.38 190.004 278.38C190.263 278.38 192.593 279.675 195.052 281.099ZM231.429 290.555C260.816 309.206 294.863 330.059 388.33 386.531C509.76 459.841 588.987 508.931 595.201 514.759C596.495 515.925 595.977 516.702 592.482 518.645L588.081 520.976L543.548 493.129C519.081 477.716 454.223 438.081 399.334 405.053C344.574 372.025 290.073 338.867 278.293 331.484C236.608 305.45 204.503 284.597 204.503 283.56C204.503 282.524 209.681 278.509 211.364 278.509C211.882 278.38 220.944 283.819 231.429 290.555ZM207.739 289.648C233.76 307.393 298.358 347.286 414.221 417.228C534.356 489.761 585.103 521.235 585.103 523.049C584.974 524.214 550.797 545.197 521.022 562.294C457.977 598.431 394.544 630.682 312.598 667.855C282.306 681.714 202.431 716.168 200.878 716.168C199.195 716.168 172.527 704.122 157.899 696.739C89.1574 662.286 39.7052 619.802 18.2155 576.93C6.95288 554.782 1.51573 530.561 3.84594 513.852C12.2606 454.401 56.9229 393.914 141.069 328.116C165.019 309.465 197.771 286.28 200.619 286.28C201.784 286.151 204.891 287.705 207.739 289.648ZM790.809 325.785C779.417 361.922 757.797 394.303 719.737 432.642C690.48 462.173 657.21 489.502 622.775 512.687L610.606 520.976L606.204 518.645C603.874 517.35 602.321 515.925 602.839 515.407C603.486 514.889 611.771 509.06 621.351 502.454C710.934 440.672 770.743 376.169 790.55 319.697C795.598 305.45 795.857 310.113 790.809 325.785ZM596.495 530.95C595.589 531.338 584.844 537.814 572.805 545.327C490.471 596.747 379.139 651.924 248.518 706.065C229.617 713.966 212.917 720.312 211.234 720.312C206.445 720.442 204.762 717.851 208.516 716.297C223.662 709.821 294.863 678.865 305.478 674.073C405.677 629.128 513.902 572.397 576.689 532.115L588.34 524.603L593.259 527.452C596.366 529.136 597.531 530.431 596.495 530.95ZM629.377 537.555C724.527 603.741 778.122 655.292 793.398 695.703C795.599 701.531 794.175 699.977 787.961 689.227C780.064 675.886 770.484 664.099 753.008 646.355C723.621 616.694 690.998 590.919 628.73 548.306L601.932 529.913L605.428 527.193C607.499 525.769 609.7 524.732 610.606 525.121C611.512 525.38 619.927 531.079 629.377 537.555ZM629.636 551.803C734.366 623.429 787.313 675.368 796.116 715.261C798.058 723.939 797.281 729.12 792.103 739.223C780.323 763.055 743.428 781.188 689.315 789.866C664.33 793.881 665.236 793.752 639.475 795.695C616.043 797.378 561.672 796.731 537.204 794.529C452.281 786.887 376.291 773.028 300.818 751.268C266.124 741.295 220.167 725.623 217.06 722.773C216.542 722.255 223.274 719.017 231.947 715.52C308.585 685.341 424.837 631.459 491.248 595.582C525.812 576.93 575.523 547.658 590.929 536.908C594.553 534.447 598.178 532.374 599.214 532.374C600.12 532.245 613.842 541.052 629.636 551.803ZM9.02418 562.683C14.9791 581.464 30.9022 604.907 52.9097 626.926C84.3675 658.4 118.673 681.196 172.139 706.453C185.343 712.541 196.217 717.851 196.476 718.11C196.735 718.24 195.182 719.017 193.111 719.794C189.874 720.96 187.026 719.924 169.42 711.764C113.884 685.989 74.9173 660.084 46.8253 629.905C26.6302 608.404 11.3544 582.111 6.56451 560.61C5.1405 554.134 6.82342 555.559 9.02418 562.683ZM195.311 726.011C195.57 726.27 195.57 726.918 195.052 727.307C192.722 729.767 49.4144 782.872 48.2493 781.706C47.9904 781.577 79.7071 768.495 118.673 752.693C183.401 726.659 192.463 723.421 195.311 726.011ZM224.18 728.602C281.27 750.491 346.904 768.236 420.047 781.577C445.938 786.369 446.585 787.535 420.953 783.52C376.42 776.396 338.748 768.495 300.947 758.133C260.687 747.124 205.797 728.861 205.797 726.529C205.797 725.623 207.869 724.716 211.234 724.068C211.623 724.068 217.448 726.011 224.18 728.602Z" fill="black"/>
<path d="M750.677 18.5562C750.418 18.8153 736.825 24.3847 720.385 30.9904C704.073 37.4666 672.615 50.1599 650.737 59.0969C620.704 71.2721 609.959 75.0283 607.499 74.3807C605.557 73.9921 604.651 73.0854 605.298 72.4378C607.628 70.2359 672.098 45.497 720.385 28.2705C746.794 18.9448 752.101 17.1315 750.677 18.5562Z" fill="black"/>
<path d="M593.518 80.2092C595.848 81.1159 595.46 81.5044 590.929 83.4473C491.765 125.931 448.268 145.877 379.009 180.849C318.165 211.416 269.619 238.486 227.416 265.168L212.141 274.753L207.739 272.421C205.279 271.126 203.596 269.701 203.985 269.183C204.632 268.018 246.705 242.113 267.289 230.197C328.651 194.708 414.351 152.224 494.484 117.771C537.463 99.1196 586.786 78.914 588.987 79.0435C590.022 79.0435 592.094 79.5616 593.518 80.2092Z" fill="black"/>
<path d="M623.94 84.2244C663.424 101.321 705.886 126.708 732.165 148.986C761.811 174.113 783.947 205.069 792.233 233.176C795.081 242.631 795.081 247.423 792.233 238.616C791.326 235.896 788.09 228.643 785.113 222.426C767.895 187.584 734.366 154.037 686.726 124.247C671.45 114.662 631.06 93.5501 613.583 85.9082C603.356 81.5044 603.486 81.634 605.816 80.2092C609.053 78.1368 611.253 78.6549 623.94 84.2244Z" fill="black"/>
<path d="M395.191 18.6858C445.032 27.1048 493.319 38.3733 536.428 51.9732C563.743 60.5217 592.871 70.754 594.683 72.4378C595.33 73.0854 593.777 73.8626 591.446 74.3807C588.21 74.8988 584.715 74.2511 578.76 71.7902C532.156 52.7503 453.835 31.12 385.223 18.5562C371.76 16.0953 360.368 13.7639 359.979 13.3753C359.591 12.9868 361.274 12.9868 363.733 13.3753C366.193 13.8934 380.433 16.2248 395.191 18.6858Z" fill="black"/>
<path d="M25.5945 129.169C35.4332 141.733 62.1011 168.155 80.3544 183.569C104.822 204.033 155.439 241.077 188.062 262.189C193.499 265.686 198.03 268.924 198.03 269.313C198.03 270.867 190.133 274.623 188.58 273.717C184.825 271.385 152.202 248.589 139.127 239.005C71.8103 189.915 28.7015 147.561 12.0017 114.015C4.88158 99.7672 4.88158 97.6948 12.1311 109.74C15.1086 114.921 21.193 123.729 25.5945 129.169Z" fill="black"/>
<path d="M195.052 281.099L199.454 283.819L196.217 285.503C190.133 288.741 158.675 311.149 141.069 324.749C71.2925 379.019 26.7596 431.735 9.67146 480.176C6.43506 489.114 4.36376 492.352 5.78778 486.264C18.2155 433.03 60.0298 378.112 132.266 320.345C148.707 307.134 188.321 278.38 190.004 278.38C190.263 278.38 192.593 279.675 195.052 281.099Z" fill="black"/>
<path d="M231.429 290.555C260.816 309.206 294.863 330.059 388.33 386.531C509.76 459.841 588.987 508.931 595.201 514.759C596.495 515.925 595.977 516.702 592.482 518.645L588.081 520.976L543.548 493.129C519.081 477.716 454.223 438.081 399.334 405.053C344.574 372.025 290.073 338.867 278.293 331.484C236.608 305.45 204.503 284.597 204.503 283.56C204.503 282.524 209.681 278.509 211.364 278.509C211.882 278.38 220.944 283.819 231.429 290.555Z" fill="black"/>
<path d="M195.311 726.011C195.57 726.27 195.57 726.918 195.052 727.307C192.722 729.767 49.4144 782.872 48.2493 781.706C47.9904 781.577 79.7071 768.495 118.673 752.693C183.401 726.659 192.463 723.421 195.311 726.011Z" fill="black"/>
<path d="M9.02418 562.683C14.9791 581.464 30.9022 604.907 52.9097 626.926C84.3675 658.4 118.673 681.196 172.139 706.453C185.343 712.541 196.217 717.851 196.476 718.11C196.735 718.24 195.182 719.017 193.111 719.794C189.874 720.96 187.026 719.924 169.42 711.764C113.884 685.989 74.9173 660.084 46.8253 629.905C26.6302 608.404 11.3544 582.111 6.56451 560.61C5.1405 554.134 6.82342 555.559 9.02418 562.683Z" fill="black"/>
<path d="M596.495 530.95C595.589 531.338 584.844 537.814 572.805 545.327C490.471 596.747 379.139 651.924 248.518 706.065C229.617 713.966 212.917 720.312 211.234 720.312C206.445 720.442 204.762 717.851 208.516 716.297C223.662 709.821 294.863 678.865 305.478 674.073C405.677 629.128 513.902 572.397 576.689 532.115L588.34 524.603L593.259 527.452C596.366 529.136 597.531 530.431 596.495 530.95Z" fill="black"/>
<path d="M224.18 728.602C281.27 750.491 346.904 768.236 420.047 781.577C445.938 786.369 446.585 787.535 420.953 783.52C376.42 776.396 338.748 768.495 300.947 758.133C260.687 747.124 205.797 728.861 205.797 726.529C205.797 725.623 207.869 724.716 211.234 724.068C211.623 724.068 217.448 726.011 224.18 728.602Z" fill="black"/>
<path d="M629.377 537.555C724.527 603.741 778.122 655.292 793.398 695.703C795.599 701.531 794.175 699.977 787.961 689.227C780.064 675.886 770.484 664.099 753.008 646.355C723.621 616.694 690.998 590.919 628.73 548.306L601.932 529.913L605.428 527.193C607.499 525.769 609.7 524.732 610.606 525.121C611.512 525.38 619.927 531.079 629.377 537.555Z" fill="black"/>
<path d="M790.809 325.785C779.417 361.922 757.797 394.303 719.737 432.642C690.48 462.173 657.21 489.502 622.775 512.687L610.606 520.976L606.204 518.645C603.874 517.35 602.321 515.925 602.839 515.407C603.486 514.889 611.771 509.06 621.351 502.454C710.934 440.672 770.743 376.169 790.55 319.697C795.598 305.45 795.857 310.113 790.809 325.785Z" fill="black"/>
</svg>
