<svg width="820" height="820" viewBox="0 0 820 820" fill="none" xmlns="http://www.w3.org/2000/svg">
<mask id="path-1-outside-1_10359_191" maskUnits="userSpaceOnUse" x="0" y="0" width="820" height="820" fill="black">
<rect fill="white" width="820" height="820"/>
<path d="M147.186 11.3296C79.6096 16.7696 33.7822 33.4781 17.0823 58.8646C10.739 68.4493 8.27933 86.453 11.2568 101.737C19.4125 144.997 72.8779 199.915 177.349 272.319C193.142 283.328 197.285 286.696 195.861 287.732C143.561 324.387 122.459 341.484 90.8722 373.088C64.8516 399.122 51.3882 415.701 37.9247 437.72C16.8234 472.561 8.6677 503.647 10.3506 542.245C13.0692 602.343 50.3525 651.821 127.379 697.672C146.02 708.811 166.216 719.303 183.692 726.815C189.906 729.406 194.825 732.126 194.437 732.644C193.66 733.809 197.932 732.126 94.7559 773.702C20.966 803.363 4.2662 810.746 14.2343 809.321C23.814 807.767 127.249 770.982 181.232 749.741L210.748 738.084L225.248 743.653C299.814 771.889 403.249 795.203 496.069 804.399C564.422 811.264 646.109 811.912 694.655 805.824C741.259 799.996 775.306 788.209 793.43 771.63C805.599 760.362 809.094 752.849 809.741 735.752C810.518 716.583 807.152 703.89 796.796 686.533C773.493 647.547 714.85 595.22 632.386 539.654C627.597 536.416 623.583 533.437 623.583 532.919C623.583 532.401 629.021 528.386 635.623 523.852C694.525 484.348 751.356 430.466 778.672 388.112C793.171 365.834 804.174 339.153 808.058 317.134C810.647 302.368 810.647 271.412 808.058 256.646C801.844 221.287 779.578 186.963 742.683 156.007C718.475 135.672 675.625 109.767 640.024 93.9653C631.61 90.3387 625.266 86.8416 625.784 86.3235C626.82 85.2873 698.15 56.2741 769.48 27.9085C791.747 19.101 810 11.4591 810 10.8116C810 8.73917 804.174 10.2935 776.859 19.4896C739.317 32.1828 695.043 48.2437 647.921 66.3769L609.602 81.1426L592.514 74.6664C509.533 43.1923 393.411 19.2305 288.293 11.8477C258 9.77536 171.264 9.38675 147.186 11.3296ZM281.82 15.7334C376.582 24.4115 473.156 44.4875 553.807 71.9464C587.206 83.474 592.126 85.4168 591.996 86.9711C591.996 87.6188 586.43 90.4682 579.568 93.1882C470.696 137.097 357.681 190.978 277.936 236.959C256.576 249.264 225.118 268.303 216.315 274.261L210.878 277.888L185.893 260.921C111.326 210.407 59.6733 167.016 35.0767 134.377C25.6264 121.683 15.9172 103.032 13.9754 93.4472C10.0917 74.0188 25.6264 53.1656 54.3656 39.0476C82.1987 25.4476 115.598 18.3239 175.666 13.2725C189.259 12.1068 260.718 13.7906 281.82 15.7334ZM405.191 28.6858C455.032 37.1048 503.319 48.3733 546.428 61.9732C573.743 70.5217 602.871 80.754 604.683 82.4378C605.33 83.0854 603.777 83.8626 601.446 84.3807C598.21 84.8987 594.715 84.2511 588.76 81.7902C542.156 62.7503 463.835 41.1199 395.223 28.5562C381.76 26.0952 370.368 23.7639 369.979 23.3753C369.591 22.9867 371.274 22.9867 373.733 23.3753C376.193 23.8934 390.433 26.2248 405.191 28.6858ZM760.677 28.5562C760.418 28.8152 746.826 34.3847 730.385 40.9904C714.073 47.4665 682.615 60.1598 660.737 69.0969C630.704 81.2721 619.959 85.0282 617.499 84.3807C615.557 83.9921 614.651 83.0854 615.298 82.4378C617.628 80.2359 682.098 55.497 730.385 38.2704C756.794 28.9447 762.101 27.1314 760.677 28.5562ZM603.518 90.2092C605.848 91.1158 605.46 91.5044 600.929 93.4472C501.765 135.931 458.268 155.877 389.009 190.849C328.165 221.416 279.619 248.486 237.416 275.168L222.141 284.753L217.739 282.421C215.279 281.126 213.596 279.701 213.985 279.183C214.632 278.018 256.705 252.113 277.289 240.197C338.651 204.708 424.351 162.224 504.484 127.771C547.463 109.12 596.786 88.9139 598.987 89.0435C600.022 89.0435 602.094 89.5616 603.518 90.2092ZM633.94 94.2243C673.424 111.321 715.886 136.708 742.165 158.986C771.811 184.113 793.947 215.069 802.233 243.176C805.081 252.631 805.081 257.423 802.233 248.616C801.326 245.896 798.09 238.643 795.113 232.426C777.895 197.584 744.366 164.037 696.726 134.247C681.45 124.662 641.06 103.55 623.583 95.9082C613.356 91.5044 613.486 91.6339 615.816 90.2092C619.053 88.1368 621.253 88.6549 633.94 94.2243ZM636.659 105.104C737.893 152.251 796.666 211.184 806.246 275.168C811.165 307.29 792.523 354.177 757.829 397.179C727.796 434.352 682.615 473.986 625.914 512.973L609.473 524.241L601.964 519.19C574.002 500.279 520.537 467.251 394.446 391.091C338.521 357.286 277.289 319.854 258.388 308.067L223.953 286.437L229.908 282.681C285.962 247.062 361.306 206.132 439.109 168.83C507.85 135.931 607.143 92.5406 611.285 93.7063C612.709 94.0949 624.101 99.1463 636.659 105.104ZM35.5945 139.169C45.4332 151.733 72.1011 178.155 90.3544 193.569C114.822 214.033 165.439 251.077 198.062 272.189C203.499 275.686 208.03 278.924 208.03 279.313C208.03 280.867 200.133 284.623 198.58 283.717C194.825 281.385 162.202 258.589 149.127 249.004C81.8103 199.915 38.7015 157.561 22.0017 124.015C14.8816 109.767 14.8816 107.695 22.1311 119.74C25.1086 124.921 31.193 133.729 35.5945 139.169ZM205.052 291.099L209.454 293.819L206.217 295.503C200.133 298.741 168.675 321.149 151.069 334.749C81.2925 389.019 36.7596 441.735 19.6715 490.176C16.4351 499.114 14.3638 502.352 15.7878 496.264C28.2155 443.03 70.0298 388.112 142.266 330.345C158.707 317.134 198.321 288.379 200.004 288.379C200.263 288.379 202.593 289.675 205.052 291.099ZM241.429 300.555C270.816 319.206 304.863 340.059 398.33 396.531C519.76 469.841 598.987 518.931 605.201 524.759C606.495 525.925 605.977 526.702 602.482 528.645L598.081 530.976L553.548 503.129C529.081 487.715 464.223 448.081 409.334 415.053C354.574 382.025 300.073 348.867 288.293 341.484C246.608 315.45 214.503 294.597 214.503 293.56C214.503 292.524 219.681 288.509 221.364 288.509C221.882 288.379 230.944 293.819 241.429 300.555ZM217.739 299.648C243.76 317.393 308.358 357.286 424.221 427.228C544.356 499.761 595.103 531.235 595.103 533.049C594.974 534.214 560.797 555.197 531.022 572.294C467.977 608.431 404.544 640.682 322.598 677.855C292.306 691.714 212.431 726.167 210.878 726.167C209.195 726.167 182.527 714.122 167.899 706.739C99.1574 672.286 49.7052 629.802 28.2155 586.93C16.9529 564.782 11.5157 540.561 13.8459 523.852C22.2606 464.401 66.9229 403.914 151.069 338.116C175.019 319.465 207.771 296.28 210.619 296.28C211.784 296.151 214.891 297.705 217.739 299.648ZM800.809 335.785C789.417 371.922 767.797 404.303 729.737 442.641C700.48 472.173 667.21 499.502 632.775 522.687L620.606 530.976L616.204 528.645C613.874 527.35 612.321 525.925 612.839 525.407C613.486 524.889 621.771 519.06 631.351 512.454C720.934 450.672 780.743 386.169 800.55 329.697C805.599 315.45 805.857 320.113 800.809 335.785ZM606.495 540.95C605.589 541.338 594.844 547.814 582.805 555.327C500.471 606.747 389.139 661.924 258.518 716.065C239.617 723.966 222.917 730.312 221.234 730.312C216.445 730.442 214.762 727.851 218.516 726.297C233.662 719.821 304.863 688.865 315.478 684.073C415.677 639.128 523.902 582.397 586.689 542.115L598.34 534.603L603.259 537.452C606.366 539.136 607.531 540.431 606.495 540.95ZM639.377 547.555C734.527 613.741 788.122 665.292 803.398 705.703C805.599 711.531 804.174 709.977 797.961 699.227C790.064 685.886 780.484 674.099 763.008 656.355C733.621 626.694 700.998 600.919 638.73 558.306L611.932 539.913L615.428 537.193C617.499 535.769 619.7 534.732 620.606 535.121C621.512 535.38 629.927 541.079 639.377 547.555ZM639.636 561.803C744.366 633.429 797.313 685.368 806.116 725.261C808.058 733.939 807.281 739.12 802.103 749.223C790.323 773.055 753.428 791.188 699.315 799.866C674.33 803.881 675.236 803.752 649.475 805.695C626.043 807.378 571.672 806.731 547.204 804.529C462.281 796.887 386.291 783.028 310.818 761.268C276.124 751.295 230.167 735.623 227.06 732.773C226.542 732.255 233.274 729.017 241.947 725.52C318.585 695.341 434.837 641.459 501.248 605.581C535.812 586.93 585.523 557.658 600.929 546.908C604.553 544.447 608.178 542.374 609.214 542.374C610.12 542.245 623.842 551.052 639.636 561.803ZM19.0242 572.683C24.9791 591.463 40.9022 614.907 62.9097 636.926C94.3675 668.4 128.673 691.196 182.139 716.453C195.343 722.541 206.217 727.851 206.476 728.11C206.735 728.24 205.182 729.017 203.111 729.794C199.874 730.96 197.026 729.924 179.42 721.764C123.883 695.989 84.9173 670.084 56.8253 639.905C36.6302 618.404 21.3544 592.111 16.5645 570.61C15.1405 564.134 16.8234 565.559 19.0242 572.683ZM205.311 736.011C205.57 736.27 205.57 736.918 205.052 737.306C202.722 739.767 59.4144 792.872 58.2493 791.706C57.9904 791.577 89.7071 778.495 128.673 762.693C193.401 736.659 202.463 733.421 205.311 736.011ZM234.18 738.602C291.27 760.491 356.904 778.236 430.047 791.577C455.938 796.369 456.585 797.535 430.953 793.519C386.42 786.396 348.748 778.495 310.947 768.133C270.687 757.124 215.797 738.861 215.797 736.529C215.797 735.623 217.869 734.716 221.234 734.068C221.623 734.068 227.448 736.011 234.18 738.602Z"/>
<path d="M760.677 28.5562C760.418 28.8152 746.826 34.3847 730.385 40.9904C714.073 47.4665 682.615 60.1598 660.737 69.0969C630.704 81.2721 619.959 85.0282 617.499 84.3807C615.557 83.9921 614.651 83.0854 615.298 82.4378C617.628 80.2359 682.098 55.497 730.385 38.2704C756.794 28.9447 762.101 27.1314 760.677 28.5562Z"/>
<path d="M603.518 90.2092C605.848 91.1158 605.46 91.5044 600.929 93.4472C501.765 135.931 458.268 155.877 389.009 190.849C328.165 221.416 279.619 248.486 237.416 275.168L222.141 284.753L217.739 282.421C215.279 281.126 213.596 279.701 213.985 279.183C214.632 278.018 256.705 252.113 277.289 240.197C338.651 204.708 424.351 162.224 504.484 127.771C547.463 109.12 596.786 88.9139 598.987 89.0435C600.022 89.0435 602.094 89.5616 603.518 90.2092Z"/>
<path d="M633.94 94.2243C673.424 111.321 715.886 136.708 742.165 158.986C771.811 184.113 793.947 215.069 802.233 243.176C805.081 252.631 805.081 257.423 802.233 248.616C801.326 245.896 798.09 238.643 795.113 232.426C777.895 197.584 744.366 164.037 696.726 134.247C681.45 124.662 641.06 103.55 623.583 95.9082C613.356 91.5044 613.486 91.6339 615.816 90.2092C619.053 88.1368 621.253 88.6549 633.94 94.2243Z"/>
<path d="M405.191 28.6858C455.032 37.1048 503.319 48.3733 546.428 61.9732C573.743 70.5217 602.871 80.754 604.683 82.4378C605.33 83.0854 603.777 83.8626 601.446 84.3807C598.21 84.8987 594.715 84.2511 588.76 81.7902C542.156 62.7503 463.835 41.1199 395.223 28.5562C381.76 26.0952 370.368 23.7639 369.979 23.3753C369.591 22.9867 371.274 22.9867 373.733 23.3753C376.193 23.8934 390.433 26.2248 405.191 28.6858Z"/>
<path d="M35.5945 139.169C45.4332 151.733 72.1011 178.155 90.3544 193.569C114.822 214.033 165.439 251.077 198.062 272.189C203.499 275.686 208.03 278.924 208.03 279.313C208.03 280.867 200.133 284.623 198.58 283.717C194.825 281.385 162.202 258.589 149.127 249.004C81.8103 199.915 38.7015 157.561 22.0017 124.015C14.8816 109.767 14.8816 107.695 22.1311 119.74C25.1086 124.921 31.193 133.729 35.5945 139.169Z"/>
<path d="M205.052 291.099L209.454 293.819L206.217 295.503C200.133 298.741 168.675 321.149 151.069 334.749C81.2925 389.019 36.7596 441.735 19.6715 490.176C16.4351 499.114 14.3638 502.352 15.7878 496.264C28.2155 443.03 70.0298 388.112 142.266 330.345C158.707 317.134 198.321 288.379 200.004 288.379C200.263 288.379 202.593 289.675 205.052 291.099Z"/>
<path d="M241.429 300.555C270.816 319.206 304.863 340.059 398.33 396.531C519.76 469.841 598.987 518.931 605.201 524.759C606.495 525.925 605.977 526.702 602.482 528.645L598.081 530.976L553.548 503.129C529.081 487.715 464.223 448.081 409.334 415.053C354.574 382.025 300.073 348.867 288.293 341.484C246.608 315.45 214.503 294.597 214.503 293.56C214.503 292.524 219.681 288.509 221.364 288.509C221.882 288.379 230.944 293.819 241.429 300.555Z"/>
<path d="M205.311 736.011C205.57 736.27 205.57 736.918 205.052 737.306C202.722 739.767 59.4144 792.872 58.2493 791.706C57.9904 791.577 89.7071 778.495 128.673 762.693C193.401 736.659 202.463 733.421 205.311 736.011Z"/>
<path d="M19.0242 572.683C24.9791 591.463 40.9022 614.907 62.9097 636.926C94.3675 668.4 128.673 691.196 182.139 716.453C195.343 722.541 206.217 727.851 206.476 728.11C206.735 728.24 205.182 729.017 203.111 729.794C199.874 730.96 197.026 729.924 179.42 721.764C123.883 695.989 84.9173 670.084 56.8253 639.905C36.6302 618.404 21.3544 592.111 16.5645 570.61C15.1405 564.134 16.8234 565.559 19.0242 572.683Z"/>
<path d="M606.495 540.95C605.589 541.338 594.844 547.814 582.805 555.327C500.471 606.747 389.139 661.924 258.518 716.065C239.617 723.966 222.917 730.312 221.234 730.312C216.445 730.442 214.762 727.851 218.516 726.297C233.662 719.821 304.863 688.865 315.478 684.073C415.677 639.128 523.902 582.397 586.689 542.115L598.34 534.603L603.259 537.452C606.366 539.136 607.531 540.431 606.495 540.95Z"/>
<path d="M234.18 738.602C291.27 760.491 356.904 778.236 430.047 791.577C455.938 796.369 456.585 797.535 430.953 793.519C386.42 786.396 348.748 778.495 310.947 768.133C270.687 757.124 215.797 738.861 215.797 736.529C215.797 735.623 217.869 734.716 221.234 734.068C221.623 734.068 227.448 736.011 234.18 738.602Z"/>
<path d="M639.377 547.555C734.527 613.741 788.122 665.292 803.398 705.703C805.599 711.531 804.174 709.977 797.961 699.227C790.064 685.886 780.484 674.099 763.008 656.355C733.621 626.694 700.998 600.919 638.73 558.306L611.932 539.913L615.428 537.193C617.499 535.769 619.7 534.732 620.606 535.121C621.512 535.38 629.927 541.079 639.377 547.555Z"/>
<path d="M800.809 335.785C789.417 371.922 767.797 404.303 729.737 442.641C700.48 472.173 667.21 499.502 632.775 522.687L620.606 530.976L616.204 528.645C613.874 527.35 612.321 525.925 612.839 525.407C613.486 524.889 621.771 519.06 631.351 512.454C720.934 450.672 780.743 386.169 800.55 329.697C805.599 315.45 805.857 320.113 800.809 335.785Z"/>
</mask>
<path d="M147.186 11.3296C79.6096 16.7696 33.7822 33.4781 17.0823 58.8646C10.739 68.4493 8.27933 86.453 11.2568 101.737C19.4125 144.997 72.8779 199.915 177.349 272.319C193.142 283.328 197.285 286.696 195.861 287.732C143.561 324.387 122.459 341.484 90.8722 373.088C64.8516 399.122 51.3882 415.701 37.9247 437.72C16.8234 472.561 8.6677 503.647 10.3506 542.245C13.0692 602.343 50.3525 651.821 127.379 697.672C146.02 708.811 166.216 719.303 183.692 726.815C189.906 729.406 194.825 732.126 194.437 732.644C193.66 733.809 197.932 732.126 94.7559 773.702C20.966 803.363 4.2662 810.746 14.2343 809.321C23.814 807.767 127.249 770.982 181.232 749.741L210.748 738.084L225.248 743.653C299.814 771.889 403.249 795.203 496.069 804.399C564.422 811.264 646.109 811.912 694.655 805.824C741.259 799.996 775.306 788.209 793.43 771.63C805.599 760.362 809.094 752.849 809.741 735.752C810.518 716.583 807.152 703.89 796.796 686.533C773.493 647.547 714.85 595.22 632.386 539.654C627.597 536.416 623.583 533.437 623.583 532.919C623.583 532.401 629.021 528.386 635.623 523.852C694.525 484.348 751.356 430.466 778.672 388.112C793.171 365.834 804.174 339.153 808.058 317.134C810.647 302.368 810.647 271.412 808.058 256.646C801.844 221.287 779.578 186.963 742.683 156.007C718.475 135.672 675.625 109.767 640.024 93.9653C631.61 90.3387 625.266 86.8416 625.784 86.3235C626.82 85.2873 698.15 56.2741 769.48 27.9085C791.747 19.101 810 11.4591 810 10.8116C810 8.73917 804.174 10.2935 776.859 19.4896C739.317 32.1828 695.043 48.2437 647.921 66.3769L609.602 81.1426L592.514 74.6664C509.533 43.1923 393.411 19.2305 288.293 11.8477C258 9.77536 171.264 9.38675 147.186 11.3296ZM281.82 15.7334C376.582 24.4115 473.156 44.4875 553.807 71.9464C587.206 83.474 592.126 85.4168 591.996 86.9711C591.996 87.6188 586.43 90.4682 579.568 93.1882C470.696 137.097 357.681 190.978 277.936 236.959C256.576 249.264 225.118 268.303 216.315 274.261L210.878 277.888L185.893 260.921C111.326 210.407 59.6733 167.016 35.0767 134.377C25.6264 121.683 15.9172 103.032 13.9754 93.4472C10.0917 74.0188 25.6264 53.1656 54.3656 39.0476C82.1987 25.4476 115.598 18.3239 175.666 13.2725C189.259 12.1068 260.718 13.7906 281.82 15.7334ZM405.191 28.6858C455.032 37.1048 503.319 48.3733 546.428 61.9732C573.743 70.5217 602.871 80.754 604.683 82.4378C605.33 83.0854 603.777 83.8626 601.446 84.3807C598.21 84.8987 594.715 84.2511 588.76 81.7902C542.156 62.7503 463.835 41.1199 395.223 28.5562C381.76 26.0952 370.368 23.7639 369.979 23.3753C369.591 22.9867 371.274 22.9867 373.733 23.3753C376.193 23.8934 390.433 26.2248 405.191 28.6858ZM760.677 28.5562C760.418 28.8152 746.826 34.3847 730.385 40.9904C714.073 47.4665 682.615 60.1598 660.737 69.0969C630.704 81.2721 619.959 85.0282 617.499 84.3807C615.557 83.9921 614.651 83.0854 615.298 82.4378C617.628 80.2359 682.098 55.497 730.385 38.2704C756.794 28.9447 762.101 27.1314 760.677 28.5562ZM603.518 90.2092C605.848 91.1158 605.46 91.5044 600.929 93.4472C501.765 135.931 458.268 155.877 389.009 190.849C328.165 221.416 279.619 248.486 237.416 275.168L222.141 284.753L217.739 282.421C215.279 281.126 213.596 279.701 213.985 279.183C214.632 278.018 256.705 252.113 277.289 240.197C338.651 204.708 424.351 162.224 504.484 127.771C547.463 109.12 596.786 88.9139 598.987 89.0435C600.022 89.0435 602.094 89.5616 603.518 90.2092ZM633.94 94.2243C673.424 111.321 715.886 136.708 742.165 158.986C771.811 184.113 793.947 215.069 802.233 243.176C805.081 252.631 805.081 257.423 802.233 248.616C801.326 245.896 798.09 238.643 795.113 232.426C777.895 197.584 744.366 164.037 696.726 134.247C681.45 124.662 641.06 103.55 623.583 95.9082C613.356 91.5044 613.486 91.6339 615.816 90.2092C619.053 88.1368 621.253 88.6549 633.94 94.2243ZM636.659 105.104C737.893 152.251 796.666 211.184 806.246 275.168C811.165 307.29 792.523 354.177 757.829 397.179C727.796 434.352 682.615 473.986 625.914 512.973L609.473 524.241L601.964 519.19C574.002 500.279 520.537 467.251 394.446 391.091C338.521 357.286 277.289 319.854 258.388 308.067L223.953 286.437L229.908 282.681C285.962 247.062 361.306 206.132 439.109 168.83C507.85 135.931 607.143 92.5406 611.285 93.7063C612.709 94.0949 624.101 99.1463 636.659 105.104ZM35.5945 139.169C45.4332 151.733 72.1011 178.155 90.3544 193.569C114.822 214.033 165.439 251.077 198.062 272.189C203.499 275.686 208.03 278.924 208.03 279.313C208.03 280.867 200.133 284.623 198.58 283.717C194.825 281.385 162.202 258.589 149.127 249.004C81.8103 199.915 38.7015 157.561 22.0017 124.015C14.8816 109.767 14.8816 107.695 22.1311 119.74C25.1086 124.921 31.193 133.729 35.5945 139.169ZM205.052 291.099L209.454 293.819L206.217 295.503C200.133 298.741 168.675 321.149 151.069 334.749C81.2925 389.019 36.7596 441.735 19.6715 490.176C16.4351 499.114 14.3638 502.352 15.7878 496.264C28.2155 443.03 70.0298 388.112 142.266 330.345C158.707 317.134 198.321 288.379 200.004 288.379C200.263 288.379 202.593 289.675 205.052 291.099ZM241.429 300.555C270.816 319.206 304.863 340.059 398.33 396.531C519.76 469.841 598.987 518.931 605.201 524.759C606.495 525.925 605.977 526.702 602.482 528.645L598.081 530.976L553.548 503.129C529.081 487.715 464.223 448.081 409.334 415.053C354.574 382.025 300.073 348.867 288.293 341.484C246.608 315.45 214.503 294.597 214.503 293.56C214.503 292.524 219.681 288.509 221.364 288.509C221.882 288.379 230.944 293.819 241.429 300.555ZM217.739 299.648C243.76 317.393 308.358 357.286 424.221 427.228C544.356 499.761 595.103 531.235 595.103 533.049C594.974 534.214 560.797 555.197 531.022 572.294C467.977 608.431 404.544 640.682 322.598 677.855C292.306 691.714 212.431 726.167 210.878 726.167C209.195 726.167 182.527 714.122 167.899 706.739C99.1574 672.286 49.7052 629.802 28.2155 586.93C16.9529 564.782 11.5157 540.561 13.8459 523.852C22.2606 464.401 66.9229 403.914 151.069 338.116C175.019 319.465 207.771 296.28 210.619 296.28C211.784 296.151 214.891 297.705 217.739 299.648ZM800.809 335.785C789.417 371.922 767.797 404.303 729.737 442.641C700.48 472.173 667.21 499.502 632.775 522.687L620.606 530.976L616.204 528.645C613.874 527.35 612.321 525.925 612.839 525.407C613.486 524.889 621.771 519.06 631.351 512.454C720.934 450.672 780.743 386.169 800.55 329.697C805.599 315.45 805.857 320.113 800.809 335.785ZM606.495 540.95C605.589 541.338 594.844 547.814 582.805 555.327C500.471 606.747 389.139 661.924 258.518 716.065C239.617 723.966 222.917 730.312 221.234 730.312C216.445 730.442 214.762 727.851 218.516 726.297C233.662 719.821 304.863 688.865 315.478 684.073C415.677 639.128 523.902 582.397 586.689 542.115L598.34 534.603L603.259 537.452C606.366 539.136 607.531 540.431 606.495 540.95ZM639.377 547.555C734.527 613.741 788.122 665.292 803.398 705.703C805.599 711.531 804.174 709.977 797.961 699.227C790.064 685.886 780.484 674.099 763.008 656.355C733.621 626.694 700.998 600.919 638.73 558.306L611.932 539.913L615.428 537.193C617.499 535.769 619.7 534.732 620.606 535.121C621.512 535.38 629.927 541.079 639.377 547.555ZM639.636 561.803C744.366 633.429 797.313 685.368 806.116 725.261C808.058 733.939 807.281 739.12 802.103 749.223C790.323 773.055 753.428 791.188 699.315 799.866C674.33 803.881 675.236 803.752 649.475 805.695C626.043 807.378 571.672 806.731 547.204 804.529C462.281 796.887 386.291 783.028 310.818 761.268C276.124 751.295 230.167 735.623 227.06 732.773C226.542 732.255 233.274 729.017 241.947 725.52C318.585 695.341 434.837 641.459 501.248 605.581C535.812 586.93 585.523 557.658 600.929 546.908C604.553 544.447 608.178 542.374 609.214 542.374C610.12 542.245 623.842 551.052 639.636 561.803ZM19.0242 572.683C24.9791 591.463 40.9022 614.907 62.9097 636.926C94.3675 668.4 128.673 691.196 182.139 716.453C195.343 722.541 206.217 727.851 206.476 728.11C206.735 728.24 205.182 729.017 203.111 729.794C199.874 730.96 197.026 729.924 179.42 721.764C123.883 695.989 84.9173 670.084 56.8253 639.905C36.6302 618.404 21.3544 592.111 16.5645 570.61C15.1405 564.134 16.8234 565.559 19.0242 572.683ZM205.311 736.011C205.57 736.27 205.57 736.918 205.052 737.306C202.722 739.767 59.4144 792.872 58.2493 791.706C57.9904 791.577 89.7071 778.495 128.673 762.693C193.401 736.659 202.463 733.421 205.311 736.011ZM234.18 738.602C291.27 760.491 356.904 778.236 430.047 791.577C455.938 796.369 456.585 797.535 430.953 793.519C386.42 786.396 348.748 778.495 310.947 768.133C270.687 757.124 215.797 738.861 215.797 736.529C215.797 735.623 217.869 734.716 221.234 734.068C221.623 734.068 227.448 736.011 234.18 738.602Z" fill="black"/>
<path d="M760.677 28.5562C760.418 28.8152 746.826 34.3847 730.385 40.9904C714.073 47.4665 682.615 60.1598 660.737 69.0969C630.704 81.2721 619.959 85.0282 617.499 84.3807C615.557 83.9921 614.651 83.0854 615.298 82.4378C617.628 80.2359 682.098 55.497 730.385 38.2704C756.794 28.9447 762.101 27.1314 760.677 28.5562Z" fill="black"/>
<path d="M603.518 90.2092C605.848 91.1158 605.46 91.5044 600.929 93.4472C501.765 135.931 458.268 155.877 389.009 190.849C328.165 221.416 279.619 248.486 237.416 275.168L222.141 284.753L217.739 282.421C215.279 281.126 213.596 279.701 213.985 279.183C214.632 278.018 256.705 252.113 277.289 240.197C338.651 204.708 424.351 162.224 504.484 127.771C547.463 109.12 596.786 88.9139 598.987 89.0435C600.022 89.0435 602.094 89.5616 603.518 90.2092Z" fill="black"/>
<path d="M633.94 94.2243C673.424 111.321 715.886 136.708 742.165 158.986C771.811 184.113 793.947 215.069 802.233 243.176C805.081 252.631 805.081 257.423 802.233 248.616C801.326 245.896 798.09 238.643 795.113 232.426C777.895 197.584 744.366 164.037 696.726 134.247C681.45 124.662 641.06 103.55 623.583 95.9082C613.356 91.5044 613.486 91.6339 615.816 90.2092C619.053 88.1368 621.253 88.6549 633.94 94.2243Z" fill="black"/>
<path d="M405.191 28.6858C455.032 37.1048 503.319 48.3733 546.428 61.9732C573.743 70.5217 602.871 80.754 604.683 82.4378C605.33 83.0854 603.777 83.8626 601.446 84.3807C598.21 84.8987 594.715 84.2511 588.76 81.7902C542.156 62.7503 463.835 41.1199 395.223 28.5562C381.76 26.0952 370.368 23.7639 369.979 23.3753C369.591 22.9867 371.274 22.9867 373.733 23.3753C376.193 23.8934 390.433 26.2248 405.191 28.6858Z" fill="black"/>
<path d="M35.5945 139.169C45.4332 151.733 72.1011 178.155 90.3544 193.569C114.822 214.033 165.439 251.077 198.062 272.189C203.499 275.686 208.03 278.924 208.03 279.313C208.03 280.867 200.133 284.623 198.58 283.717C194.825 281.385 162.202 258.589 149.127 249.004C81.8103 199.915 38.7015 157.561 22.0017 124.015C14.8816 109.767 14.8816 107.695 22.1311 119.74C25.1086 124.921 31.193 133.729 35.5945 139.169Z" fill="black"/>
<path d="M205.052 291.099L209.454 293.819L206.217 295.503C200.133 298.741 168.675 321.149 151.069 334.749C81.2925 389.019 36.7596 441.735 19.6715 490.176C16.4351 499.114 14.3638 502.352 15.7878 496.264C28.2155 443.03 70.0298 388.112 142.266 330.345C158.707 317.134 198.321 288.379 200.004 288.379C200.263 288.379 202.593 289.675 205.052 291.099Z" fill="black"/>
<path d="M241.429 300.555C270.816 319.206 304.863 340.059 398.33 396.531C519.76 469.841 598.987 518.931 605.201 524.759C606.495 525.925 605.977 526.702 602.482 528.645L598.081 530.976L553.548 503.129C529.081 487.715 464.223 448.081 409.334 415.053C354.574 382.025 300.073 348.867 288.293 341.484C246.608 315.45 214.503 294.597 214.503 293.56C214.503 292.524 219.681 288.509 221.364 288.509C221.882 288.379 230.944 293.819 241.429 300.555Z" fill="black"/>
<path d="M205.311 736.011C205.57 736.27 205.57 736.918 205.052 737.306C202.722 739.767 59.4144 792.872 58.2493 791.706C57.9904 791.577 89.7071 778.495 128.673 762.693C193.401 736.659 202.463 733.421 205.311 736.011Z" fill="black"/>
<path d="M19.0242 572.683C24.9791 591.463 40.9022 614.907 62.9097 636.926C94.3675 668.4 128.673 691.196 182.139 716.453C195.343 722.541 206.217 727.851 206.476 728.11C206.735 728.24 205.182 729.017 203.111 729.794C199.874 730.96 197.026 729.924 179.42 721.764C123.883 695.989 84.9173 670.084 56.8253 639.905C36.6302 618.404 21.3544 592.111 16.5645 570.61C15.1405 564.134 16.8234 565.559 19.0242 572.683Z" fill="black"/>
<path d="M606.495 540.95C605.589 541.338 594.844 547.814 582.805 555.327C500.471 606.747 389.139 661.924 258.518 716.065C239.617 723.966 222.917 730.312 221.234 730.312C216.445 730.442 214.762 727.851 218.516 726.297C233.662 719.821 304.863 688.865 315.478 684.073C415.677 639.128 523.902 582.397 586.689 542.115L598.34 534.603L603.259 537.452C606.366 539.136 607.531 540.431 606.495 540.95Z" fill="black"/>
<path d="M234.18 738.602C291.27 760.491 356.904 778.236 430.047 791.577C455.938 796.369 456.585 797.535 430.953 793.519C386.42 786.396 348.748 778.495 310.947 768.133C270.687 757.124 215.797 738.861 215.797 736.529C215.797 735.623 217.869 734.716 221.234 734.068C221.623 734.068 227.448 736.011 234.18 738.602Z" fill="black"/>
<path d="M639.377 547.555C734.527 613.741 788.122 665.292 803.398 705.703C805.599 711.531 804.174 709.977 797.961 699.227C790.064 685.886 780.484 674.099 763.008 656.355C733.621 626.694 700.998 600.919 638.73 558.306L611.932 539.913L615.428 537.193C617.499 535.769 619.7 534.732 620.606 535.121C621.512 535.38 629.927 541.079 639.377 547.555Z" fill="black"/>
<path d="M800.809 335.785C789.417 371.922 767.797 404.303 729.737 442.641C700.48 472.173 667.21 499.502 632.775 522.687L620.606 530.976L616.204 528.645C613.874 527.35 612.321 525.925 612.839 525.407C613.486 524.889 621.771 519.06 631.351 512.454C720.934 450.672 780.743 386.169 800.55 329.697C805.599 315.45 805.857 320.113 800.809 335.785Z" fill="black"/>
<path d="M147.186 11.3296C79.6096 16.7696 33.7822 33.4781 17.0823 58.8646C10.739 68.4493 8.27933 86.453 11.2568 101.737C19.4125 144.997 72.8779 199.915 177.349 272.319C193.142 283.328 197.285 286.696 195.861 287.732C143.561 324.387 122.459 341.484 90.8722 373.088C64.8516 399.122 51.3882 415.701 37.9247 437.72C16.8234 472.561 8.6677 503.647 10.3506 542.245C13.0692 602.343 50.3525 651.821 127.379 697.672C146.02 708.811 166.216 719.303 183.692 726.815C189.906 729.406 194.825 732.126 194.437 732.644C193.66 733.809 197.932 732.126 94.7559 773.702C20.966 803.363 4.2662 810.746 14.2343 809.321C23.814 807.767 127.249 770.982 181.232 749.741L210.748 738.084L225.248 743.653C299.814 771.889 403.249 795.203 496.069 804.399C564.422 811.264 646.109 811.912 694.655 805.824C741.259 799.996 775.306 788.209 793.43 771.63C805.599 760.362 809.094 752.849 809.741 735.752C810.518 716.583 807.152 703.89 796.796 686.533C773.493 647.547 714.85 595.22 632.386 539.654C627.597 536.416 623.583 533.437 623.583 532.919C623.583 532.401 629.021 528.386 635.623 523.852C694.525 484.348 751.356 430.466 778.672 388.112C793.171 365.834 804.174 339.153 808.058 317.134C810.647 302.368 810.647 271.412 808.058 256.646C801.844 221.287 779.578 186.963 742.683 156.007C718.475 135.672 675.625 109.767 640.024 93.9653C631.61 90.3387 625.266 86.8416 625.784 86.3235C626.82 85.2873 698.15 56.2741 769.48 27.9085C791.747 19.101 810 11.4591 810 10.8116C810 8.73917 804.174 10.2935 776.859 19.4896C739.317 32.1828 695.043 48.2437 647.921 66.3769L609.602 81.1426L592.514 74.6664C509.533 43.1923 393.411 19.2305 288.293 11.8477C258 9.77536 171.264 9.38675 147.186 11.3296ZM281.82 15.7334C376.582 24.4115 473.156 44.4875 553.807 71.9464C587.206 83.474 592.126 85.4168 591.996 86.9711C591.996 87.6188 586.43 90.4682 579.568 93.1882C470.696 137.097 357.681 190.978 277.936 236.959C256.576 249.264 225.118 268.303 216.315 274.261L210.878 277.888L185.893 260.921C111.326 210.407 59.6733 167.016 35.0767 134.377C25.6264 121.683 15.9172 103.032 13.9754 93.4472C10.0917 74.0188 25.6264 53.1656 54.3656 39.0476C82.1987 25.4476 115.598 18.3239 175.666 13.2725C189.259 12.1068 260.718 13.7906 281.82 15.7334ZM405.191 28.6858C455.032 37.1048 503.319 48.3733 546.428 61.9732C573.743 70.5217 602.871 80.754 604.683 82.4378C605.33 83.0854 603.777 83.8626 601.446 84.3807C598.21 84.8987 594.715 84.2511 588.76 81.7902C542.156 62.7503 463.835 41.1199 395.223 28.5562C381.76 26.0952 370.368 23.7639 369.979 23.3753C369.591 22.9867 371.274 22.9867 373.733 23.3753C376.193 23.8934 390.433 26.2248 405.191 28.6858ZM760.677 28.5562C760.418 28.8152 746.826 34.3847 730.385 40.9904C714.073 47.4665 682.615 60.1598 660.737 69.0969C630.704 81.2721 619.959 85.0282 617.499 84.3807C615.557 83.9921 614.651 83.0854 615.298 82.4378C617.628 80.2359 682.098 55.497 730.385 38.2704C756.794 28.9447 762.101 27.1314 760.677 28.5562ZM603.518 90.2092C605.848 91.1158 605.46 91.5044 600.929 93.4472C501.765 135.931 458.268 155.877 389.009 190.849C328.165 221.416 279.619 248.486 237.416 275.168L222.141 284.753L217.739 282.421C215.279 281.126 213.596 279.701 213.985 279.183C214.632 278.018 256.705 252.113 277.289 240.197C338.651 204.708 424.351 162.224 504.484 127.771C547.463 109.12 596.786 88.9139 598.987 89.0435C600.022 89.0435 602.094 89.5616 603.518 90.2092ZM633.94 94.2243C673.424 111.321 715.886 136.708 742.165 158.986C771.811 184.113 793.947 215.069 802.233 243.176C805.081 252.631 805.081 257.423 802.233 248.616C801.326 245.896 798.09 238.643 795.113 232.426C777.895 197.584 744.366 164.037 696.726 134.247C681.45 124.662 641.06 103.55 623.583 95.9082C613.356 91.5044 613.486 91.6339 615.816 90.2092C619.053 88.1368 621.253 88.6549 633.94 94.2243ZM636.659 105.104C737.893 152.251 796.666 211.184 806.246 275.168C811.165 307.29 792.523 354.177 757.829 397.179C727.796 434.352 682.615 473.986 625.914 512.973L609.473 524.241L601.964 519.19C574.002 500.279 520.537 467.251 394.446 391.091C338.521 357.286 277.289 319.854 258.388 308.067L223.953 286.437L229.908 282.681C285.962 247.062 361.306 206.132 439.109 168.83C507.85 135.931 607.143 92.5406 611.285 93.7063C612.709 94.0949 624.101 99.1463 636.659 105.104ZM35.5945 139.169C45.4332 151.733 72.1011 178.155 90.3544 193.569C114.822 214.033 165.439 251.077 198.062 272.189C203.499 275.686 208.03 278.924 208.03 279.313C208.03 280.867 200.133 284.623 198.58 283.717C194.825 281.385 162.202 258.589 149.127 249.004C81.8103 199.915 38.7015 157.561 22.0017 124.015C14.8816 109.767 14.8816 107.695 22.1311 119.74C25.1086 124.921 31.193 133.729 35.5945 139.169ZM205.052 291.099L209.454 293.819L206.217 295.503C200.133 298.741 168.675 321.149 151.069 334.749C81.2925 389.019 36.7596 441.735 19.6715 490.176C16.4351 499.114 14.3638 502.352 15.7878 496.264C28.2155 443.03 70.0298 388.112 142.266 330.345C158.707 317.134 198.321 288.379 200.004 288.379C200.263 288.379 202.593 289.675 205.052 291.099ZM241.429 300.555C270.816 319.206 304.863 340.059 398.33 396.531C519.76 469.841 598.987 518.931 605.201 524.759C606.495 525.925 605.977 526.702 602.482 528.645L598.081 530.976L553.548 503.129C529.081 487.715 464.223 448.081 409.334 415.053C354.574 382.025 300.073 348.867 288.293 341.484C246.608 315.45 214.503 294.597 214.503 293.56C214.503 292.524 219.681 288.509 221.364 288.509C221.882 288.379 230.944 293.819 241.429 300.555ZM217.739 299.648C243.76 317.393 308.358 357.286 424.221 427.228C544.356 499.761 595.103 531.235 595.103 533.049C594.974 534.214 560.797 555.197 531.022 572.294C467.977 608.431 404.544 640.682 322.598 677.855C292.306 691.714 212.431 726.167 210.878 726.167C209.195 726.167 182.527 714.122 167.899 706.739C99.1574 672.286 49.7052 629.802 28.2155 586.93C16.9529 564.782 11.5157 540.561 13.8459 523.852C22.2606 464.401 66.9229 403.914 151.069 338.116C175.019 319.465 207.771 296.28 210.619 296.28C211.784 296.151 214.891 297.705 217.739 299.648ZM800.809 335.785C789.417 371.922 767.797 404.303 729.737 442.641C700.48 472.173 667.21 499.502 632.775 522.687L620.606 530.976L616.204 528.645C613.874 527.35 612.321 525.925 612.839 525.407C613.486 524.889 621.771 519.06 631.351 512.454C720.934 450.672 780.743 386.169 800.55 329.697C805.599 315.45 805.857 320.113 800.809 335.785ZM606.495 540.95C605.589 541.338 594.844 547.814 582.805 555.327C500.471 606.747 389.139 661.924 258.518 716.065C239.617 723.966 222.917 730.312 221.234 730.312C216.445 730.442 214.762 727.851 218.516 726.297C233.662 719.821 304.863 688.865 315.478 684.073C415.677 639.128 523.902 582.397 586.689 542.115L598.34 534.603L603.259 537.452C606.366 539.136 607.531 540.431 606.495 540.95ZM639.377 547.555C734.527 613.741 788.122 665.292 803.398 705.703C805.599 711.531 804.174 709.977 797.961 699.227C790.064 685.886 780.484 674.099 763.008 656.355C733.621 626.694 700.998 600.919 638.73 558.306L611.932 539.913L615.428 537.193C617.499 535.769 619.7 534.732 620.606 535.121C621.512 535.38 629.927 541.079 639.377 547.555ZM639.636 561.803C744.366 633.429 797.313 685.368 806.116 725.261C808.058 733.939 807.281 739.12 802.103 749.223C790.323 773.055 753.428 791.188 699.315 799.866C674.33 803.881 675.236 803.752 649.475 805.695C626.043 807.378 571.672 806.731 547.204 804.529C462.281 796.887 386.291 783.028 310.818 761.268C276.124 751.295 230.167 735.623 227.06 732.773C226.542 732.255 233.274 729.017 241.947 725.52C318.585 695.341 434.837 641.459 501.248 605.581C535.812 586.93 585.523 557.658 600.929 546.908C604.553 544.447 608.178 542.374 609.214 542.374C610.12 542.245 623.842 551.052 639.636 561.803ZM19.0242 572.683C24.9791 591.463 40.9022 614.907 62.9097 636.926C94.3675 668.4 128.673 691.196 182.139 716.453C195.343 722.541 206.217 727.851 206.476 728.11C206.735 728.24 205.182 729.017 203.111 729.794C199.874 730.96 197.026 729.924 179.42 721.764C123.883 695.989 84.9173 670.084 56.8253 639.905C36.6302 618.404 21.3544 592.111 16.5645 570.61C15.1405 564.134 16.8234 565.559 19.0242 572.683ZM205.311 736.011C205.57 736.27 205.57 736.918 205.052 737.306C202.722 739.767 59.4144 792.872 58.2493 791.706C57.9904 791.577 89.7071 778.495 128.673 762.693C193.401 736.659 202.463 733.421 205.311 736.011ZM234.18 738.602C291.27 760.491 356.904 778.236 430.047 791.577C455.938 796.369 456.585 797.535 430.953 793.519C386.42 786.396 348.748 778.495 310.947 768.133C270.687 757.124 215.797 738.861 215.797 736.529C215.797 735.623 217.869 734.716 221.234 734.068C221.623 734.068 227.448 736.011 234.18 738.602Z" stroke="black" stroke-width="20" mask="url(#path-1-outside-1_10359_191)"/>
<path d="M760.677 28.5562C760.418 28.8152 746.826 34.3847 730.385 40.9904C714.073 47.4665 682.615 60.1598 660.737 69.0969C630.704 81.2721 619.959 85.0282 617.499 84.3807C615.557 83.9921 614.651 83.0854 615.298 82.4378C617.628 80.2359 682.098 55.497 730.385 38.2704C756.794 28.9447 762.101 27.1314 760.677 28.5562Z" stroke="black" stroke-width="20" mask="url(#path-1-outside-1_10359_191)"/>
<path d="M603.518 90.2092C605.848 91.1158 605.46 91.5044 600.929 93.4472C501.765 135.931 458.268 155.877 389.009 190.849C328.165 221.416 279.619 248.486 237.416 275.168L222.141 284.753L217.739 282.421C215.279 281.126 213.596 279.701 213.985 279.183C214.632 278.018 256.705 252.113 277.289 240.197C338.651 204.708 424.351 162.224 504.484 127.771C547.463 109.12 596.786 88.9139 598.987 89.0435C600.022 89.0435 602.094 89.5616 603.518 90.2092Z" stroke="black" stroke-width="20" mask="url(#path-1-outside-1_10359_191)"/>
<path d="M633.94 94.2243C673.424 111.321 715.886 136.708 742.165 158.986C771.811 184.113 793.947 215.069 802.233 243.176C805.081 252.631 805.081 257.423 802.233 248.616C801.326 245.896 798.09 238.643 795.113 232.426C777.895 197.584 744.366 164.037 696.726 134.247C681.45 124.662 641.06 103.55 623.583 95.9082C613.356 91.5044 613.486 91.6339 615.816 90.2092C619.053 88.1368 621.253 88.6549 633.94 94.2243Z" stroke="black" stroke-width="20" mask="url(#path-1-outside-1_10359_191)"/>
<path d="M405.191 28.6858C455.032 37.1048 503.319 48.3733 546.428 61.9732C573.743 70.5217 602.871 80.754 604.683 82.4378C605.33 83.0854 603.777 83.8626 601.446 84.3807C598.21 84.8987 594.715 84.2511 588.76 81.7902C542.156 62.7503 463.835 41.1199 395.223 28.5562C381.76 26.0952 370.368 23.7639 369.979 23.3753C369.591 22.9867 371.274 22.9867 373.733 23.3753C376.193 23.8934 390.433 26.2248 405.191 28.6858Z" stroke="black" stroke-width="20" mask="url(#path-1-outside-1_10359_191)"/>
<path d="M35.5945 139.169C45.4332 151.733 72.1011 178.155 90.3544 193.569C114.822 214.033 165.439 251.077 198.062 272.189C203.499 275.686 208.03 278.924 208.03 279.313C208.03 280.867 200.133 284.623 198.58 283.717C194.825 281.385 162.202 258.589 149.127 249.004C81.8103 199.915 38.7015 157.561 22.0017 124.015C14.8816 109.767 14.8816 107.695 22.1311 119.74C25.1086 124.921 31.193 133.729 35.5945 139.169Z" stroke="black" stroke-width="20" mask="url(#path-1-outside-1_10359_191)"/>
<path d="M205.052 291.099L209.454 293.819L206.217 295.503C200.133 298.741 168.675 321.149 151.069 334.749C81.2925 389.019 36.7596 441.735 19.6715 490.176C16.4351 499.114 14.3638 502.352 15.7878 496.264C28.2155 443.03 70.0298 388.112 142.266 330.345C158.707 317.134 198.321 288.379 200.004 288.379C200.263 288.379 202.593 289.675 205.052 291.099Z" stroke="black" stroke-width="20" mask="url(#path-1-outside-1_10359_191)"/>
<path d="M241.429 300.555C270.816 319.206 304.863 340.059 398.33 396.531C519.76 469.841 598.987 518.931 605.201 524.759C606.495 525.925 605.977 526.702 602.482 528.645L598.081 530.976L553.548 503.129C529.081 487.715 464.223 448.081 409.334 415.053C354.574 382.025 300.073 348.867 288.293 341.484C246.608 315.45 214.503 294.597 214.503 293.56C214.503 292.524 219.681 288.509 221.364 288.509C221.882 288.379 230.944 293.819 241.429 300.555Z" stroke="black" stroke-width="20" mask="url(#path-1-outside-1_10359_191)"/>
<path d="M205.311 736.011C205.57 736.27 205.57 736.918 205.052 737.306C202.722 739.767 59.4144 792.872 58.2493 791.706C57.9904 791.577 89.7071 778.495 128.673 762.693C193.401 736.659 202.463 733.421 205.311 736.011Z" stroke="black" stroke-width="20" mask="url(#path-1-outside-1_10359_191)"/>
<path d="M19.0242 572.683C24.9791 591.463 40.9022 614.907 62.9097 636.926C94.3675 668.4 128.673 691.196 182.139 716.453C195.343 722.541 206.217 727.851 206.476 728.11C206.735 728.24 205.182 729.017 203.111 729.794C199.874 730.96 197.026 729.924 179.42 721.764C123.883 695.989 84.9173 670.084 56.8253 639.905C36.6302 618.404 21.3544 592.111 16.5645 570.61C15.1405 564.134 16.8234 565.559 19.0242 572.683Z" stroke="black" stroke-width="20" mask="url(#path-1-outside-1_10359_191)"/>
<path d="M606.495 540.95C605.589 541.338 594.844 547.814 582.805 555.327C500.471 606.747 389.139 661.924 258.518 716.065C239.617 723.966 222.917 730.312 221.234 730.312C216.445 730.442 214.762 727.851 218.516 726.297C233.662 719.821 304.863 688.865 315.478 684.073C415.677 639.128 523.902 582.397 586.689 542.115L598.34 534.603L603.259 537.452C606.366 539.136 607.531 540.431 606.495 540.95Z" stroke="black" stroke-width="20" mask="url(#path-1-outside-1_10359_191)"/>
<path d="M234.18 738.602C291.27 760.491 356.904 778.236 430.047 791.577C455.938 796.369 456.585 797.535 430.953 793.519C386.42 786.396 348.748 778.495 310.947 768.133C270.687 757.124 215.797 738.861 215.797 736.529C215.797 735.623 217.869 734.716 221.234 734.068C221.623 734.068 227.448 736.011 234.18 738.602Z" stroke="black" stroke-width="20" mask="url(#path-1-outside-1_10359_191)"/>
<path d="M639.377 547.555C734.527 613.741 788.122 665.292 803.398 705.703C805.599 711.531 804.174 709.977 797.961 699.227C790.064 685.886 780.484 674.099 763.008 656.355C733.621 626.694 700.998 600.919 638.73 558.306L611.932 539.913L615.428 537.193C617.499 535.769 619.7 534.732 620.606 535.121C621.512 535.38 629.927 541.079 639.377 547.555Z" stroke="black" stroke-width="20" mask="url(#path-1-outside-1_10359_191)"/>
<path d="M800.809 335.785C789.417 371.922 767.797 404.303 729.737 442.641C700.48 472.173 667.21 499.502 632.775 522.687L620.606 530.976L616.204 528.645C613.874 527.35 612.321 525.925 612.839 525.407C613.486 524.889 621.771 519.06 631.351 512.454C720.934 450.672 780.743 386.169 800.55 329.697C805.599 315.45 805.857 320.113 800.809 335.785Z" stroke="black" stroke-width="20" mask="url(#path-1-outside-1_10359_191)"/>
</svg>
