<svg width="810" height="810" viewBox="0 0 810 810" fill="none" xmlns="http://www.w3.org/2000/svg">
<mask id="path-1-outside-1_10359_189" maskUnits="userSpaceOnUse" x="0" y="0" width="810" height="810" fill="black">
<rect fill="white" width="810" height="810"/>
<path d="M142.186 6.32962C74.6096 11.7696 28.7822 28.4781 12.0823 53.8646C5.73899 63.4493 3.27933 81.453 6.25682 96.7367C14.4125 139.997 67.8779 194.915 172.349 267.319C188.142 278.328 192.285 281.696 190.861 282.732C138.561 319.387 117.459 336.484 85.8722 368.088C59.8516 394.122 46.3882 410.701 32.9247 432.72C11.8234 467.561 3.6677 498.647 5.35063 537.245C8.0692 597.343 45.3525 646.821 122.379 692.672C141.02 703.811 161.216 714.303 178.692 721.815C184.906 724.406 189.825 727.125 189.437 727.644C188.66 728.809 192.932 727.126 89.7559 768.702C15.966 798.363 -0.733804 805.746 9.2343 804.321C18.814 802.767 122.249 765.982 176.232 744.741L205.748 733.084L220.248 738.653C294.814 766.889 398.249 790.203 491.069 799.399C559.422 806.264 641.109 806.912 689.655 800.824C736.259 794.996 770.306 783.209 788.43 766.63C800.599 755.362 804.094 747.849 804.741 730.752C805.518 711.583 802.152 698.89 791.796 681.533C768.493 642.547 709.85 590.22 627.386 534.654C622.597 531.416 618.583 528.437 618.583 527.919C618.583 527.401 624.021 523.386 630.623 518.852C689.525 479.348 746.356 425.466 773.672 383.112C788.171 360.834 799.174 334.153 803.058 312.134C805.647 297.368 805.647 266.412 803.058 251.646C796.844 216.287 774.578 181.963 737.683 151.007C713.475 130.672 670.625 104.767 635.024 88.9653C626.61 85.3387 620.266 81.8416 620.784 81.3235C621.82 80.2873 693.15 51.2741 764.48 22.9085C786.747 14.101 805 6.45914 805 5.81156C805 3.73917 799.174 5.29349 771.859 14.4896C734.317 27.1828 690.043 43.2437 642.921 61.3769L604.602 76.1426L587.514 69.6664C504.533 38.1923 388.411 14.2305 283.293 6.84769C253 4.77536 166.264 4.38675 142.186 6.32962ZM276.82 10.7334C371.582 19.4115 468.156 39.4875 548.807 66.9464C582.206 78.474 587.126 80.4168 586.996 81.9711C586.996 82.6188 581.43 85.4682 574.568 88.1882C465.696 132.097 352.681 185.978 272.936 231.959C251.576 244.264 220.118 263.303 211.315 269.261L205.878 272.888L180.893 255.921C106.326 205.407 54.6733 162.016 30.0767 129.377C20.6264 116.683 10.9172 98.032 8.97539 88.4472C5.09171 69.0188 20.6264 48.1656 49.3656 34.0476C77.1987 20.4476 110.598 13.3239 170.666 8.2725C184.259 7.10678 255.718 8.79056 276.82 10.7334ZM400.191 23.6858C450.032 32.1048 498.319 43.3733 541.428 56.9732C568.743 65.5217 597.871 75.754 599.683 77.4378C600.33 78.0854 598.777 78.8626 596.446 79.3807C593.21 79.8987 589.715 79.2511 583.76 76.7902C537.156 57.7503 458.835 36.1199 390.223 23.5562C376.76 21.0952 365.368 18.7639 364.979 18.3753C364.591 17.9867 366.274 17.9867 368.733 18.3753C371.193 18.8934 385.433 21.2248 400.191 23.6858ZM755.677 23.5562C755.418 23.8152 741.826 29.3847 725.385 35.9904C709.073 42.4665 677.615 55.1598 655.737 64.0969C625.704 76.2721 614.959 80.0282 612.499 79.3807C610.557 78.9921 609.651 78.0854 610.298 77.4378C612.628 75.2359 677.098 50.497 725.385 33.2704C751.794 23.9447 757.101 22.1314 755.677 23.5562ZM598.518 85.2092C600.848 86.1158 600.46 86.5044 595.929 88.4472C496.765 130.931 453.268 150.877 384.009 185.849C323.165 216.416 274.619 243.486 232.416 270.168L217.141 279.753L212.739 277.421C210.279 276.126 208.596 274.701 208.985 274.183C209.632 273.018 251.705 247.113 272.289 235.197C333.651 199.708 419.351 157.224 499.484 122.771C542.463 104.12 591.786 83.9139 593.987 84.0435C595.022 84.0435 597.094 84.5616 598.518 85.2092ZM628.94 89.2243C668.424 106.321 710.886 131.708 737.165 153.986C766.811 179.113 788.947 210.069 797.233 238.176C800.081 247.631 800.081 252.423 797.233 243.616C796.326 240.896 793.09 233.643 790.113 227.426C772.895 192.584 739.366 159.037 691.726 129.247C676.45 119.662 636.06 98.55 618.583 90.9082C608.356 86.5044 608.486 86.6339 610.816 85.2092C614.053 83.1368 616.253 83.6549 628.94 89.2243ZM631.659 100.104C732.893 147.251 791.666 206.184 801.246 270.168C806.165 302.29 787.523 349.177 752.829 392.179C722.796 429.352 677.615 468.986 620.914 507.973L604.473 519.241L596.964 514.19C569.002 495.279 515.537 462.251 389.446 386.091C333.521 352.286 272.289 314.854 253.388 303.067L218.953 281.437L224.908 277.681C280.962 242.062 356.306 201.132 434.109 163.83C502.85 130.931 602.143 87.5406 606.285 88.7063C607.709 89.0949 619.101 94.1463 631.659 100.104ZM30.5945 134.169C40.4332 146.733 67.1011 173.155 85.3544 188.569C109.822 209.033 160.439 246.077 193.062 267.189C198.499 270.686 203.03 273.924 203.03 274.313C203.03 275.867 195.133 279.623 193.58 278.717C189.825 276.385 157.202 253.589 144.127 244.004C76.8103 194.915 33.7015 152.561 17.0017 119.015C9.88159 104.767 9.88159 102.695 17.1311 114.74C20.1086 119.921 26.193 128.729 30.5945 134.169ZM200.052 286.099L204.454 288.819L201.217 290.503C195.133 293.741 163.675 316.149 146.069 329.749C76.2925 384.019 31.7596 436.735 14.6715 485.176C11.4351 494.114 9.36376 497.352 10.7878 491.264C23.2155 438.03 65.0298 383.112 137.266 325.345C153.707 312.134 193.321 283.379 195.004 283.379C195.263 283.379 197.593 284.675 200.052 286.099ZM236.429 295.555C265.816 314.206 299.863 335.059 393.33 391.531C514.76 464.841 593.987 513.931 600.201 519.759C601.495 520.925 600.977 521.702 597.482 523.645L593.081 525.976L548.548 498.129C524.081 482.715 459.223 443.081 404.334 410.053C349.574 377.025 295.073 343.867 283.293 336.484C241.608 310.45 209.503 289.597 209.503 288.56C209.503 287.524 214.681 283.509 216.364 283.509C216.882 283.379 225.944 288.819 236.429 295.555ZM212.739 294.648C238.76 312.393 303.358 352.286 419.221 422.228C539.356 494.761 590.103 526.235 590.103 528.049C589.974 529.214 555.797 550.197 526.022 567.294C462.977 603.431 399.544 635.682 317.598 672.855C287.306 686.714 207.431 721.167 205.878 721.167C204.195 721.167 177.527 709.122 162.899 701.739C94.1574 667.286 44.7052 624.802 23.2155 581.93C11.9529 559.782 6.51573 535.561 8.84594 518.852C17.2606 459.401 61.9229 398.914 146.069 333.116C170.019 314.465 202.771 291.28 205.619 291.28C206.784 291.151 209.891 292.705 212.739 294.648ZM795.809 330.785C784.417 366.922 762.797 399.303 724.737 437.641C695.48 467.173 662.21 494.502 627.775 517.687L615.606 525.976L611.204 523.645C608.874 522.35 607.321 520.925 607.839 520.407C608.486 519.889 616.771 514.06 626.351 507.454C715.934 445.672 775.743 381.169 795.55 324.697C800.599 310.45 800.857 315.113 795.809 330.785ZM601.495 535.95C600.589 536.338 589.844 542.814 577.805 550.327C495.471 601.747 384.139 656.924 253.518 711.065C234.617 718.966 217.917 725.312 216.234 725.312C211.445 725.442 209.762 722.851 213.516 721.297C228.662 714.821 299.863 683.865 310.478 679.073C410.677 634.128 518.902 577.397 581.689 537.115L593.34 529.603L598.259 532.452C601.366 534.136 602.531 535.431 601.495 535.95ZM634.377 542.555C729.527 608.741 783.122 660.292 798.398 700.703C800.599 706.531 799.174 704.977 792.961 694.227C785.064 680.886 775.484 669.099 758.008 651.355C728.621 621.694 695.998 595.919 633.73 553.306L606.932 534.913L610.428 532.193C612.499 530.769 614.7 529.732 615.606 530.121C616.512 530.38 624.927 536.079 634.377 542.555ZM634.636 556.803C739.366 628.429 792.313 680.368 801.116 720.261C803.058 728.939 802.281 734.12 797.103 744.223C785.323 768.055 748.428 786.188 694.315 794.866C669.33 798.881 670.236 798.752 644.475 800.695C621.043 802.378 566.672 801.731 542.204 799.529C457.281 791.887 381.291 778.028 305.818 756.268C271.124 746.295 225.167 730.623 222.06 727.773C221.542 727.255 228.274 724.017 236.947 720.52C313.585 690.341 429.837 636.459 496.248 600.581C530.812 581.93 580.523 552.658 595.929 541.908C599.553 539.447 603.178 537.374 604.214 537.374C605.12 537.245 618.842 546.052 634.636 556.803ZM14.0242 567.683C19.9791 586.464 35.9022 609.907 57.9097 631.926C89.3675 663.4 123.673 686.196 177.139 711.453C190.343 717.541 201.217 722.851 201.476 723.11C201.735 723.24 200.182 724.017 198.111 724.794C194.874 725.96 192.026 724.924 174.42 716.764C118.883 690.989 79.9173 665.084 51.8253 634.905C31.6302 613.404 16.3544 587.111 11.5645 565.61C10.1405 559.134 11.8234 560.559 14.0242 567.683ZM200.311 731.011C200.57 731.27 200.57 731.918 200.052 732.306C197.722 734.767 54.4144 787.872 53.2493 786.706C52.9904 786.577 84.7071 773.495 123.673 757.693C188.401 731.659 197.463 728.421 200.311 731.011ZM229.18 733.602C286.27 755.491 351.904 773.236 425.047 786.577C450.938 791.369 451.585 792.535 425.953 788.519C381.42 781.396 343.748 773.495 305.947 763.133C265.687 752.124 210.797 733.861 210.797 731.529C210.797 730.623 212.869 729.716 216.234 729.068C216.623 729.068 222.448 731.011 229.18 733.602Z"/>
<path d="M755.677 23.5562C755.418 23.8152 741.826 29.3847 725.385 35.9904C709.073 42.4665 677.615 55.1598 655.737 64.0969C625.704 76.2721 614.959 80.0282 612.499 79.3807C610.557 78.9921 609.651 78.0854 610.298 77.4378C612.628 75.2359 677.098 50.497 725.385 33.2704C751.794 23.9447 757.101 22.1314 755.677 23.5562Z"/>
<path d="M598.518 85.2092C600.848 86.1158 600.46 86.5044 595.929 88.4472C496.765 130.931 453.268 150.877 384.009 185.849C323.165 216.416 274.619 243.486 232.416 270.168L217.141 279.753L212.739 277.421C210.279 276.126 208.596 274.701 208.985 274.183C209.632 273.018 251.705 247.113 272.289 235.197C333.651 199.708 419.351 157.224 499.484 122.771C542.463 104.12 591.786 83.9139 593.987 84.0435C595.022 84.0435 597.094 84.5616 598.518 85.2092Z"/>
<path d="M628.94 89.2243C668.424 106.321 710.886 131.708 737.165 153.986C766.811 179.113 788.947 210.069 797.233 238.176C800.081 247.631 800.081 252.423 797.233 243.616C796.326 240.896 793.09 233.643 790.113 227.426C772.895 192.584 739.366 159.037 691.726 129.247C676.45 119.662 636.06 98.55 618.583 90.9082C608.356 86.5044 608.486 86.6339 610.816 85.2092C614.053 83.1368 616.253 83.6549 628.94 89.2243Z"/>
<path d="M400.191 23.6858C450.032 32.1048 498.319 43.3733 541.428 56.9732C568.743 65.5217 597.871 75.754 599.683 77.4378C600.33 78.0854 598.777 78.8626 596.446 79.3807C593.21 79.8987 589.715 79.2511 583.76 76.7902C537.156 57.7503 458.835 36.1199 390.223 23.5562C376.76 21.0952 365.368 18.7639 364.979 18.3753C364.591 17.9867 366.274 17.9867 368.733 18.3753C371.193 18.8934 385.433 21.2248 400.191 23.6858Z"/>
<path d="M30.5945 134.169C40.4332 146.733 67.1011 173.155 85.3544 188.569C109.822 209.033 160.439 246.077 193.062 267.189C198.499 270.686 203.03 273.924 203.03 274.313C203.03 275.867 195.133 279.623 193.58 278.717C189.825 276.385 157.202 253.589 144.127 244.004C76.8103 194.915 33.7015 152.561 17.0017 119.015C9.88159 104.767 9.88159 102.695 17.1311 114.74C20.1086 119.921 26.193 128.729 30.5945 134.169Z"/>
<path d="M200.052 286.099L204.454 288.819L201.217 290.503C195.133 293.741 163.675 316.149 146.069 329.749C76.2925 384.019 31.7596 436.735 14.6715 485.176C11.4351 494.114 9.36376 497.352 10.7878 491.264C23.2155 438.03 65.0298 383.112 137.266 325.345C153.707 312.134 193.321 283.379 195.004 283.379C195.263 283.379 197.593 284.675 200.052 286.099Z"/>
<path d="M236.429 295.555C265.816 314.206 299.863 335.059 393.33 391.531C514.76 464.841 593.987 513.931 600.201 519.759C601.495 520.925 600.977 521.702 597.482 523.645L593.081 525.976L548.548 498.129C524.081 482.715 459.223 443.081 404.334 410.053C349.574 377.025 295.073 343.867 283.293 336.484C241.608 310.45 209.503 289.597 209.503 288.56C209.503 287.524 214.681 283.509 216.364 283.509C216.882 283.379 225.944 288.819 236.429 295.555Z"/>
<path d="M200.311 731.011C200.57 731.27 200.57 731.918 200.052 732.306C197.722 734.767 54.4144 787.872 53.2493 786.706C52.9904 786.577 84.7071 773.495 123.673 757.693C188.401 731.659 197.463 728.421 200.311 731.011Z"/>
<path d="M14.0242 567.683C19.9791 586.464 35.9022 609.907 57.9097 631.926C89.3675 663.4 123.673 686.196 177.139 711.453C190.343 717.541 201.217 722.851 201.476 723.11C201.735 723.24 200.182 724.017 198.111 724.794C194.874 725.96 192.026 724.924 174.42 716.764C118.883 690.989 79.9173 665.084 51.8253 634.905C31.6302 613.404 16.3544 587.111 11.5645 565.61C10.1405 559.134 11.8234 560.559 14.0242 567.683Z"/>
<path d="M601.495 535.95C600.589 536.338 589.844 542.814 577.805 550.327C495.471 601.747 384.139 656.924 253.518 711.065C234.617 718.966 217.917 725.312 216.234 725.312C211.445 725.442 209.762 722.851 213.516 721.297C228.662 714.821 299.863 683.865 310.478 679.073C410.677 634.128 518.902 577.397 581.689 537.115L593.34 529.603L598.259 532.452C601.366 534.136 602.531 535.431 601.495 535.95Z"/>
<path d="M229.18 733.602C286.27 755.491 351.904 773.236 425.047 786.577C450.938 791.369 451.585 792.535 425.953 788.519C381.42 781.396 343.748 773.495 305.947 763.133C265.687 752.124 210.797 733.861 210.797 731.529C210.797 730.623 212.869 729.716 216.234 729.068C216.623 729.068 222.448 731.011 229.18 733.602Z"/>
<path d="M634.377 542.555C729.527 608.741 783.122 660.292 798.398 700.703C800.599 706.531 799.174 704.977 792.961 694.227C785.064 680.886 775.484 669.099 758.008 651.355C728.621 621.694 695.998 595.919 633.73 553.306L606.932 534.913L610.428 532.193C612.499 530.769 614.7 529.732 615.606 530.121C616.512 530.38 624.927 536.079 634.377 542.555Z"/>
<path d="M795.809 330.785C784.417 366.922 762.797 399.303 724.737 437.641C695.48 467.173 662.21 494.502 627.775 517.687L615.606 525.976L611.204 523.645C608.874 522.35 607.321 520.925 607.839 520.407C608.486 519.889 616.771 514.06 626.351 507.454C715.934 445.672 775.743 381.169 795.55 324.697C800.599 310.45 800.857 315.113 795.809 330.785Z"/>
</mask>
<path d="M142.186 6.32962C74.6096 11.7696 28.7822 28.4781 12.0823 53.8646C5.73899 63.4493 3.27933 81.453 6.25682 96.7367C14.4125 139.997 67.8779 194.915 172.349 267.319C188.142 278.328 192.285 281.696 190.861 282.732C138.561 319.387 117.459 336.484 85.8722 368.088C59.8516 394.122 46.3882 410.701 32.9247 432.72C11.8234 467.561 3.6677 498.647 5.35063 537.245C8.0692 597.343 45.3525 646.821 122.379 692.672C141.02 703.811 161.216 714.303 178.692 721.815C184.906 724.406 189.825 727.125 189.437 727.644C188.66 728.809 192.932 727.126 89.7559 768.702C15.966 798.363 -0.733804 805.746 9.2343 804.321C18.814 802.767 122.249 765.982 176.232 744.741L205.748 733.084L220.248 738.653C294.814 766.889 398.249 790.203 491.069 799.399C559.422 806.264 641.109 806.912 689.655 800.824C736.259 794.996 770.306 783.209 788.43 766.63C800.599 755.362 804.094 747.849 804.741 730.752C805.518 711.583 802.152 698.89 791.796 681.533C768.493 642.547 709.85 590.22 627.386 534.654C622.597 531.416 618.583 528.437 618.583 527.919C618.583 527.401 624.021 523.386 630.623 518.852C689.525 479.348 746.356 425.466 773.672 383.112C788.171 360.834 799.174 334.153 803.058 312.134C805.647 297.368 805.647 266.412 803.058 251.646C796.844 216.287 774.578 181.963 737.683 151.007C713.475 130.672 670.625 104.767 635.024 88.9653C626.61 85.3387 620.266 81.8416 620.784 81.3235C621.82 80.2873 693.15 51.2741 764.48 22.9085C786.747 14.101 805 6.45914 805 5.81156C805 3.73917 799.174 5.29349 771.859 14.4896C734.317 27.1828 690.043 43.2437 642.921 61.3769L604.602 76.1426L587.514 69.6664C504.533 38.1923 388.411 14.2305 283.293 6.84769C253 4.77536 166.264 4.38675 142.186 6.32962ZM276.82 10.7334C371.582 19.4115 468.156 39.4875 548.807 66.9464C582.206 78.474 587.126 80.4168 586.996 81.9711C586.996 82.6188 581.43 85.4682 574.568 88.1882C465.696 132.097 352.681 185.978 272.936 231.959C251.576 244.264 220.118 263.303 211.315 269.261L205.878 272.888L180.893 255.921C106.326 205.407 54.6733 162.016 30.0767 129.377C20.6264 116.683 10.9172 98.032 8.97539 88.4472C5.09171 69.0188 20.6264 48.1656 49.3656 34.0476C77.1987 20.4476 110.598 13.3239 170.666 8.2725C184.259 7.10678 255.718 8.79056 276.82 10.7334ZM400.191 23.6858C450.032 32.1048 498.319 43.3733 541.428 56.9732C568.743 65.5217 597.871 75.754 599.683 77.4378C600.33 78.0854 598.777 78.8626 596.446 79.3807C593.21 79.8987 589.715 79.2511 583.76 76.7902C537.156 57.7503 458.835 36.1199 390.223 23.5562C376.76 21.0952 365.368 18.7639 364.979 18.3753C364.591 17.9867 366.274 17.9867 368.733 18.3753C371.193 18.8934 385.433 21.2248 400.191 23.6858ZM755.677 23.5562C755.418 23.8152 741.826 29.3847 725.385 35.9904C709.073 42.4665 677.615 55.1598 655.737 64.0969C625.704 76.2721 614.959 80.0282 612.499 79.3807C610.557 78.9921 609.651 78.0854 610.298 77.4378C612.628 75.2359 677.098 50.497 725.385 33.2704C751.794 23.9447 757.101 22.1314 755.677 23.5562ZM598.518 85.2092C600.848 86.1158 600.46 86.5044 595.929 88.4472C496.765 130.931 453.268 150.877 384.009 185.849C323.165 216.416 274.619 243.486 232.416 270.168L217.141 279.753L212.739 277.421C210.279 276.126 208.596 274.701 208.985 274.183C209.632 273.018 251.705 247.113 272.289 235.197C333.651 199.708 419.351 157.224 499.484 122.771C542.463 104.12 591.786 83.9139 593.987 84.0435C595.022 84.0435 597.094 84.5616 598.518 85.2092ZM628.94 89.2243C668.424 106.321 710.886 131.708 737.165 153.986C766.811 179.113 788.947 210.069 797.233 238.176C800.081 247.631 800.081 252.423 797.233 243.616C796.326 240.896 793.09 233.643 790.113 227.426C772.895 192.584 739.366 159.037 691.726 129.247C676.45 119.662 636.06 98.55 618.583 90.9082C608.356 86.5044 608.486 86.6339 610.816 85.2092C614.053 83.1368 616.253 83.6549 628.94 89.2243ZM631.659 100.104C732.893 147.251 791.666 206.184 801.246 270.168C806.165 302.29 787.523 349.177 752.829 392.179C722.796 429.352 677.615 468.986 620.914 507.973L604.473 519.241L596.964 514.19C569.002 495.279 515.537 462.251 389.446 386.091C333.521 352.286 272.289 314.854 253.388 303.067L218.953 281.437L224.908 277.681C280.962 242.062 356.306 201.132 434.109 163.83C502.85 130.931 602.143 87.5406 606.285 88.7063C607.709 89.0949 619.101 94.1463 631.659 100.104ZM30.5945 134.169C40.4332 146.733 67.1011 173.155 85.3544 188.569C109.822 209.033 160.439 246.077 193.062 267.189C198.499 270.686 203.03 273.924 203.03 274.313C203.03 275.867 195.133 279.623 193.58 278.717C189.825 276.385 157.202 253.589 144.127 244.004C76.8103 194.915 33.7015 152.561 17.0017 119.015C9.88159 104.767 9.88159 102.695 17.1311 114.74C20.1086 119.921 26.193 128.729 30.5945 134.169ZM200.052 286.099L204.454 288.819L201.217 290.503C195.133 293.741 163.675 316.149 146.069 329.749C76.2925 384.019 31.7596 436.735 14.6715 485.176C11.4351 494.114 9.36376 497.352 10.7878 491.264C23.2155 438.03 65.0298 383.112 137.266 325.345C153.707 312.134 193.321 283.379 195.004 283.379C195.263 283.379 197.593 284.675 200.052 286.099ZM236.429 295.555C265.816 314.206 299.863 335.059 393.33 391.531C514.76 464.841 593.987 513.931 600.201 519.759C601.495 520.925 600.977 521.702 597.482 523.645L593.081 525.976L548.548 498.129C524.081 482.715 459.223 443.081 404.334 410.053C349.574 377.025 295.073 343.867 283.293 336.484C241.608 310.45 209.503 289.597 209.503 288.56C209.503 287.524 214.681 283.509 216.364 283.509C216.882 283.379 225.944 288.819 236.429 295.555ZM212.739 294.648C238.76 312.393 303.358 352.286 419.221 422.228C539.356 494.761 590.103 526.235 590.103 528.049C589.974 529.214 555.797 550.197 526.022 567.294C462.977 603.431 399.544 635.682 317.598 672.855C287.306 686.714 207.431 721.167 205.878 721.167C204.195 721.167 177.527 709.122 162.899 701.739C94.1574 667.286 44.7052 624.802 23.2155 581.93C11.9529 559.782 6.51573 535.561 8.84594 518.852C17.2606 459.401 61.9229 398.914 146.069 333.116C170.019 314.465 202.771 291.28 205.619 291.28C206.784 291.151 209.891 292.705 212.739 294.648ZM795.809 330.785C784.417 366.922 762.797 399.303 724.737 437.641C695.48 467.173 662.21 494.502 627.775 517.687L615.606 525.976L611.204 523.645C608.874 522.35 607.321 520.925 607.839 520.407C608.486 519.889 616.771 514.06 626.351 507.454C715.934 445.672 775.743 381.169 795.55 324.697C800.599 310.45 800.857 315.113 795.809 330.785ZM601.495 535.95C600.589 536.338 589.844 542.814 577.805 550.327C495.471 601.747 384.139 656.924 253.518 711.065C234.617 718.966 217.917 725.312 216.234 725.312C211.445 725.442 209.762 722.851 213.516 721.297C228.662 714.821 299.863 683.865 310.478 679.073C410.677 634.128 518.902 577.397 581.689 537.115L593.34 529.603L598.259 532.452C601.366 534.136 602.531 535.431 601.495 535.95ZM634.377 542.555C729.527 608.741 783.122 660.292 798.398 700.703C800.599 706.531 799.174 704.977 792.961 694.227C785.064 680.886 775.484 669.099 758.008 651.355C728.621 621.694 695.998 595.919 633.73 553.306L606.932 534.913L610.428 532.193C612.499 530.769 614.7 529.732 615.606 530.121C616.512 530.38 624.927 536.079 634.377 542.555ZM634.636 556.803C739.366 628.429 792.313 680.368 801.116 720.261C803.058 728.939 802.281 734.12 797.103 744.223C785.323 768.055 748.428 786.188 694.315 794.866C669.33 798.881 670.236 798.752 644.475 800.695C621.043 802.378 566.672 801.731 542.204 799.529C457.281 791.887 381.291 778.028 305.818 756.268C271.124 746.295 225.167 730.623 222.06 727.773C221.542 727.255 228.274 724.017 236.947 720.52C313.585 690.341 429.837 636.459 496.248 600.581C530.812 581.93 580.523 552.658 595.929 541.908C599.553 539.447 603.178 537.374 604.214 537.374C605.12 537.245 618.842 546.052 634.636 556.803ZM14.0242 567.683C19.9791 586.464 35.9022 609.907 57.9097 631.926C89.3675 663.4 123.673 686.196 177.139 711.453C190.343 717.541 201.217 722.851 201.476 723.11C201.735 723.24 200.182 724.017 198.111 724.794C194.874 725.96 192.026 724.924 174.42 716.764C118.883 690.989 79.9173 665.084 51.8253 634.905C31.6302 613.404 16.3544 587.111 11.5645 565.61C10.1405 559.134 11.8234 560.559 14.0242 567.683ZM200.311 731.011C200.57 731.27 200.57 731.918 200.052 732.306C197.722 734.767 54.4144 787.872 53.2493 786.706C52.9904 786.577 84.7071 773.495 123.673 757.693C188.401 731.659 197.463 728.421 200.311 731.011ZM229.18 733.602C286.27 755.491 351.904 773.236 425.047 786.577C450.938 791.369 451.585 792.535 425.953 788.519C381.42 781.396 343.748 773.495 305.947 763.133C265.687 752.124 210.797 733.861 210.797 731.529C210.797 730.623 212.869 729.716 216.234 729.068C216.623 729.068 222.448 731.011 229.18 733.602Z" fill="black"/>
<path d="M755.677 23.5562C755.418 23.8152 741.826 29.3847 725.385 35.9904C709.073 42.4665 677.615 55.1598 655.737 64.0969C625.704 76.2721 614.959 80.0282 612.499 79.3807C610.557 78.9921 609.651 78.0854 610.298 77.4378C612.628 75.2359 677.098 50.497 725.385 33.2704C751.794 23.9447 757.101 22.1314 755.677 23.5562Z" fill="black"/>
<path d="M598.518 85.2092C600.848 86.1158 600.46 86.5044 595.929 88.4472C496.765 130.931 453.268 150.877 384.009 185.849C323.165 216.416 274.619 243.486 232.416 270.168L217.141 279.753L212.739 277.421C210.279 276.126 208.596 274.701 208.985 274.183C209.632 273.018 251.705 247.113 272.289 235.197C333.651 199.708 419.351 157.224 499.484 122.771C542.463 104.12 591.786 83.9139 593.987 84.0435C595.022 84.0435 597.094 84.5616 598.518 85.2092Z" fill="black"/>
<path d="M628.94 89.2243C668.424 106.321 710.886 131.708 737.165 153.986C766.811 179.113 788.947 210.069 797.233 238.176C800.081 247.631 800.081 252.423 797.233 243.616C796.326 240.896 793.09 233.643 790.113 227.426C772.895 192.584 739.366 159.037 691.726 129.247C676.45 119.662 636.06 98.55 618.583 90.9082C608.356 86.5044 608.486 86.6339 610.816 85.2092C614.053 83.1368 616.253 83.6549 628.94 89.2243Z" fill="black"/>
<path d="M400.191 23.6858C450.032 32.1048 498.319 43.3733 541.428 56.9732C568.743 65.5217 597.871 75.754 599.683 77.4378C600.33 78.0854 598.777 78.8626 596.446 79.3807C593.21 79.8987 589.715 79.2511 583.76 76.7902C537.156 57.7503 458.835 36.1199 390.223 23.5562C376.76 21.0952 365.368 18.7639 364.979 18.3753C364.591 17.9867 366.274 17.9867 368.733 18.3753C371.193 18.8934 385.433 21.2248 400.191 23.6858Z" fill="black"/>
<path d="M30.5945 134.169C40.4332 146.733 67.1011 173.155 85.3544 188.569C109.822 209.033 160.439 246.077 193.062 267.189C198.499 270.686 203.03 273.924 203.03 274.313C203.03 275.867 195.133 279.623 193.58 278.717C189.825 276.385 157.202 253.589 144.127 244.004C76.8103 194.915 33.7015 152.561 17.0017 119.015C9.88159 104.767 9.88159 102.695 17.1311 114.74C20.1086 119.921 26.193 128.729 30.5945 134.169Z" fill="black"/>
<path d="M200.052 286.099L204.454 288.819L201.217 290.503C195.133 293.741 163.675 316.149 146.069 329.749C76.2925 384.019 31.7596 436.735 14.6715 485.176C11.4351 494.114 9.36376 497.352 10.7878 491.264C23.2155 438.03 65.0298 383.112 137.266 325.345C153.707 312.134 193.321 283.379 195.004 283.379C195.263 283.379 197.593 284.675 200.052 286.099Z" fill="black"/>
<path d="M236.429 295.555C265.816 314.206 299.863 335.059 393.33 391.531C514.76 464.841 593.987 513.931 600.201 519.759C601.495 520.925 600.977 521.702 597.482 523.645L593.081 525.976L548.548 498.129C524.081 482.715 459.223 443.081 404.334 410.053C349.574 377.025 295.073 343.867 283.293 336.484C241.608 310.45 209.503 289.597 209.503 288.56C209.503 287.524 214.681 283.509 216.364 283.509C216.882 283.379 225.944 288.819 236.429 295.555Z" fill="black"/>
<path d="M200.311 731.011C200.57 731.27 200.57 731.918 200.052 732.306C197.722 734.767 54.4144 787.872 53.2493 786.706C52.9904 786.577 84.7071 773.495 123.673 757.693C188.401 731.659 197.463 728.421 200.311 731.011Z" fill="black"/>
<path d="M14.0242 567.683C19.9791 586.464 35.9022 609.907 57.9097 631.926C89.3675 663.4 123.673 686.196 177.139 711.453C190.343 717.541 201.217 722.851 201.476 723.11C201.735 723.24 200.182 724.017 198.111 724.794C194.874 725.96 192.026 724.924 174.42 716.764C118.883 690.989 79.9173 665.084 51.8253 634.905C31.6302 613.404 16.3544 587.111 11.5645 565.61C10.1405 559.134 11.8234 560.559 14.0242 567.683Z" fill="black"/>
<path d="M601.495 535.95C600.589 536.338 589.844 542.814 577.805 550.327C495.471 601.747 384.139 656.924 253.518 711.065C234.617 718.966 217.917 725.312 216.234 725.312C211.445 725.442 209.762 722.851 213.516 721.297C228.662 714.821 299.863 683.865 310.478 679.073C410.677 634.128 518.902 577.397 581.689 537.115L593.34 529.603L598.259 532.452C601.366 534.136 602.531 535.431 601.495 535.95Z" fill="black"/>
<path d="M229.18 733.602C286.27 755.491 351.904 773.236 425.047 786.577C450.938 791.369 451.585 792.535 425.953 788.519C381.42 781.396 343.748 773.495 305.947 763.133C265.687 752.124 210.797 733.861 210.797 731.529C210.797 730.623 212.869 729.716 216.234 729.068C216.623 729.068 222.448 731.011 229.18 733.602Z" fill="black"/>
<path d="M634.377 542.555C729.527 608.741 783.122 660.292 798.398 700.703C800.599 706.531 799.174 704.977 792.961 694.227C785.064 680.886 775.484 669.099 758.008 651.355C728.621 621.694 695.998 595.919 633.73 553.306L606.932 534.913L610.428 532.193C612.499 530.769 614.7 529.732 615.606 530.121C616.512 530.38 624.927 536.079 634.377 542.555Z" fill="black"/>
<path d="M795.809 330.785C784.417 366.922 762.797 399.303 724.737 437.641C695.48 467.173 662.21 494.502 627.775 517.687L615.606 525.976L611.204 523.645C608.874 522.35 607.321 520.925 607.839 520.407C608.486 519.889 616.771 514.06 626.351 507.454C715.934 445.672 775.743 381.169 795.55 324.697C800.599 310.45 800.857 315.113 795.809 330.785Z" fill="black"/>
<path d="M142.186 6.32962C74.6096 11.7696 28.7822 28.4781 12.0823 53.8646C5.73899 63.4493 3.27933 81.453 6.25682 96.7367C14.4125 139.997 67.8779 194.915 172.349 267.319C188.142 278.328 192.285 281.696 190.861 282.732C138.561 319.387 117.459 336.484 85.8722 368.088C59.8516 394.122 46.3882 410.701 32.9247 432.72C11.8234 467.561 3.6677 498.647 5.35063 537.245C8.0692 597.343 45.3525 646.821 122.379 692.672C141.02 703.811 161.216 714.303 178.692 721.815C184.906 724.406 189.825 727.125 189.437 727.644C188.66 728.809 192.932 727.126 89.7559 768.702C15.966 798.363 -0.733804 805.746 9.2343 804.321C18.814 802.767 122.249 765.982 176.232 744.741L205.748 733.084L220.248 738.653C294.814 766.889 398.249 790.203 491.069 799.399C559.422 806.264 641.109 806.912 689.655 800.824C736.259 794.996 770.306 783.209 788.43 766.63C800.599 755.362 804.094 747.849 804.741 730.752C805.518 711.583 802.152 698.89 791.796 681.533C768.493 642.547 709.85 590.22 627.386 534.654C622.597 531.416 618.583 528.437 618.583 527.919C618.583 527.401 624.021 523.386 630.623 518.852C689.525 479.348 746.356 425.466 773.672 383.112C788.171 360.834 799.174 334.153 803.058 312.134C805.647 297.368 805.647 266.412 803.058 251.646C796.844 216.287 774.578 181.963 737.683 151.007C713.475 130.672 670.625 104.767 635.024 88.9653C626.61 85.3387 620.266 81.8416 620.784 81.3235C621.82 80.2873 693.15 51.2741 764.48 22.9085C786.747 14.101 805 6.45914 805 5.81156C805 3.73917 799.174 5.29349 771.859 14.4896C734.317 27.1828 690.043 43.2437 642.921 61.3769L604.602 76.1426L587.514 69.6664C504.533 38.1923 388.411 14.2305 283.293 6.84769C253 4.77536 166.264 4.38675 142.186 6.32962ZM276.82 10.7334C371.582 19.4115 468.156 39.4875 548.807 66.9464C582.206 78.474 587.126 80.4168 586.996 81.9711C586.996 82.6188 581.43 85.4682 574.568 88.1882C465.696 132.097 352.681 185.978 272.936 231.959C251.576 244.264 220.118 263.303 211.315 269.261L205.878 272.888L180.893 255.921C106.326 205.407 54.6733 162.016 30.0767 129.377C20.6264 116.683 10.9172 98.032 8.97539 88.4472C5.09171 69.0188 20.6264 48.1656 49.3656 34.0476C77.1987 20.4476 110.598 13.3239 170.666 8.2725C184.259 7.10678 255.718 8.79056 276.82 10.7334ZM400.191 23.6858C450.032 32.1048 498.319 43.3733 541.428 56.9732C568.743 65.5217 597.871 75.754 599.683 77.4378C600.33 78.0854 598.777 78.8626 596.446 79.3807C593.21 79.8987 589.715 79.2511 583.76 76.7902C537.156 57.7503 458.835 36.1199 390.223 23.5562C376.76 21.0952 365.368 18.7639 364.979 18.3753C364.591 17.9867 366.274 17.9867 368.733 18.3753C371.193 18.8934 385.433 21.2248 400.191 23.6858ZM755.677 23.5562C755.418 23.8152 741.826 29.3847 725.385 35.9904C709.073 42.4665 677.615 55.1598 655.737 64.0969C625.704 76.2721 614.959 80.0282 612.499 79.3807C610.557 78.9921 609.651 78.0854 610.298 77.4378C612.628 75.2359 677.098 50.497 725.385 33.2704C751.794 23.9447 757.101 22.1314 755.677 23.5562ZM598.518 85.2092C600.848 86.1158 600.46 86.5044 595.929 88.4472C496.765 130.931 453.268 150.877 384.009 185.849C323.165 216.416 274.619 243.486 232.416 270.168L217.141 279.753L212.739 277.421C210.279 276.126 208.596 274.701 208.985 274.183C209.632 273.018 251.705 247.113 272.289 235.197C333.651 199.708 419.351 157.224 499.484 122.771C542.463 104.12 591.786 83.9139 593.987 84.0435C595.022 84.0435 597.094 84.5616 598.518 85.2092ZM628.94 89.2243C668.424 106.321 710.886 131.708 737.165 153.986C766.811 179.113 788.947 210.069 797.233 238.176C800.081 247.631 800.081 252.423 797.233 243.616C796.326 240.896 793.09 233.643 790.113 227.426C772.895 192.584 739.366 159.037 691.726 129.247C676.45 119.662 636.06 98.55 618.583 90.9082C608.356 86.5044 608.486 86.6339 610.816 85.2092C614.053 83.1368 616.253 83.6549 628.94 89.2243ZM631.659 100.104C732.893 147.251 791.666 206.184 801.246 270.168C806.165 302.29 787.523 349.177 752.829 392.179C722.796 429.352 677.615 468.986 620.914 507.973L604.473 519.241L596.964 514.19C569.002 495.279 515.537 462.251 389.446 386.091C333.521 352.286 272.289 314.854 253.388 303.067L218.953 281.437L224.908 277.681C280.962 242.062 356.306 201.132 434.109 163.83C502.85 130.931 602.143 87.5406 606.285 88.7063C607.709 89.0949 619.101 94.1463 631.659 100.104ZM30.5945 134.169C40.4332 146.733 67.1011 173.155 85.3544 188.569C109.822 209.033 160.439 246.077 193.062 267.189C198.499 270.686 203.03 273.924 203.03 274.313C203.03 275.867 195.133 279.623 193.58 278.717C189.825 276.385 157.202 253.589 144.127 244.004C76.8103 194.915 33.7015 152.561 17.0017 119.015C9.88159 104.767 9.88159 102.695 17.1311 114.74C20.1086 119.921 26.193 128.729 30.5945 134.169ZM200.052 286.099L204.454 288.819L201.217 290.503C195.133 293.741 163.675 316.149 146.069 329.749C76.2925 384.019 31.7596 436.735 14.6715 485.176C11.4351 494.114 9.36376 497.352 10.7878 491.264C23.2155 438.03 65.0298 383.112 137.266 325.345C153.707 312.134 193.321 283.379 195.004 283.379C195.263 283.379 197.593 284.675 200.052 286.099ZM236.429 295.555C265.816 314.206 299.863 335.059 393.33 391.531C514.76 464.841 593.987 513.931 600.201 519.759C601.495 520.925 600.977 521.702 597.482 523.645L593.081 525.976L548.548 498.129C524.081 482.715 459.223 443.081 404.334 410.053C349.574 377.025 295.073 343.867 283.293 336.484C241.608 310.45 209.503 289.597 209.503 288.56C209.503 287.524 214.681 283.509 216.364 283.509C216.882 283.379 225.944 288.819 236.429 295.555ZM212.739 294.648C238.76 312.393 303.358 352.286 419.221 422.228C539.356 494.761 590.103 526.235 590.103 528.049C589.974 529.214 555.797 550.197 526.022 567.294C462.977 603.431 399.544 635.682 317.598 672.855C287.306 686.714 207.431 721.167 205.878 721.167C204.195 721.167 177.527 709.122 162.899 701.739C94.1574 667.286 44.7052 624.802 23.2155 581.93C11.9529 559.782 6.51573 535.561 8.84594 518.852C17.2606 459.401 61.9229 398.914 146.069 333.116C170.019 314.465 202.771 291.28 205.619 291.28C206.784 291.151 209.891 292.705 212.739 294.648ZM795.809 330.785C784.417 366.922 762.797 399.303 724.737 437.641C695.48 467.173 662.21 494.502 627.775 517.687L615.606 525.976L611.204 523.645C608.874 522.35 607.321 520.925 607.839 520.407C608.486 519.889 616.771 514.06 626.351 507.454C715.934 445.672 775.743 381.169 795.55 324.697C800.599 310.45 800.857 315.113 795.809 330.785ZM601.495 535.95C600.589 536.338 589.844 542.814 577.805 550.327C495.471 601.747 384.139 656.924 253.518 711.065C234.617 718.966 217.917 725.312 216.234 725.312C211.445 725.442 209.762 722.851 213.516 721.297C228.662 714.821 299.863 683.865 310.478 679.073C410.677 634.128 518.902 577.397 581.689 537.115L593.34 529.603L598.259 532.452C601.366 534.136 602.531 535.431 601.495 535.95ZM634.377 542.555C729.527 608.741 783.122 660.292 798.398 700.703C800.599 706.531 799.174 704.977 792.961 694.227C785.064 680.886 775.484 669.099 758.008 651.355C728.621 621.694 695.998 595.919 633.73 553.306L606.932 534.913L610.428 532.193C612.499 530.769 614.7 529.732 615.606 530.121C616.512 530.38 624.927 536.079 634.377 542.555ZM634.636 556.803C739.366 628.429 792.313 680.368 801.116 720.261C803.058 728.939 802.281 734.12 797.103 744.223C785.323 768.055 748.428 786.188 694.315 794.866C669.33 798.881 670.236 798.752 644.475 800.695C621.043 802.378 566.672 801.731 542.204 799.529C457.281 791.887 381.291 778.028 305.818 756.268C271.124 746.295 225.167 730.623 222.06 727.773C221.542 727.255 228.274 724.017 236.947 720.52C313.585 690.341 429.837 636.459 496.248 600.581C530.812 581.93 580.523 552.658 595.929 541.908C599.553 539.447 603.178 537.374 604.214 537.374C605.12 537.245 618.842 546.052 634.636 556.803ZM14.0242 567.683C19.9791 586.464 35.9022 609.907 57.9097 631.926C89.3675 663.4 123.673 686.196 177.139 711.453C190.343 717.541 201.217 722.851 201.476 723.11C201.735 723.24 200.182 724.017 198.111 724.794C194.874 725.96 192.026 724.924 174.42 716.764C118.883 690.989 79.9173 665.084 51.8253 634.905C31.6302 613.404 16.3544 587.111 11.5645 565.61C10.1405 559.134 11.8234 560.559 14.0242 567.683ZM200.311 731.011C200.57 731.27 200.57 731.918 200.052 732.306C197.722 734.767 54.4144 787.872 53.2493 786.706C52.9904 786.577 84.7071 773.495 123.673 757.693C188.401 731.659 197.463 728.421 200.311 731.011ZM229.18 733.602C286.27 755.491 351.904 773.236 425.047 786.577C450.938 791.369 451.585 792.535 425.953 788.519C381.42 781.396 343.748 773.495 305.947 763.133C265.687 752.124 210.797 733.861 210.797 731.529C210.797 730.623 212.869 729.716 216.234 729.068C216.623 729.068 222.448 731.011 229.18 733.602Z" stroke="black" stroke-width="10" mask="url(#path-1-outside-1_10359_189)"/>
<path d="M755.677 23.5562C755.418 23.8152 741.826 29.3847 725.385 35.9904C709.073 42.4665 677.615 55.1598 655.737 64.0969C625.704 76.2721 614.959 80.0282 612.499 79.3807C610.557 78.9921 609.651 78.0854 610.298 77.4378C612.628 75.2359 677.098 50.497 725.385 33.2704C751.794 23.9447 757.101 22.1314 755.677 23.5562Z" stroke="black" stroke-width="10" mask="url(#path-1-outside-1_10359_189)"/>
<path d="M598.518 85.2092C600.848 86.1158 600.46 86.5044 595.929 88.4472C496.765 130.931 453.268 150.877 384.009 185.849C323.165 216.416 274.619 243.486 232.416 270.168L217.141 279.753L212.739 277.421C210.279 276.126 208.596 274.701 208.985 274.183C209.632 273.018 251.705 247.113 272.289 235.197C333.651 199.708 419.351 157.224 499.484 122.771C542.463 104.12 591.786 83.9139 593.987 84.0435C595.022 84.0435 597.094 84.5616 598.518 85.2092Z" stroke="black" stroke-width="10" mask="url(#path-1-outside-1_10359_189)"/>
<path d="M628.94 89.2243C668.424 106.321 710.886 131.708 737.165 153.986C766.811 179.113 788.947 210.069 797.233 238.176C800.081 247.631 800.081 252.423 797.233 243.616C796.326 240.896 793.09 233.643 790.113 227.426C772.895 192.584 739.366 159.037 691.726 129.247C676.45 119.662 636.06 98.55 618.583 90.9082C608.356 86.5044 608.486 86.6339 610.816 85.2092C614.053 83.1368 616.253 83.6549 628.94 89.2243Z" stroke="black" stroke-width="10" mask="url(#path-1-outside-1_10359_189)"/>
<path d="M400.191 23.6858C450.032 32.1048 498.319 43.3733 541.428 56.9732C568.743 65.5217 597.871 75.754 599.683 77.4378C600.33 78.0854 598.777 78.8626 596.446 79.3807C593.21 79.8987 589.715 79.2511 583.76 76.7902C537.156 57.7503 458.835 36.1199 390.223 23.5562C376.76 21.0952 365.368 18.7639 364.979 18.3753C364.591 17.9867 366.274 17.9867 368.733 18.3753C371.193 18.8934 385.433 21.2248 400.191 23.6858Z" stroke="black" stroke-width="10" mask="url(#path-1-outside-1_10359_189)"/>
<path d="M30.5945 134.169C40.4332 146.733 67.1011 173.155 85.3544 188.569C109.822 209.033 160.439 246.077 193.062 267.189C198.499 270.686 203.03 273.924 203.03 274.313C203.03 275.867 195.133 279.623 193.58 278.717C189.825 276.385 157.202 253.589 144.127 244.004C76.8103 194.915 33.7015 152.561 17.0017 119.015C9.88159 104.767 9.88159 102.695 17.1311 114.74C20.1086 119.921 26.193 128.729 30.5945 134.169Z" stroke="black" stroke-width="10" mask="url(#path-1-outside-1_10359_189)"/>
<path d="M200.052 286.099L204.454 288.819L201.217 290.503C195.133 293.741 163.675 316.149 146.069 329.749C76.2925 384.019 31.7596 436.735 14.6715 485.176C11.4351 494.114 9.36376 497.352 10.7878 491.264C23.2155 438.03 65.0298 383.112 137.266 325.345C153.707 312.134 193.321 283.379 195.004 283.379C195.263 283.379 197.593 284.675 200.052 286.099Z" stroke="black" stroke-width="10" mask="url(#path-1-outside-1_10359_189)"/>
<path d="M236.429 295.555C265.816 314.206 299.863 335.059 393.33 391.531C514.76 464.841 593.987 513.931 600.201 519.759C601.495 520.925 600.977 521.702 597.482 523.645L593.081 525.976L548.548 498.129C524.081 482.715 459.223 443.081 404.334 410.053C349.574 377.025 295.073 343.867 283.293 336.484C241.608 310.45 209.503 289.597 209.503 288.56C209.503 287.524 214.681 283.509 216.364 283.509C216.882 283.379 225.944 288.819 236.429 295.555Z" stroke="black" stroke-width="10" mask="url(#path-1-outside-1_10359_189)"/>
<path d="M200.311 731.011C200.57 731.27 200.57 731.918 200.052 732.306C197.722 734.767 54.4144 787.872 53.2493 786.706C52.9904 786.577 84.7071 773.495 123.673 757.693C188.401 731.659 197.463 728.421 200.311 731.011Z" stroke="black" stroke-width="10" mask="url(#path-1-outside-1_10359_189)"/>
<path d="M14.0242 567.683C19.9791 586.464 35.9022 609.907 57.9097 631.926C89.3675 663.4 123.673 686.196 177.139 711.453C190.343 717.541 201.217 722.851 201.476 723.11C201.735 723.24 200.182 724.017 198.111 724.794C194.874 725.96 192.026 724.924 174.42 716.764C118.883 690.989 79.9173 665.084 51.8253 634.905C31.6302 613.404 16.3544 587.111 11.5645 565.61C10.1405 559.134 11.8234 560.559 14.0242 567.683Z" stroke="black" stroke-width="10" mask="url(#path-1-outside-1_10359_189)"/>
<path d="M601.495 535.95C600.589 536.338 589.844 542.814 577.805 550.327C495.471 601.747 384.139 656.924 253.518 711.065C234.617 718.966 217.917 725.312 216.234 725.312C211.445 725.442 209.762 722.851 213.516 721.297C228.662 714.821 299.863 683.865 310.478 679.073C410.677 634.128 518.902 577.397 581.689 537.115L593.34 529.603L598.259 532.452C601.366 534.136 602.531 535.431 601.495 535.95Z" stroke="black" stroke-width="10" mask="url(#path-1-outside-1_10359_189)"/>
<path d="M229.18 733.602C286.27 755.491 351.904 773.236 425.047 786.577C450.938 791.369 451.585 792.535 425.953 788.519C381.42 781.396 343.748 773.495 305.947 763.133C265.687 752.124 210.797 733.861 210.797 731.529C210.797 730.623 212.869 729.716 216.234 729.068C216.623 729.068 222.448 731.011 229.18 733.602Z" stroke="black" stroke-width="10" mask="url(#path-1-outside-1_10359_189)"/>
<path d="M634.377 542.555C729.527 608.741 783.122 660.292 798.398 700.703C800.599 706.531 799.174 704.977 792.961 694.227C785.064 680.886 775.484 669.099 758.008 651.355C728.621 621.694 695.998 595.919 633.73 553.306L606.932 534.913L610.428 532.193C612.499 530.769 614.7 529.732 615.606 530.121C616.512 530.38 624.927 536.079 634.377 542.555Z" stroke="black" stroke-width="10" mask="url(#path-1-outside-1_10359_189)"/>
<path d="M795.809 330.785C784.417 366.922 762.797 399.303 724.737 437.641C695.48 467.173 662.21 494.502 627.775 517.687L615.606 525.976L611.204 523.645C608.874 522.35 607.321 520.925 607.839 520.407C608.486 519.889 616.771 514.06 626.351 507.454C715.934 445.672 775.743 381.169 795.55 324.697C800.599 310.45 800.857 315.113 795.809 330.785Z" stroke="black" stroke-width="10" mask="url(#path-1-outside-1_10359_189)"/>
</svg>
